G04 #@! TF.GenerationSoftware,KiCad,Pcbnew,5.1.6-c6e7f7d~87~ubuntu18.04.1*
G04 #@! TF.CreationDate,2021-01-12T05:29:31+00:00*
G04 #@! TF.ProjectId,amp,616d702e-6b69-4636-9164-5f7063625858,rev?*
G04 #@! TF.SameCoordinates,Original*
G04 #@! TF.FileFunction,Legend,Top*
G04 #@! TF.FilePolarity,Positive*
%FSLAX46Y46*%
G04 Gerber Fmt 4.6, Leading zero omitted, Abs format (unit mm)*
G04 Created by KiCad (PCBNEW 5.1.6-c6e7f7d~87~ubuntu18.04.1) date 2021-01-12 05:29:31*
%MOMM*%
%LPD*%
G01*
G04 APERTURE LIST*
%ADD10C,0.120000*%
%ADD11C,0.150000*%
%ADD12C,0.015000*%
G04 APERTURE END LIST*
D10*
X149000000Y-56500000D02*
X127000000Y-56500000D01*
X149000000Y-62500000D02*
X149000000Y-56500000D01*
X127000000Y-62500000D02*
X149000000Y-62500000D01*
X127000000Y-56500000D02*
X127000000Y-62500000D01*
D11*
X135690476Y-61952380D02*
X135690476Y-60952380D01*
X136071428Y-60952380D01*
X136166666Y-61000000D01*
X136214285Y-61047619D01*
X136261904Y-61142857D01*
X136261904Y-61285714D01*
X136214285Y-61380952D01*
X136166666Y-61428571D01*
X136071428Y-61476190D01*
X135690476Y-61476190D01*
X136880952Y-60952380D02*
X137071428Y-60952380D01*
X137166666Y-61000000D01*
X137261904Y-61095238D01*
X137309523Y-61285714D01*
X137309523Y-61619047D01*
X137261904Y-61809523D01*
X137166666Y-61904761D01*
X137071428Y-61952380D01*
X136880952Y-61952380D01*
X136785714Y-61904761D01*
X136690476Y-61809523D01*
X136642857Y-61619047D01*
X136642857Y-61285714D01*
X136690476Y-61095238D01*
X136785714Y-61000000D01*
X136880952Y-60952380D01*
X137642857Y-60952380D02*
X137880952Y-61952380D01*
X138071428Y-61238095D01*
X138261904Y-61952380D01*
X138500000Y-60952380D01*
X138880952Y-61428571D02*
X139214285Y-61428571D01*
X139357142Y-61952380D02*
X138880952Y-61952380D01*
X138880952Y-60952380D01*
X139357142Y-60952380D01*
X140357142Y-61952380D02*
X140023809Y-61476190D01*
X139785714Y-61952380D02*
X139785714Y-60952380D01*
X140166666Y-60952380D01*
X140261904Y-61000000D01*
X140309523Y-61047619D01*
X140357142Y-61142857D01*
X140357142Y-61285714D01*
X140309523Y-61380952D01*
X140261904Y-61428571D01*
X140166666Y-61476190D01*
X139785714Y-61476190D01*
X139878690Y-59952380D02*
X139545357Y-59476190D01*
X139307261Y-59952380D02*
X139307261Y-58952380D01*
X139688214Y-58952380D01*
X139783452Y-59000000D01*
X139831071Y-59047619D01*
X139878690Y-59142857D01*
X139878690Y-59285714D01*
X139831071Y-59380952D01*
X139783452Y-59428571D01*
X139688214Y-59476190D01*
X139307261Y-59476190D01*
X140640595Y-59428571D02*
X140307261Y-59428571D01*
X140307261Y-59952380D02*
X140307261Y-58952380D01*
X140783452Y-58952380D01*
X142116785Y-58952380D02*
X142307261Y-58952380D01*
X142402500Y-59000000D01*
X142497738Y-59095238D01*
X142545357Y-59285714D01*
X142545357Y-59619047D01*
X142497738Y-59809523D01*
X142402500Y-59904761D01*
X142307261Y-59952380D01*
X142116785Y-59952380D01*
X142021547Y-59904761D01*
X141926309Y-59809523D01*
X141878690Y-59619047D01*
X141878690Y-59285714D01*
X141926309Y-59095238D01*
X142021547Y-59000000D01*
X142116785Y-58952380D01*
X142973928Y-58952380D02*
X142973928Y-59761904D01*
X143021547Y-59857142D01*
X143069166Y-59904761D01*
X143164404Y-59952380D01*
X143354880Y-59952380D01*
X143450119Y-59904761D01*
X143497738Y-59857142D01*
X143545357Y-59761904D01*
X143545357Y-58952380D01*
X143878690Y-58952380D02*
X144450119Y-58952380D01*
X144164404Y-59952380D02*
X144164404Y-58952380D01*
X145831071Y-60333333D02*
X145783452Y-60285714D01*
X145688214Y-60142857D01*
X145640595Y-60047619D01*
X145592976Y-59904761D01*
X145545357Y-59666666D01*
X145545357Y-59476190D01*
X145592976Y-59238095D01*
X145640595Y-59095238D01*
X145688214Y-59000000D01*
X145783452Y-58857142D01*
X145831071Y-58809523D01*
X146164404Y-59047619D02*
X146212023Y-59000000D01*
X146307261Y-58952380D01*
X146545357Y-58952380D01*
X146640595Y-59000000D01*
X146688214Y-59047619D01*
X146735833Y-59142857D01*
X146735833Y-59238095D01*
X146688214Y-59380952D01*
X146116785Y-59952380D01*
X146735833Y-59952380D01*
X147069166Y-59952380D02*
X147592976Y-59285714D01*
X147069166Y-59285714D02*
X147592976Y-59952380D01*
X147878690Y-60333333D02*
X147926309Y-60285714D01*
X148021547Y-60142857D01*
X148069166Y-60047619D01*
X148116785Y-59904761D01*
X148164404Y-59666666D01*
X148164404Y-59476190D01*
X148116785Y-59238095D01*
X148069166Y-59095238D01*
X148021547Y-59000000D01*
X147926309Y-58857142D01*
X147878690Y-58809523D01*
X128407023Y-59952380D02*
X128073690Y-59476190D01*
X127835595Y-59952380D02*
X127835595Y-58952380D01*
X128216547Y-58952380D01*
X128311785Y-59000000D01*
X128359404Y-59047619D01*
X128407023Y-59142857D01*
X128407023Y-59285714D01*
X128359404Y-59380952D01*
X128311785Y-59428571D01*
X128216547Y-59476190D01*
X127835595Y-59476190D01*
X129168928Y-59428571D02*
X128835595Y-59428571D01*
X128835595Y-59952380D02*
X128835595Y-58952380D01*
X129311785Y-58952380D01*
X130454642Y-59952380D02*
X130454642Y-58952380D01*
X130930833Y-59952380D02*
X130930833Y-58952380D01*
X131502261Y-59952380D01*
X131502261Y-58952380D01*
X133026071Y-60333333D02*
X132978452Y-60285714D01*
X132883214Y-60142857D01*
X132835595Y-60047619D01*
X132787976Y-59904761D01*
X132740357Y-59666666D01*
X132740357Y-59476190D01*
X132787976Y-59238095D01*
X132835595Y-59095238D01*
X132883214Y-59000000D01*
X132978452Y-58857142D01*
X133026071Y-58809523D01*
X133359404Y-59047619D02*
X133407023Y-59000000D01*
X133502261Y-58952380D01*
X133740357Y-58952380D01*
X133835595Y-59000000D01*
X133883214Y-59047619D01*
X133930833Y-59142857D01*
X133930833Y-59238095D01*
X133883214Y-59380952D01*
X133311785Y-59952380D01*
X133930833Y-59952380D01*
X134264166Y-59952380D02*
X134787976Y-59285714D01*
X134264166Y-59285714D02*
X134787976Y-59952380D01*
X135073690Y-60333333D02*
X135121309Y-60285714D01*
X135216547Y-60142857D01*
X135264166Y-60047619D01*
X135311785Y-59904761D01*
X135359404Y-59666666D01*
X135359404Y-59476190D01*
X135311785Y-59238095D01*
X135264166Y-59095238D01*
X135216547Y-59000000D01*
X135121309Y-58857142D01*
X135073690Y-58809523D01*
X133690476Y-111452380D02*
X133690476Y-110452380D01*
X134071428Y-110452380D01*
X134166666Y-110500000D01*
X134214285Y-110547619D01*
X134261904Y-110642857D01*
X134261904Y-110785714D01*
X134214285Y-110880952D01*
X134166666Y-110928571D01*
X134071428Y-110976190D01*
X133690476Y-110976190D01*
X134880952Y-110452380D02*
X135071428Y-110452380D01*
X135166666Y-110500000D01*
X135261904Y-110595238D01*
X135309523Y-110785714D01*
X135309523Y-111119047D01*
X135261904Y-111309523D01*
X135166666Y-111404761D01*
X135071428Y-111452380D01*
X134880952Y-111452380D01*
X134785714Y-111404761D01*
X134690476Y-111309523D01*
X134642857Y-111119047D01*
X134642857Y-110785714D01*
X134690476Y-110595238D01*
X134785714Y-110500000D01*
X134880952Y-110452380D01*
X135642857Y-110452380D02*
X135880952Y-111452380D01*
X136071428Y-110738095D01*
X136261904Y-111452380D01*
X136500000Y-110452380D01*
X136880952Y-110928571D02*
X137214285Y-110928571D01*
X137357142Y-111452380D02*
X136880952Y-111452380D01*
X136880952Y-110452380D01*
X137357142Y-110452380D01*
X138357142Y-111452380D02*
X138023809Y-110976190D01*
X137785714Y-111452380D02*
X137785714Y-110452380D01*
X138166666Y-110452380D01*
X138261904Y-110500000D01*
X138309523Y-110547619D01*
X138357142Y-110642857D01*
X138357142Y-110785714D01*
X138309523Y-110880952D01*
X138261904Y-110928571D01*
X138166666Y-110976190D01*
X137785714Y-110976190D01*
X146333333Y-64872619D02*
X146333333Y-65872619D01*
X146095238Y-65872619D01*
X145952380Y-65825000D01*
X145857142Y-65729761D01*
X145809523Y-65634523D01*
X145761904Y-65444047D01*
X145761904Y-65301190D01*
X145809523Y-65110714D01*
X145857142Y-65015476D01*
X145952380Y-64920238D01*
X146095238Y-64872619D01*
X146333333Y-64872619D01*
X145380952Y-64920238D02*
X145238095Y-64872619D01*
X145000000Y-64872619D01*
X144904761Y-64920238D01*
X144857142Y-64967857D01*
X144809523Y-65063095D01*
X144809523Y-65158333D01*
X144857142Y-65253571D01*
X144904761Y-65301190D01*
X145000000Y-65348809D01*
X145190476Y-65396428D01*
X145285714Y-65444047D01*
X145333333Y-65491666D01*
X145380952Y-65586904D01*
X145380952Y-65682142D01*
X145333333Y-65777380D01*
X145285714Y-65825000D01*
X145190476Y-65872619D01*
X144952380Y-65872619D01*
X144809523Y-65825000D01*
X143857142Y-65825000D02*
X143952380Y-65872619D01*
X144095238Y-65872619D01*
X144238095Y-65825000D01*
X144333333Y-65729761D01*
X144380952Y-65634523D01*
X144428571Y-65444047D01*
X144428571Y-65301190D01*
X144380952Y-65110714D01*
X144333333Y-65015476D01*
X144238095Y-64920238D01*
X144095238Y-64872619D01*
X144000000Y-64872619D01*
X143857142Y-64920238D01*
X143809523Y-64967857D01*
X143809523Y-65301190D01*
X144000000Y-65301190D01*
X143380952Y-64967857D02*
X143333333Y-64920238D01*
X143380952Y-64872619D01*
X143428571Y-64920238D01*
X143380952Y-64967857D01*
X143380952Y-64872619D01*
X143380952Y-65491666D02*
X143333333Y-65444047D01*
X143380952Y-65396428D01*
X143428571Y-65444047D01*
X143380952Y-65491666D01*
X143380952Y-65396428D01*
X142238095Y-65872619D02*
X142000000Y-64872619D01*
X141809523Y-65586904D01*
X141619047Y-64872619D01*
X141380952Y-65872619D01*
X141000000Y-64872619D02*
X141000000Y-65539285D01*
X141000000Y-65872619D02*
X141047619Y-65825000D01*
X141000000Y-65777380D01*
X140952380Y-65825000D01*
X141000000Y-65872619D01*
X141000000Y-65777380D01*
X140380952Y-64872619D02*
X140476190Y-64920238D01*
X140523809Y-65015476D01*
X140523809Y-65872619D01*
X139857142Y-64872619D02*
X139952380Y-64920238D01*
X140000000Y-65015476D01*
X140000000Y-65872619D01*
X139476190Y-64872619D02*
X139476190Y-65539285D01*
X139476190Y-65872619D02*
X139523809Y-65825000D01*
X139476190Y-65777380D01*
X139428571Y-65825000D01*
X139476190Y-65872619D01*
X139476190Y-65777380D01*
X138571428Y-64872619D02*
X138571428Y-65396428D01*
X138619047Y-65491666D01*
X138714285Y-65539285D01*
X138904761Y-65539285D01*
X139000000Y-65491666D01*
X138571428Y-64920238D02*
X138666666Y-64872619D01*
X138904761Y-64872619D01*
X139000000Y-64920238D01*
X139047619Y-65015476D01*
X139047619Y-65110714D01*
X139000000Y-65205952D01*
X138904761Y-65253571D01*
X138666666Y-65253571D01*
X138571428Y-65301190D01*
X138095238Y-64872619D02*
X138095238Y-65539285D01*
X138095238Y-65444047D02*
X138047619Y-65491666D01*
X137952380Y-65539285D01*
X137809523Y-65539285D01*
X137714285Y-65491666D01*
X137666666Y-65396428D01*
X137666666Y-64872619D01*
X137666666Y-65396428D02*
X137619047Y-65491666D01*
X137523809Y-65539285D01*
X137380952Y-65539285D01*
X137285714Y-65491666D01*
X137238095Y-65396428D01*
X137238095Y-64872619D01*
X136000000Y-64872619D02*
X136000000Y-65872619D01*
X135666666Y-65158333D01*
X135333333Y-65872619D01*
X135333333Y-64872619D01*
X134428571Y-64872619D02*
X134428571Y-65396428D01*
X134476190Y-65491666D01*
X134571428Y-65539285D01*
X134761904Y-65539285D01*
X134857142Y-65491666D01*
X134428571Y-64920238D02*
X134523809Y-64872619D01*
X134761904Y-64872619D01*
X134857142Y-64920238D01*
X134904761Y-65015476D01*
X134904761Y-65110714D01*
X134857142Y-65205952D01*
X134761904Y-65253571D01*
X134523809Y-65253571D01*
X134428571Y-65301190D01*
X134095238Y-65539285D02*
X133714285Y-65539285D01*
X133952380Y-65872619D02*
X133952380Y-65015476D01*
X133904761Y-64920238D01*
X133809523Y-64872619D01*
X133714285Y-64872619D01*
X133523809Y-65539285D02*
X133142857Y-65539285D01*
X133380952Y-65872619D02*
X133380952Y-65015476D01*
X133333333Y-64920238D01*
X133238095Y-64872619D01*
X133142857Y-64872619D01*
X132809523Y-64872619D02*
X132809523Y-65872619D01*
X132380952Y-64872619D02*
X132380952Y-65396428D01*
X132428571Y-65491666D01*
X132523809Y-65539285D01*
X132666666Y-65539285D01*
X132761904Y-65491666D01*
X132809523Y-65444047D01*
X131523809Y-64920238D02*
X131619047Y-64872619D01*
X131809523Y-64872619D01*
X131904761Y-64920238D01*
X131952380Y-65015476D01*
X131952380Y-65396428D01*
X131904761Y-65491666D01*
X131809523Y-65539285D01*
X131619047Y-65539285D01*
X131523809Y-65491666D01*
X131476190Y-65396428D01*
X131476190Y-65301190D01*
X131952380Y-65205952D01*
X131142857Y-65539285D02*
X130952380Y-64872619D01*
X130761904Y-65348809D01*
X130571428Y-64872619D01*
X130380952Y-65539285D01*
X130047619Y-64920238D02*
X129952380Y-64872619D01*
X129761904Y-64872619D01*
X129666666Y-64920238D01*
X129619047Y-65015476D01*
X129619047Y-65063095D01*
X129666666Y-65158333D01*
X129761904Y-65205952D01*
X129904761Y-65205952D01*
X130000000Y-65253571D01*
X130047619Y-65348809D01*
X130047619Y-65396428D01*
X130000000Y-65491666D01*
X129904761Y-65539285D01*
X129761904Y-65539285D01*
X129666666Y-65491666D01*
X144500000Y-63317857D02*
X144547619Y-63270238D01*
X144690476Y-63222619D01*
X144785714Y-63222619D01*
X144928571Y-63270238D01*
X145023809Y-63365476D01*
X145071428Y-63460714D01*
X145119047Y-63651190D01*
X145119047Y-63794047D01*
X145071428Y-63984523D01*
X145023809Y-64079761D01*
X144928571Y-64175000D01*
X144785714Y-64222619D01*
X144690476Y-64222619D01*
X144547619Y-64175000D01*
X144500000Y-64127380D01*
X144071428Y-63222619D02*
X144071428Y-64222619D01*
X144071428Y-63746428D02*
X143500000Y-63746428D01*
X143500000Y-63222619D02*
X143500000Y-64222619D01*
X143023809Y-63222619D02*
X143023809Y-64222619D01*
X142452380Y-63222619D02*
X142880952Y-63794047D01*
X142452380Y-64222619D02*
X143023809Y-63651190D01*
X142023809Y-63317857D02*
X141976190Y-63270238D01*
X142023809Y-63222619D01*
X142071428Y-63270238D01*
X142023809Y-63317857D01*
X142023809Y-63222619D01*
X142023809Y-63841666D02*
X141976190Y-63794047D01*
X142023809Y-63746428D01*
X142071428Y-63794047D01*
X142023809Y-63841666D01*
X142023809Y-63746428D01*
X140833333Y-63508333D02*
X140357142Y-63508333D01*
X140928571Y-63222619D02*
X140595238Y-64222619D01*
X140261904Y-63222619D01*
X139928571Y-63889285D02*
X139928571Y-63222619D01*
X139928571Y-63794047D02*
X139880952Y-63841666D01*
X139785714Y-63889285D01*
X139642857Y-63889285D01*
X139547619Y-63841666D01*
X139500000Y-63746428D01*
X139500000Y-63222619D01*
X138595238Y-63222619D02*
X138595238Y-64222619D01*
X138595238Y-63270238D02*
X138690476Y-63222619D01*
X138880952Y-63222619D01*
X138976190Y-63270238D01*
X139023809Y-63317857D01*
X139071428Y-63413095D01*
X139071428Y-63698809D01*
X139023809Y-63794047D01*
X138976190Y-63841666D01*
X138880952Y-63889285D01*
X138690476Y-63889285D01*
X138595238Y-63841666D01*
X138214285Y-63889285D02*
X137976190Y-63222619D01*
X137738095Y-63889285D02*
X137976190Y-63222619D01*
X138071428Y-62984523D01*
X138119047Y-62936904D01*
X138214285Y-62889285D01*
X136642857Y-63270238D02*
X136500000Y-63222619D01*
X136261904Y-63222619D01*
X136166666Y-63270238D01*
X136119047Y-63317857D01*
X136071428Y-63413095D01*
X136071428Y-63508333D01*
X136119047Y-63603571D01*
X136166666Y-63651190D01*
X136261904Y-63698809D01*
X136452380Y-63746428D01*
X136547619Y-63794047D01*
X136595238Y-63841666D01*
X136642857Y-63936904D01*
X136642857Y-64032142D01*
X136595238Y-64127380D01*
X136547619Y-64175000D01*
X136452380Y-64222619D01*
X136214285Y-64222619D01*
X136071428Y-64175000D01*
X135214285Y-63270238D02*
X135309523Y-63222619D01*
X135500000Y-63222619D01*
X135595238Y-63270238D01*
X135642857Y-63317857D01*
X135690476Y-63413095D01*
X135690476Y-63698809D01*
X135642857Y-63794047D01*
X135595238Y-63841666D01*
X135500000Y-63889285D01*
X135309523Y-63889285D01*
X135214285Y-63841666D01*
X134785714Y-63222619D02*
X134785714Y-64222619D01*
X134357142Y-63222619D02*
X134357142Y-63746428D01*
X134404761Y-63841666D01*
X134500000Y-63889285D01*
X134642857Y-63889285D01*
X134738095Y-63841666D01*
X134785714Y-63794047D01*
X133880952Y-63222619D02*
X133880952Y-63889285D01*
X133880952Y-63698809D02*
X133833333Y-63794047D01*
X133785714Y-63841666D01*
X133690476Y-63889285D01*
X133595238Y-63889285D01*
X132880952Y-63270238D02*
X132976190Y-63222619D01*
X133166666Y-63222619D01*
X133261904Y-63270238D01*
X133309523Y-63365476D01*
X133309523Y-63746428D01*
X133261904Y-63841666D01*
X133166666Y-63889285D01*
X132976190Y-63889285D01*
X132880952Y-63841666D01*
X132833333Y-63746428D01*
X132833333Y-63651190D01*
X133309523Y-63555952D01*
X132404761Y-63222619D02*
X132404761Y-63889285D01*
X132404761Y-64222619D02*
X132452380Y-64175000D01*
X132404761Y-64127380D01*
X132357142Y-64175000D01*
X132404761Y-64222619D01*
X132404761Y-64127380D01*
X131547619Y-63270238D02*
X131642857Y-63222619D01*
X131833333Y-63222619D01*
X131928571Y-63270238D01*
X131976190Y-63365476D01*
X131976190Y-63746428D01*
X131928571Y-63841666D01*
X131833333Y-63889285D01*
X131642857Y-63889285D01*
X131547619Y-63841666D01*
X131500000Y-63746428D01*
X131500000Y-63651190D01*
X131976190Y-63555952D01*
X131071428Y-63222619D02*
X131071428Y-63889285D01*
X131071428Y-63698809D02*
X131023809Y-63794047D01*
X130976190Y-63841666D01*
X130880952Y-63889285D01*
X130785714Y-63889285D01*
X143735833Y-57952380D02*
X143402500Y-57476190D01*
X143164404Y-57952380D02*
X143164404Y-56952380D01*
X143545357Y-56952380D01*
X143640595Y-57000000D01*
X143688214Y-57047619D01*
X143735833Y-57142857D01*
X143735833Y-57285714D01*
X143688214Y-57380952D01*
X143640595Y-57428571D01*
X143545357Y-57476190D01*
X143164404Y-57476190D01*
X144497738Y-57428571D02*
X144164404Y-57428571D01*
X144164404Y-57952380D02*
X144164404Y-56952380D01*
X144640595Y-56952380D01*
X145973928Y-56952380D02*
X146164404Y-56952380D01*
X146259642Y-57000000D01*
X146354880Y-57095238D01*
X146402500Y-57285714D01*
X146402500Y-57619047D01*
X146354880Y-57809523D01*
X146259642Y-57904761D01*
X146164404Y-57952380D01*
X145973928Y-57952380D01*
X145878690Y-57904761D01*
X145783452Y-57809523D01*
X145735833Y-57619047D01*
X145735833Y-57285714D01*
X145783452Y-57095238D01*
X145878690Y-57000000D01*
X145973928Y-56952380D01*
X146831071Y-56952380D02*
X146831071Y-57761904D01*
X146878690Y-57857142D01*
X146926309Y-57904761D01*
X147021547Y-57952380D01*
X147212023Y-57952380D01*
X147307261Y-57904761D01*
X147354880Y-57857142D01*
X147402500Y-57761904D01*
X147402500Y-56952380D01*
X147735833Y-56952380D02*
X148307261Y-56952380D01*
X148021547Y-57952380D02*
X148021547Y-56952380D01*
X128407023Y-57952380D02*
X128073690Y-57476190D01*
X127835595Y-57952380D02*
X127835595Y-56952380D01*
X128216547Y-56952380D01*
X128311785Y-57000000D01*
X128359404Y-57047619D01*
X128407023Y-57142857D01*
X128407023Y-57285714D01*
X128359404Y-57380952D01*
X128311785Y-57428571D01*
X128216547Y-57476190D01*
X127835595Y-57476190D01*
X129168928Y-57428571D02*
X128835595Y-57428571D01*
X128835595Y-57952380D02*
X128835595Y-56952380D01*
X129311785Y-56952380D01*
X130454642Y-57952380D02*
X130454642Y-56952380D01*
X130930833Y-57952380D02*
X130930833Y-56952380D01*
X131502261Y-57952380D01*
X131502261Y-56952380D01*
D10*
G04 #@! TO.C,C14*
X122738748Y-89210000D02*
X123261252Y-89210000D01*
X122738748Y-87790000D02*
X123261252Y-87790000D01*
G04 #@! TO.C,C13*
X120790000Y-109738748D02*
X120790000Y-110261252D01*
X122210000Y-109738748D02*
X122210000Y-110261252D01*
G04 #@! TO.C,U5*
X122940000Y-113000000D02*
X122940000Y-116450000D01*
X122940000Y-113000000D02*
X122940000Y-111050000D01*
X128060000Y-113000000D02*
X128060000Y-114950000D01*
X128060000Y-113000000D02*
X128060000Y-111050000D01*
G04 #@! TO.C,U4*
X130000000Y-83940000D02*
X126550000Y-83940000D01*
X130000000Y-83940000D02*
X131950000Y-83940000D01*
X130000000Y-89060000D02*
X128050000Y-89060000D01*
X130000000Y-89060000D02*
X131950000Y-89060000D01*
G04 #@! TO.C,TP1*
X154200000Y-87500000D02*
G75*
G03*
X154200000Y-87500000I-1200000J0D01*
G01*
G04 #@! TO.C,RV2*
X148630000Y-115370000D02*
X148630000Y-110630000D01*
X153370000Y-115370000D02*
X153370000Y-110630000D01*
X149760000Y-110630000D02*
X148630000Y-110630000D01*
X153370000Y-110630000D02*
X152240000Y-110630000D01*
X151259000Y-115370000D02*
X150740000Y-115370000D01*
X153370000Y-115370000D02*
X153039000Y-115370000D01*
X148960000Y-115370000D02*
X148630000Y-115370000D01*
G04 #@! TO.C,RV1*
X145130000Y-84130000D02*
X149870000Y-84130000D01*
X145130000Y-88870000D02*
X149870000Y-88870000D01*
X149870000Y-85260000D02*
X149870000Y-84130000D01*
X149870000Y-88870000D02*
X149870000Y-87740000D01*
X145130000Y-86759000D02*
X145130000Y-86240000D01*
X145130000Y-88870000D02*
X145130000Y-88539000D01*
X145130000Y-84460000D02*
X145130000Y-84130000D01*
G04 #@! TO.C,R4*
X147210000Y-113258578D02*
X147210000Y-112741422D01*
X145790000Y-113258578D02*
X145790000Y-112741422D01*
G04 #@! TO.C,R3*
X140758578Y-87290000D02*
X140241422Y-87290000D01*
X140758578Y-88710000D02*
X140241422Y-88710000D01*
G04 #@! TO.C,R2*
X131210000Y-112758578D02*
X131210000Y-112241422D01*
X129790000Y-112758578D02*
X129790000Y-112241422D01*
G04 #@! TO.C,R1*
X136696078Y-87290000D02*
X136178922Y-87290000D01*
X136696078Y-88710000D02*
X136178922Y-88710000D01*
G04 #@! TO.C,J7*
X123800000Y-118550000D02*
X122200000Y-118550000D01*
X123800000Y-67450000D02*
X122200000Y-67450000D01*
X129800000Y-118550000D02*
X128200000Y-118550000D01*
X129800000Y-67450000D02*
X128200000Y-67450000D01*
X135800000Y-118550000D02*
X134200000Y-118550000D01*
X135800000Y-67450000D02*
X134200000Y-67450000D01*
X141800000Y-118550000D02*
X140200000Y-118550000D01*
X141800000Y-67450000D02*
X140200000Y-67450000D01*
X147800000Y-118550000D02*
X146200000Y-118550000D01*
X147800000Y-67450000D02*
X146200000Y-67450000D01*
X153800000Y-118550000D02*
X152200000Y-118550000D01*
X153800000Y-67450000D02*
X152200000Y-67450000D01*
X118800000Y-113200000D02*
X118800000Y-114800000D01*
X157200000Y-113200000D02*
X157200000Y-114800000D01*
X118800000Y-107200000D02*
X118800000Y-108800000D01*
X157200000Y-107200000D02*
X157200000Y-108800000D01*
X118800000Y-101200000D02*
X118800000Y-102800000D01*
X157200000Y-101200000D02*
X157200000Y-102800000D01*
X118800000Y-95200000D02*
X118800000Y-96800000D01*
X157200000Y-95200000D02*
X157200000Y-96800000D01*
X118800000Y-89200000D02*
X118800000Y-90800000D01*
X157200000Y-89200000D02*
X157200000Y-90800000D01*
X118800000Y-83200000D02*
X118800000Y-84800000D01*
X157200000Y-83200000D02*
X157200000Y-84800000D01*
X118800000Y-77200000D02*
X118800000Y-78800000D01*
X157200000Y-77200000D02*
X157200000Y-78800000D01*
X118800000Y-71200000D02*
X118800000Y-72800000D01*
X157200000Y-71200000D02*
X157200000Y-72800000D01*
G04 #@! TO.C,U3*
X145860000Y-100410000D02*
X145630000Y-100410000D01*
X141140000Y-100410000D02*
X141370000Y-100410000D01*
X141140000Y-100410000D02*
X141140000Y-97690000D01*
X141140000Y-97690000D02*
X142450000Y-97690000D01*
X141370000Y-101550000D02*
X141370000Y-100410000D01*
X145860000Y-97690000D02*
X145860000Y-100410000D01*
X144550000Y-97690000D02*
X145860000Y-97690000D01*
G04 #@! TO.C,U2*
X134360000Y-100410000D02*
X134130000Y-100410000D01*
X129640000Y-100410000D02*
X129870000Y-100410000D01*
X129640000Y-100410000D02*
X129640000Y-97690000D01*
X129640000Y-97690000D02*
X130950000Y-97690000D01*
X129870000Y-101550000D02*
X129870000Y-100410000D01*
X134360000Y-97690000D02*
X134360000Y-100410000D01*
X133050000Y-97690000D02*
X134360000Y-97690000D01*
G04 #@! TO.C,U1*
X138360000Y-78410000D02*
X138130000Y-78410000D01*
X133640000Y-78410000D02*
X133870000Y-78410000D01*
X133640000Y-78410000D02*
X133640000Y-75690000D01*
X133640000Y-75690000D02*
X134950000Y-75690000D01*
X133870000Y-79550000D02*
X133870000Y-78410000D01*
X138360000Y-75690000D02*
X138360000Y-78410000D01*
X137050000Y-75690000D02*
X138360000Y-75690000D01*
G04 #@! TO.C,J5*
X150290000Y-101000000D02*
X149790000Y-100750000D01*
X149790000Y-100750000D02*
X149790000Y-101250000D01*
X149790000Y-101250000D02*
X150290000Y-101000000D01*
G04 #@! TO.C,J4*
X138000000Y-111790000D02*
X138250000Y-111290000D01*
X138250000Y-111290000D02*
X137750000Y-111290000D01*
X137750000Y-111290000D02*
X138000000Y-111790000D01*
G04 #@! TO.C,J3*
X150290000Y-79000000D02*
X149790000Y-78750000D01*
X149790000Y-78750000D02*
X149790000Y-79250000D01*
X149790000Y-79250000D02*
X150290000Y-79000000D01*
G04 #@! TO.C,J2*
X126210000Y-101000000D02*
X126710000Y-101250000D01*
X126710000Y-101250000D02*
X126710000Y-100750000D01*
X126710000Y-100750000D02*
X126210000Y-101000000D01*
G04 #@! TO.C,J1*
X126210000Y-79000000D02*
X126710000Y-79250000D01*
X126710000Y-79250000D02*
X126710000Y-78750000D01*
X126710000Y-78750000D02*
X126210000Y-79000000D01*
G04 #@! TO.C,C11*
X137990000Y-108624721D02*
X137990000Y-108950279D01*
X139010000Y-108624721D02*
X139010000Y-108950279D01*
G04 #@! TO.C,C10*
X141662779Y-84490000D02*
X141337221Y-84490000D01*
X141662779Y-85510000D02*
X141337221Y-85510000D01*
G04 #@! TO.C,C9*
X143990000Y-108624721D02*
X143990000Y-108950279D01*
X145010000Y-108624721D02*
X145010000Y-108950279D01*
G04 #@! TO.C,C8*
X138049721Y-85510000D02*
X138375279Y-85510000D01*
X138049721Y-84490000D02*
X138375279Y-84490000D01*
G04 #@! TO.C,C7*
X135490000Y-108624721D02*
X135490000Y-108950279D01*
X136510000Y-108624721D02*
X136510000Y-108950279D01*
G04 #@! TO.C,C4*
X144196078Y-81790000D02*
X143678922Y-81790000D01*
X144196078Y-83210000D02*
X143678922Y-83210000D01*
G04 #@! TO.C,C3*
X140790000Y-108678922D02*
X140790000Y-109196078D01*
X142210000Y-108678922D02*
X142210000Y-109196078D01*
G04 #@! TO.C,C14*
D11*
X122357142Y-87207142D02*
X122309523Y-87254761D01*
X122166666Y-87302380D01*
X122071428Y-87302380D01*
X121928571Y-87254761D01*
X121833333Y-87159523D01*
X121785714Y-87064285D01*
X121738095Y-86873809D01*
X121738095Y-86730952D01*
X121785714Y-86540476D01*
X121833333Y-86445238D01*
X121928571Y-86350000D01*
X122071428Y-86302380D01*
X122166666Y-86302380D01*
X122309523Y-86350000D01*
X122357142Y-86397619D01*
X123309523Y-87302380D02*
X122738095Y-87302380D01*
X123023809Y-87302380D02*
X123023809Y-86302380D01*
X122928571Y-86445238D01*
X122833333Y-86540476D01*
X122738095Y-86588095D01*
X124166666Y-86635714D02*
X124166666Y-87302380D01*
X123928571Y-86254761D02*
X123690476Y-86969047D01*
X124309523Y-86969047D01*
G04 #@! TO.C,C13*
X123507142Y-110642857D02*
X123554761Y-110690476D01*
X123602380Y-110833333D01*
X123602380Y-110928571D01*
X123554761Y-111071428D01*
X123459523Y-111166666D01*
X123364285Y-111214285D01*
X123173809Y-111261904D01*
X123030952Y-111261904D01*
X122840476Y-111214285D01*
X122745238Y-111166666D01*
X122650000Y-111071428D01*
X122602380Y-110928571D01*
X122602380Y-110833333D01*
X122650000Y-110690476D01*
X122697619Y-110642857D01*
X123602380Y-109690476D02*
X123602380Y-110261904D01*
X123602380Y-109976190D02*
X122602380Y-109976190D01*
X122745238Y-110071428D01*
X122840476Y-110166666D01*
X122888095Y-110261904D01*
X122602380Y-109357142D02*
X122602380Y-108738095D01*
X122983333Y-109071428D01*
X122983333Y-108928571D01*
X123030952Y-108833333D01*
X123078571Y-108785714D01*
X123173809Y-108738095D01*
X123411904Y-108738095D01*
X123507142Y-108785714D01*
X123554761Y-108833333D01*
X123602380Y-108928571D01*
X123602380Y-109214285D01*
X123554761Y-109309523D01*
X123507142Y-109357142D01*
G04 #@! TO.C,U5*
X121552380Y-113761904D02*
X122361904Y-113761904D01*
X122457142Y-113714285D01*
X122504761Y-113666666D01*
X122552380Y-113571428D01*
X122552380Y-113380952D01*
X122504761Y-113285714D01*
X122457142Y-113238095D01*
X122361904Y-113190476D01*
X121552380Y-113190476D01*
X121552380Y-112238095D02*
X121552380Y-112714285D01*
X122028571Y-112761904D01*
X121980952Y-112714285D01*
X121933333Y-112619047D01*
X121933333Y-112380952D01*
X121980952Y-112285714D01*
X122028571Y-112238095D01*
X122123809Y-112190476D01*
X122361904Y-112190476D01*
X122457142Y-112238095D01*
X122504761Y-112285714D01*
X122552380Y-112380952D01*
X122552380Y-112619047D01*
X122504761Y-112714285D01*
X122457142Y-112761904D01*
G04 #@! TO.C,U4*
X129238095Y-82552380D02*
X129238095Y-83361904D01*
X129285714Y-83457142D01*
X129333333Y-83504761D01*
X129428571Y-83552380D01*
X129619047Y-83552380D01*
X129714285Y-83504761D01*
X129761904Y-83457142D01*
X129809523Y-83361904D01*
X129809523Y-82552380D01*
X130714285Y-82885714D02*
X130714285Y-83552380D01*
X130476190Y-82504761D02*
X130238095Y-83219047D01*
X130857142Y-83219047D01*
G04 #@! TO.C,TP1*
X154450380Y-88761904D02*
X154450380Y-88190476D01*
X155450380Y-88476190D02*
X154450380Y-88476190D01*
X155450380Y-87857142D02*
X154450380Y-87857142D01*
X154450380Y-87476190D01*
X154498000Y-87380952D01*
X154545619Y-87333333D01*
X154640857Y-87285714D01*
X154783714Y-87285714D01*
X154878952Y-87333333D01*
X154926571Y-87380952D01*
X154974190Y-87476190D01*
X154974190Y-87857142D01*
X155450380Y-86333333D02*
X155450380Y-86904761D01*
X155450380Y-86619047D02*
X154450380Y-86619047D01*
X154593238Y-86714285D01*
X154688476Y-86809523D01*
X154736095Y-86904761D01*
G04 #@! TO.C,RV2*
X150404761Y-118102380D02*
X150071428Y-117626190D01*
X149833333Y-118102380D02*
X149833333Y-117102380D01*
X150214285Y-117102380D01*
X150309523Y-117150000D01*
X150357142Y-117197619D01*
X150404761Y-117292857D01*
X150404761Y-117435714D01*
X150357142Y-117530952D01*
X150309523Y-117578571D01*
X150214285Y-117626190D01*
X149833333Y-117626190D01*
X150690476Y-117102380D02*
X151023809Y-118102380D01*
X151357142Y-117102380D01*
X151642857Y-117197619D02*
X151690476Y-117150000D01*
X151785714Y-117102380D01*
X152023809Y-117102380D01*
X152119047Y-117150000D01*
X152166666Y-117197619D01*
X152214285Y-117292857D01*
X152214285Y-117388095D01*
X152166666Y-117530952D01*
X151595238Y-118102380D01*
X152214285Y-118102380D01*
G04 #@! TO.C,RV1*
X147404761Y-83452380D02*
X147071428Y-82976190D01*
X146833333Y-83452380D02*
X146833333Y-82452380D01*
X147214285Y-82452380D01*
X147309523Y-82500000D01*
X147357142Y-82547619D01*
X147404761Y-82642857D01*
X147404761Y-82785714D01*
X147357142Y-82880952D01*
X147309523Y-82928571D01*
X147214285Y-82976190D01*
X146833333Y-82976190D01*
X147690476Y-82452380D02*
X148023809Y-83452380D01*
X148357142Y-82452380D01*
X149214285Y-83452380D02*
X148642857Y-83452380D01*
X148928571Y-83452380D02*
X148928571Y-82452380D01*
X148833333Y-82595238D01*
X148738095Y-82690476D01*
X148642857Y-82738095D01*
G04 #@! TO.C,R4*
X145302380Y-113166666D02*
X144826190Y-113500000D01*
X145302380Y-113738095D02*
X144302380Y-113738095D01*
X144302380Y-113357142D01*
X144350000Y-113261904D01*
X144397619Y-113214285D01*
X144492857Y-113166666D01*
X144635714Y-113166666D01*
X144730952Y-113214285D01*
X144778571Y-113261904D01*
X144826190Y-113357142D01*
X144826190Y-113738095D01*
X144635714Y-112309523D02*
X145302380Y-112309523D01*
X144254761Y-112547619D02*
X144969047Y-112785714D01*
X144969047Y-112166666D01*
G04 #@! TO.C,R3*
X140333333Y-90102380D02*
X140000000Y-89626190D01*
X139761904Y-90102380D02*
X139761904Y-89102380D01*
X140142857Y-89102380D01*
X140238095Y-89150000D01*
X140285714Y-89197619D01*
X140333333Y-89292857D01*
X140333333Y-89435714D01*
X140285714Y-89530952D01*
X140238095Y-89578571D01*
X140142857Y-89626190D01*
X139761904Y-89626190D01*
X140666666Y-89102380D02*
X141285714Y-89102380D01*
X140952380Y-89483333D01*
X141095238Y-89483333D01*
X141190476Y-89530952D01*
X141238095Y-89578571D01*
X141285714Y-89673809D01*
X141285714Y-89911904D01*
X141238095Y-90007142D01*
X141190476Y-90054761D01*
X141095238Y-90102380D01*
X140809523Y-90102380D01*
X140714285Y-90054761D01*
X140666666Y-90007142D01*
G04 #@! TO.C,R2*
X129302380Y-112666666D02*
X128826190Y-113000000D01*
X129302380Y-113238095D02*
X128302380Y-113238095D01*
X128302380Y-112857142D01*
X128350000Y-112761904D01*
X128397619Y-112714285D01*
X128492857Y-112666666D01*
X128635714Y-112666666D01*
X128730952Y-112714285D01*
X128778571Y-112761904D01*
X128826190Y-112857142D01*
X128826190Y-113238095D01*
X128397619Y-112285714D02*
X128350000Y-112238095D01*
X128302380Y-112142857D01*
X128302380Y-111904761D01*
X128350000Y-111809523D01*
X128397619Y-111761904D01*
X128492857Y-111714285D01*
X128588095Y-111714285D01*
X128730952Y-111761904D01*
X129302380Y-112333333D01*
X129302380Y-111714285D01*
G04 #@! TO.C,R1*
X136270833Y-86952380D02*
X135937500Y-86476190D01*
X135699404Y-86952380D02*
X135699404Y-85952380D01*
X136080357Y-85952380D01*
X136175595Y-86000000D01*
X136223214Y-86047619D01*
X136270833Y-86142857D01*
X136270833Y-86285714D01*
X136223214Y-86380952D01*
X136175595Y-86428571D01*
X136080357Y-86476190D01*
X135699404Y-86476190D01*
X137223214Y-86952380D02*
X136651785Y-86952380D01*
X136937500Y-86952380D02*
X136937500Y-85952380D01*
X136842261Y-86095238D01*
X136747023Y-86190476D01*
X136651785Y-86238095D01*
G04 #@! TO.C,L3*
D12*
X151300386Y-105572661D02*
X151300386Y-106049436D01*
X150299158Y-106049436D01*
X150299158Y-105334273D02*
X150299158Y-104714465D01*
X150680578Y-105048208D01*
X150680578Y-104905176D01*
X150728256Y-104809820D01*
X150775933Y-104762143D01*
X150871288Y-104714465D01*
X151109676Y-104714465D01*
X151205031Y-104762143D01*
X151252708Y-104809820D01*
X151300386Y-104905176D01*
X151300386Y-105191241D01*
X151252708Y-105286596D01*
X151205031Y-105334273D01*
X150849968Y-103715106D02*
X150182435Y-103715106D01*
X150373159Y-103715106D02*
X150277797Y-103667425D01*
X150230116Y-103619744D01*
X150182435Y-103524383D01*
X150182435Y-103429021D01*
X150182435Y-103238297D02*
X150182435Y-102856850D01*
X150849968Y-103095255D02*
X149991712Y-103095255D01*
X149896350Y-103047574D01*
X149848669Y-102952212D01*
X149848669Y-102856850D01*
G04 #@! TO.C,L2*
X139903386Y-105302661D02*
X139903386Y-105779436D01*
X138902158Y-105779436D01*
X138997513Y-105016596D02*
X138949836Y-104968918D01*
X138902158Y-104873563D01*
X138902158Y-104635176D01*
X138949836Y-104539820D01*
X138997513Y-104492143D01*
X139092868Y-104444465D01*
X139188223Y-104444465D01*
X139331256Y-104492143D01*
X139903386Y-105064273D01*
X139903386Y-104444465D01*
X136724618Y-101042646D02*
X136057085Y-101042646D01*
X136247809Y-101042646D02*
X136152447Y-100994965D01*
X136104766Y-100947284D01*
X136057085Y-100851923D01*
X136057085Y-100756561D01*
X136057085Y-100565837D02*
X136057085Y-100184390D01*
X136724618Y-100422795D02*
X135866362Y-100422795D01*
X135771000Y-100375114D01*
X135723319Y-100279752D01*
X135723319Y-100184390D01*
G04 #@! TO.C,L1*
X143800386Y-82572661D02*
X143800386Y-83049436D01*
X142799158Y-83049436D01*
X143800386Y-81714465D02*
X143800386Y-82286596D01*
X143800386Y-82000531D02*
X142799158Y-82000531D01*
X142942191Y-82095886D01*
X143037546Y-82191241D01*
X143085223Y-82286596D01*
X140621618Y-78312646D02*
X139954085Y-78312646D01*
X140144809Y-78312646D02*
X140049447Y-78264965D01*
X140001766Y-78217284D01*
X139954085Y-78121923D01*
X139954085Y-78026561D01*
X139954085Y-77835837D02*
X139954085Y-77454390D01*
X140621618Y-77692795D02*
X139763362Y-77692795D01*
X139668000Y-77645114D01*
X139620319Y-77549752D01*
X139620319Y-77454390D01*
G04 #@! TO.C,J7*
D11*
X156252380Y-120333333D02*
X156966666Y-120333333D01*
X157109523Y-120380952D01*
X157204761Y-120476190D01*
X157252380Y-120619047D01*
X157252380Y-120714285D01*
X156252380Y-119952380D02*
X156252380Y-119285714D01*
X157252380Y-119714285D01*
G04 #@! TO.C,H4*
X156738095Y-125452380D02*
X156738095Y-124452380D01*
X156738095Y-124928571D02*
X157309523Y-124928571D01*
X157309523Y-125452380D02*
X157309523Y-124452380D01*
X158214285Y-124785714D02*
X158214285Y-125452380D01*
X157976190Y-124404761D02*
X157738095Y-125119047D01*
X158357142Y-125119047D01*
G04 #@! TO.C,H3*
X156738095Y-61452380D02*
X156738095Y-60452380D01*
X156738095Y-60928571D02*
X157309523Y-60928571D01*
X157309523Y-61452380D02*
X157309523Y-60452380D01*
X157690476Y-60452380D02*
X158309523Y-60452380D01*
X157976190Y-60833333D01*
X158119047Y-60833333D01*
X158214285Y-60880952D01*
X158261904Y-60928571D01*
X158309523Y-61023809D01*
X158309523Y-61261904D01*
X158261904Y-61357142D01*
X158214285Y-61404761D01*
X158119047Y-61452380D01*
X157833333Y-61452380D01*
X157738095Y-61404761D01*
X157690476Y-61357142D01*
G04 #@! TO.C,H2*
X117738095Y-125452380D02*
X117738095Y-124452380D01*
X117738095Y-124928571D02*
X118309523Y-124928571D01*
X118309523Y-125452380D02*
X118309523Y-124452380D01*
X118738095Y-124547619D02*
X118785714Y-124500000D01*
X118880952Y-124452380D01*
X119119047Y-124452380D01*
X119214285Y-124500000D01*
X119261904Y-124547619D01*
X119309523Y-124642857D01*
X119309523Y-124738095D01*
X119261904Y-124880952D01*
X118690476Y-125452380D01*
X119309523Y-125452380D01*
G04 #@! TO.C,H1*
X117738095Y-61452380D02*
X117738095Y-60452380D01*
X117738095Y-60928571D02*
X118309523Y-60928571D01*
X118309523Y-61452380D02*
X118309523Y-60452380D01*
X119309523Y-61452380D02*
X118738095Y-61452380D01*
X119023809Y-61452380D02*
X119023809Y-60452380D01*
X118928571Y-60595238D01*
X118833333Y-60690476D01*
X118738095Y-60738095D01*
G04 #@! TO.C,U3*
X139452380Y-99811904D02*
X140261904Y-99811904D01*
X140357142Y-99764285D01*
X140404761Y-99716666D01*
X140452380Y-99621428D01*
X140452380Y-99430952D01*
X140404761Y-99335714D01*
X140357142Y-99288095D01*
X140261904Y-99240476D01*
X139452380Y-99240476D01*
X139452380Y-98859523D02*
X139452380Y-98240476D01*
X139833333Y-98573809D01*
X139833333Y-98430952D01*
X139880952Y-98335714D01*
X139928571Y-98288095D01*
X140023809Y-98240476D01*
X140261904Y-98240476D01*
X140357142Y-98288095D01*
X140404761Y-98335714D01*
X140452380Y-98430952D01*
X140452380Y-98716666D01*
X140404761Y-98811904D01*
X140357142Y-98859523D01*
G04 #@! TO.C,U2*
X127952380Y-99811904D02*
X128761904Y-99811904D01*
X128857142Y-99764285D01*
X128904761Y-99716666D01*
X128952380Y-99621428D01*
X128952380Y-99430952D01*
X128904761Y-99335714D01*
X128857142Y-99288095D01*
X128761904Y-99240476D01*
X127952380Y-99240476D01*
X128047619Y-98811904D02*
X128000000Y-98764285D01*
X127952380Y-98669047D01*
X127952380Y-98430952D01*
X128000000Y-98335714D01*
X128047619Y-98288095D01*
X128142857Y-98240476D01*
X128238095Y-98240476D01*
X128380952Y-98288095D01*
X128952380Y-98859523D01*
X128952380Y-98240476D01*
G04 #@! TO.C,U1*
X131952380Y-77811904D02*
X132761904Y-77811904D01*
X132857142Y-77764285D01*
X132904761Y-77716666D01*
X132952380Y-77621428D01*
X132952380Y-77430952D01*
X132904761Y-77335714D01*
X132857142Y-77288095D01*
X132761904Y-77240476D01*
X131952380Y-77240476D01*
X132952380Y-76240476D02*
X132952380Y-76811904D01*
X132952380Y-76526190D02*
X131952380Y-76526190D01*
X132095238Y-76621428D01*
X132190476Y-76716666D01*
X132238095Y-76811904D01*
G04 #@! TO.C,J5*
X148992380Y-98333333D02*
X149706666Y-98333333D01*
X149849523Y-98380952D01*
X149944761Y-98476190D01*
X149992380Y-98619047D01*
X149992380Y-98714285D01*
X148992380Y-97380952D02*
X148992380Y-97857142D01*
X149468571Y-97904761D01*
X149420952Y-97857142D01*
X149373333Y-97761904D01*
X149373333Y-97523809D01*
X149420952Y-97428571D01*
X149468571Y-97380952D01*
X149563809Y-97333333D01*
X149801904Y-97333333D01*
X149897142Y-97380952D01*
X149944761Y-97428571D01*
X149992380Y-97523809D01*
X149992380Y-97761904D01*
X149944761Y-97857142D01*
X149897142Y-97904761D01*
G04 #@! TO.C,J4*
X140666666Y-110492380D02*
X140666666Y-111206666D01*
X140619047Y-111349523D01*
X140523809Y-111444761D01*
X140380952Y-111492380D01*
X140285714Y-111492380D01*
X141571428Y-110825714D02*
X141571428Y-111492380D01*
X141333333Y-110444761D02*
X141095238Y-111159047D01*
X141714285Y-111159047D01*
G04 #@! TO.C,J3*
X148992380Y-76333333D02*
X149706666Y-76333333D01*
X149849523Y-76380952D01*
X149944761Y-76476190D01*
X149992380Y-76619047D01*
X149992380Y-76714285D01*
X148992380Y-75952380D02*
X148992380Y-75333333D01*
X149373333Y-75666666D01*
X149373333Y-75523809D01*
X149420952Y-75428571D01*
X149468571Y-75380952D01*
X149563809Y-75333333D01*
X149801904Y-75333333D01*
X149897142Y-75380952D01*
X149944761Y-75428571D01*
X149992380Y-75523809D01*
X149992380Y-75809523D01*
X149944761Y-75904761D01*
X149897142Y-75952380D01*
G04 #@! TO.C,J2*
X126412380Y-104333333D02*
X127126666Y-104333333D01*
X127269523Y-104380952D01*
X127364761Y-104476190D01*
X127412380Y-104619047D01*
X127412380Y-104714285D01*
X126507619Y-103904761D02*
X126460000Y-103857142D01*
X126412380Y-103761904D01*
X126412380Y-103523809D01*
X126460000Y-103428571D01*
X126507619Y-103380952D01*
X126602857Y-103333333D01*
X126698095Y-103333333D01*
X126840952Y-103380952D01*
X127412380Y-103952380D01*
X127412380Y-103333333D01*
G04 #@! TO.C,J1*
X126412380Y-82333333D02*
X127126666Y-82333333D01*
X127269523Y-82380952D01*
X127364761Y-82476190D01*
X127412380Y-82619047D01*
X127412380Y-82714285D01*
X127412380Y-81333333D02*
X127412380Y-81904761D01*
X127412380Y-81619047D02*
X126412380Y-81619047D01*
X126555238Y-81714285D01*
X126650476Y-81809523D01*
X126698095Y-81904761D01*
G04 #@! TO.C,C12*
X148357142Y-102527142D02*
X148309523Y-102574761D01*
X148166666Y-102622380D01*
X148071428Y-102622380D01*
X147928571Y-102574761D01*
X147833333Y-102479523D01*
X147785714Y-102384285D01*
X147738095Y-102193809D01*
X147738095Y-102050952D01*
X147785714Y-101860476D01*
X147833333Y-101765238D01*
X147928571Y-101670000D01*
X148071428Y-101622380D01*
X148166666Y-101622380D01*
X148309523Y-101670000D01*
X148357142Y-101717619D01*
X149309523Y-102622380D02*
X148738095Y-102622380D01*
X149023809Y-102622380D02*
X149023809Y-101622380D01*
X148928571Y-101765238D01*
X148833333Y-101860476D01*
X148738095Y-101908095D01*
X149690476Y-101717619D02*
X149738095Y-101670000D01*
X149833333Y-101622380D01*
X150071428Y-101622380D01*
X150166666Y-101670000D01*
X150214285Y-101717619D01*
X150261904Y-101812857D01*
X150261904Y-101908095D01*
X150214285Y-102050952D01*
X149642857Y-102622380D01*
X150261904Y-102622380D01*
G04 #@! TO.C,C11*
X140287142Y-109430357D02*
X140334761Y-109477976D01*
X140382380Y-109620833D01*
X140382380Y-109716071D01*
X140334761Y-109858928D01*
X140239523Y-109954166D01*
X140144285Y-110001785D01*
X139953809Y-110049404D01*
X139810952Y-110049404D01*
X139620476Y-110001785D01*
X139525238Y-109954166D01*
X139430000Y-109858928D01*
X139382380Y-109716071D01*
X139382380Y-109620833D01*
X139430000Y-109477976D01*
X139477619Y-109430357D01*
X140382380Y-108477976D02*
X140382380Y-109049404D01*
X140382380Y-108763690D02*
X139382380Y-108763690D01*
X139525238Y-108858928D01*
X139620476Y-108954166D01*
X139668095Y-109049404D01*
X140382380Y-107525595D02*
X140382380Y-108097023D01*
X140382380Y-107811309D02*
X139382380Y-107811309D01*
X139525238Y-107906547D01*
X139620476Y-108001785D01*
X139668095Y-108097023D01*
G04 #@! TO.C,C10*
X140857142Y-86787142D02*
X140809523Y-86834761D01*
X140666666Y-86882380D01*
X140571428Y-86882380D01*
X140428571Y-86834761D01*
X140333333Y-86739523D01*
X140285714Y-86644285D01*
X140238095Y-86453809D01*
X140238095Y-86310952D01*
X140285714Y-86120476D01*
X140333333Y-86025238D01*
X140428571Y-85930000D01*
X140571428Y-85882380D01*
X140666666Y-85882380D01*
X140809523Y-85930000D01*
X140857142Y-85977619D01*
X141809523Y-86882380D02*
X141238095Y-86882380D01*
X141523809Y-86882380D02*
X141523809Y-85882380D01*
X141428571Y-86025238D01*
X141333333Y-86120476D01*
X141238095Y-86168095D01*
X142428571Y-85882380D02*
X142523809Y-85882380D01*
X142619047Y-85930000D01*
X142666666Y-85977619D01*
X142714285Y-86072857D01*
X142761904Y-86263333D01*
X142761904Y-86501428D01*
X142714285Y-86691904D01*
X142666666Y-86787142D01*
X142619047Y-86834761D01*
X142523809Y-86882380D01*
X142428571Y-86882380D01*
X142333333Y-86834761D01*
X142285714Y-86787142D01*
X142238095Y-86691904D01*
X142190476Y-86501428D01*
X142190476Y-86263333D01*
X142238095Y-86072857D01*
X142285714Y-85977619D01*
X142333333Y-85930000D01*
X142428571Y-85882380D01*
G04 #@! TO.C,C9*
X146287142Y-108954166D02*
X146334761Y-109001785D01*
X146382380Y-109144642D01*
X146382380Y-109239880D01*
X146334761Y-109382738D01*
X146239523Y-109477976D01*
X146144285Y-109525595D01*
X145953809Y-109573214D01*
X145810952Y-109573214D01*
X145620476Y-109525595D01*
X145525238Y-109477976D01*
X145430000Y-109382738D01*
X145382380Y-109239880D01*
X145382380Y-109144642D01*
X145430000Y-109001785D01*
X145477619Y-108954166D01*
X146382380Y-108477976D02*
X146382380Y-108287500D01*
X146334761Y-108192261D01*
X146287142Y-108144642D01*
X146144285Y-108049404D01*
X145953809Y-108001785D01*
X145572857Y-108001785D01*
X145477619Y-108049404D01*
X145430000Y-108097023D01*
X145382380Y-108192261D01*
X145382380Y-108382738D01*
X145430000Y-108477976D01*
X145477619Y-108525595D01*
X145572857Y-108573214D01*
X145810952Y-108573214D01*
X145906190Y-108525595D01*
X145953809Y-108477976D01*
X146001428Y-108382738D01*
X146001428Y-108192261D01*
X145953809Y-108097023D01*
X145906190Y-108049404D01*
X145810952Y-108001785D01*
G04 #@! TO.C,C8*
X138045833Y-83927142D02*
X137998214Y-83974761D01*
X137855357Y-84022380D01*
X137760119Y-84022380D01*
X137617261Y-83974761D01*
X137522023Y-83879523D01*
X137474404Y-83784285D01*
X137426785Y-83593809D01*
X137426785Y-83450952D01*
X137474404Y-83260476D01*
X137522023Y-83165238D01*
X137617261Y-83070000D01*
X137760119Y-83022380D01*
X137855357Y-83022380D01*
X137998214Y-83070000D01*
X138045833Y-83117619D01*
X138617261Y-83450952D02*
X138522023Y-83403333D01*
X138474404Y-83355714D01*
X138426785Y-83260476D01*
X138426785Y-83212857D01*
X138474404Y-83117619D01*
X138522023Y-83070000D01*
X138617261Y-83022380D01*
X138807738Y-83022380D01*
X138902976Y-83070000D01*
X138950595Y-83117619D01*
X138998214Y-83212857D01*
X138998214Y-83260476D01*
X138950595Y-83355714D01*
X138902976Y-83403333D01*
X138807738Y-83450952D01*
X138617261Y-83450952D01*
X138522023Y-83498571D01*
X138474404Y-83546190D01*
X138426785Y-83641428D01*
X138426785Y-83831904D01*
X138474404Y-83927142D01*
X138522023Y-83974761D01*
X138617261Y-84022380D01*
X138807738Y-84022380D01*
X138902976Y-83974761D01*
X138950595Y-83927142D01*
X138998214Y-83831904D01*
X138998214Y-83641428D01*
X138950595Y-83546190D01*
X138902976Y-83498571D01*
X138807738Y-83450952D01*
G04 #@! TO.C,C7*
X137787142Y-108954166D02*
X137834761Y-109001785D01*
X137882380Y-109144642D01*
X137882380Y-109239880D01*
X137834761Y-109382738D01*
X137739523Y-109477976D01*
X137644285Y-109525595D01*
X137453809Y-109573214D01*
X137310952Y-109573214D01*
X137120476Y-109525595D01*
X137025238Y-109477976D01*
X136930000Y-109382738D01*
X136882380Y-109239880D01*
X136882380Y-109144642D01*
X136930000Y-109001785D01*
X136977619Y-108954166D01*
X136882380Y-108620833D02*
X136882380Y-107954166D01*
X137882380Y-108382738D01*
G04 #@! TO.C,C6*
X138318333Y-102527142D02*
X138270714Y-102574761D01*
X138127857Y-102622380D01*
X138032619Y-102622380D01*
X137889761Y-102574761D01*
X137794523Y-102479523D01*
X137746904Y-102384285D01*
X137699285Y-102193809D01*
X137699285Y-102050952D01*
X137746904Y-101860476D01*
X137794523Y-101765238D01*
X137889761Y-101670000D01*
X138032619Y-101622380D01*
X138127857Y-101622380D01*
X138270714Y-101670000D01*
X138318333Y-101717619D01*
X139175476Y-101622380D02*
X138985000Y-101622380D01*
X138889761Y-101670000D01*
X138842142Y-101717619D01*
X138746904Y-101860476D01*
X138699285Y-102050952D01*
X138699285Y-102431904D01*
X138746904Y-102527142D01*
X138794523Y-102574761D01*
X138889761Y-102622380D01*
X139080238Y-102622380D01*
X139175476Y-102574761D01*
X139223095Y-102527142D01*
X139270714Y-102431904D01*
X139270714Y-102193809D01*
X139223095Y-102098571D01*
X139175476Y-102050952D01*
X139080238Y-102003333D01*
X138889761Y-102003333D01*
X138794523Y-102050952D01*
X138746904Y-102098571D01*
X138699285Y-102193809D01*
G04 #@! TO.C,C5*
X143833333Y-80527142D02*
X143785714Y-80574761D01*
X143642857Y-80622380D01*
X143547619Y-80622380D01*
X143404761Y-80574761D01*
X143309523Y-80479523D01*
X143261904Y-80384285D01*
X143214285Y-80193809D01*
X143214285Y-80050952D01*
X143261904Y-79860476D01*
X143309523Y-79765238D01*
X143404761Y-79670000D01*
X143547619Y-79622380D01*
X143642857Y-79622380D01*
X143785714Y-79670000D01*
X143833333Y-79717619D01*
X144738095Y-79622380D02*
X144261904Y-79622380D01*
X144214285Y-80098571D01*
X144261904Y-80050952D01*
X144357142Y-80003333D01*
X144595238Y-80003333D01*
X144690476Y-80050952D01*
X144738095Y-80098571D01*
X144785714Y-80193809D01*
X144785714Y-80431904D01*
X144738095Y-80527142D01*
X144690476Y-80574761D01*
X144595238Y-80622380D01*
X144357142Y-80622380D01*
X144261904Y-80574761D01*
X144214285Y-80527142D01*
G04 #@! TO.C,C4*
X143770833Y-84507142D02*
X143723214Y-84554761D01*
X143580357Y-84602380D01*
X143485119Y-84602380D01*
X143342261Y-84554761D01*
X143247023Y-84459523D01*
X143199404Y-84364285D01*
X143151785Y-84173809D01*
X143151785Y-84030952D01*
X143199404Y-83840476D01*
X143247023Y-83745238D01*
X143342261Y-83650000D01*
X143485119Y-83602380D01*
X143580357Y-83602380D01*
X143723214Y-83650000D01*
X143770833Y-83697619D01*
X144627976Y-83935714D02*
X144627976Y-84602380D01*
X144389880Y-83554761D02*
X144151785Y-84269047D01*
X144770833Y-84269047D01*
G04 #@! TO.C,C3*
X143507142Y-109104166D02*
X143554761Y-109151785D01*
X143602380Y-109294642D01*
X143602380Y-109389880D01*
X143554761Y-109532738D01*
X143459523Y-109627976D01*
X143364285Y-109675595D01*
X143173809Y-109723214D01*
X143030952Y-109723214D01*
X142840476Y-109675595D01*
X142745238Y-109627976D01*
X142650000Y-109532738D01*
X142602380Y-109389880D01*
X142602380Y-109294642D01*
X142650000Y-109151785D01*
X142697619Y-109104166D01*
X142602380Y-108770833D02*
X142602380Y-108151785D01*
X142983333Y-108485119D01*
X142983333Y-108342261D01*
X143030952Y-108247023D01*
X143078571Y-108199404D01*
X143173809Y-108151785D01*
X143411904Y-108151785D01*
X143507142Y-108199404D01*
X143554761Y-108247023D01*
X143602380Y-108342261D01*
X143602380Y-108627976D01*
X143554761Y-108723214D01*
X143507142Y-108770833D01*
G04 #@! TO.C,C2*
X127333333Y-102527142D02*
X127285714Y-102574761D01*
X127142857Y-102622380D01*
X127047619Y-102622380D01*
X126904761Y-102574761D01*
X126809523Y-102479523D01*
X126761904Y-102384285D01*
X126714285Y-102193809D01*
X126714285Y-102050952D01*
X126761904Y-101860476D01*
X126809523Y-101765238D01*
X126904761Y-101670000D01*
X127047619Y-101622380D01*
X127142857Y-101622380D01*
X127285714Y-101670000D01*
X127333333Y-101717619D01*
X127714285Y-101717619D02*
X127761904Y-101670000D01*
X127857142Y-101622380D01*
X128095238Y-101622380D01*
X128190476Y-101670000D01*
X128238095Y-101717619D01*
X128285714Y-101812857D01*
X128285714Y-101908095D01*
X128238095Y-102050952D01*
X127666666Y-102622380D01*
X128285714Y-102622380D01*
G04 #@! TO.C,C1*
X130333333Y-80527142D02*
X130285714Y-80574761D01*
X130142857Y-80622380D01*
X130047619Y-80622380D01*
X129904761Y-80574761D01*
X129809523Y-80479523D01*
X129761904Y-80384285D01*
X129714285Y-80193809D01*
X129714285Y-80050952D01*
X129761904Y-79860476D01*
X129809523Y-79765238D01*
X129904761Y-79670000D01*
X130047619Y-79622380D01*
X130142857Y-79622380D01*
X130285714Y-79670000D01*
X130333333Y-79717619D01*
X131285714Y-80622380D02*
X130714285Y-80622380D01*
X131000000Y-80622380D02*
X131000000Y-79622380D01*
X130904761Y-79765238D01*
X130809523Y-79860476D01*
X130714285Y-79908095D01*
G04 #@! TD*
M02*
