G04 #@! TF.GenerationSoftware,KiCad,Pcbnew,5.1.6-c6e7f7d~87~ubuntu18.04.1*
G04 #@! TF.CreationDate,2021-01-12T05:29:31+00:00*
G04 #@! TF.ProjectId,amp,616d702e-6b69-4636-9164-5f7063625858,rev?*
G04 #@! TF.SameCoordinates,Original*
G04 #@! TF.FileFunction,Soldermask,Top*
G04 #@! TF.FilePolarity,Negative*
%FSLAX46Y46*%
G04 Gerber Fmt 4.6, Leading zero omitted, Abs format (unit mm)*
G04 Created by KiCad (PCBNEW 5.1.6-c6e7f7d~87~ubuntu18.04.1) date 2021-01-12 05:29:31*
%MOMM*%
%LPD*%
G01*
G04 APERTURE LIST*
%ADD10C,0.750000*%
%ADD11C,2.100000*%
%ADD12R,1.400000X1.400000*%
%ADD13R,2.100000X1.400000*%
%ADD14R,1.400000X2.100000*%
%ADD15R,1.370000X0.862000*%
%ADD16R,2.450000X1.100000*%
%ADD17R,3.900000X1.100000*%
%ADD18R,1.100000X2.800000*%
%ADD19R,1.100000X3.900000*%
%ADD20R,1.100000X1.100000*%
%ADD21C,4.400000*%
%ADD22C,0.100000*%
%ADD23R,1.000000X1.400000*%
%ADD24R,5.180000X1.600000*%
%ADD25R,1.600000X5.180000*%
G04 APERTURE END LIST*
D10*
X149485000Y-101000000D02*
X153500000Y-101000000D01*
X145000000Y-101000000D02*
X148515000Y-101000000D01*
X138970000Y-101000000D02*
X142000000Y-101000000D01*
X133500000Y-101000000D02*
X138000000Y-101000000D01*
X127985000Y-101000000D02*
X130500000Y-101000000D01*
X123000000Y-101000000D02*
X127015000Y-101000000D01*
X144485000Y-79000000D02*
X153500000Y-79000000D01*
X137500000Y-79000000D02*
X143515000Y-79000000D01*
X130985000Y-79000000D02*
X134500000Y-79000000D01*
X123000000Y-79000000D02*
X130015000Y-79000000D01*
G04 #@! TO.C,C14*
G36*
G01*
X123400000Y-88978262D02*
X123400000Y-88021738D01*
G75*
G02*
X123671738Y-87750000I271738J0D01*
G01*
X124378262Y-87750000D01*
G75*
G02*
X124650000Y-88021738I0J-271738D01*
G01*
X124650000Y-88978262D01*
G75*
G02*
X124378262Y-89250000I-271738J0D01*
G01*
X123671738Y-89250000D01*
G75*
G02*
X123400000Y-88978262I0J271738D01*
G01*
G37*
G36*
G01*
X121350000Y-88978262D02*
X121350000Y-88021738D01*
G75*
G02*
X121621738Y-87750000I271738J0D01*
G01*
X122328262Y-87750000D01*
G75*
G02*
X122600000Y-88021738I0J-271738D01*
G01*
X122600000Y-88978262D01*
G75*
G02*
X122328262Y-89250000I-271738J0D01*
G01*
X121621738Y-89250000D01*
G75*
G02*
X121350000Y-88978262I0J271738D01*
G01*
G37*
G04 #@! TD*
G04 #@! TO.C,C13*
G36*
G01*
X121021738Y-110400000D02*
X121978262Y-110400000D01*
G75*
G02*
X122250000Y-110671738I0J-271738D01*
G01*
X122250000Y-111378262D01*
G75*
G02*
X121978262Y-111650000I-271738J0D01*
G01*
X121021738Y-111650000D01*
G75*
G02*
X120750000Y-111378262I0J271738D01*
G01*
X120750000Y-110671738D01*
G75*
G02*
X121021738Y-110400000I271738J0D01*
G01*
G37*
G36*
G01*
X121021738Y-108350000D02*
X121978262Y-108350000D01*
G75*
G02*
X122250000Y-108621738I0J-271738D01*
G01*
X122250000Y-109328262D01*
G75*
G02*
X121978262Y-109600000I-271738J0D01*
G01*
X121021738Y-109600000D01*
G75*
G02*
X120750000Y-109328262I0J271738D01*
G01*
X120750000Y-108621738D01*
G75*
G02*
X121021738Y-108350000I271738J0D01*
G01*
G37*
G04 #@! TD*
G04 #@! TO.C,U5*
G36*
G01*
X123770000Y-111550000D02*
X123420000Y-111550000D01*
G75*
G02*
X123245000Y-111375000I0J175000D01*
G01*
X123245000Y-109675000D01*
G75*
G02*
X123420000Y-109500000I175000J0D01*
G01*
X123770000Y-109500000D01*
G75*
G02*
X123945000Y-109675000I0J-175000D01*
G01*
X123945000Y-111375000D01*
G75*
G02*
X123770000Y-111550000I-175000J0D01*
G01*
G37*
G36*
G01*
X125040000Y-111550000D02*
X124690000Y-111550000D01*
G75*
G02*
X124515000Y-111375000I0J175000D01*
G01*
X124515000Y-109675000D01*
G75*
G02*
X124690000Y-109500000I175000J0D01*
G01*
X125040000Y-109500000D01*
G75*
G02*
X125215000Y-109675000I0J-175000D01*
G01*
X125215000Y-111375000D01*
G75*
G02*
X125040000Y-111550000I-175000J0D01*
G01*
G37*
G36*
G01*
X126310000Y-111550000D02*
X125960000Y-111550000D01*
G75*
G02*
X125785000Y-111375000I0J175000D01*
G01*
X125785000Y-109675000D01*
G75*
G02*
X125960000Y-109500000I175000J0D01*
G01*
X126310000Y-109500000D01*
G75*
G02*
X126485000Y-109675000I0J-175000D01*
G01*
X126485000Y-111375000D01*
G75*
G02*
X126310000Y-111550000I-175000J0D01*
G01*
G37*
G36*
G01*
X127580000Y-111550000D02*
X127230000Y-111550000D01*
G75*
G02*
X127055000Y-111375000I0J175000D01*
G01*
X127055000Y-109675000D01*
G75*
G02*
X127230000Y-109500000I175000J0D01*
G01*
X127580000Y-109500000D01*
G75*
G02*
X127755000Y-109675000I0J-175000D01*
G01*
X127755000Y-111375000D01*
G75*
G02*
X127580000Y-111550000I-175000J0D01*
G01*
G37*
G36*
G01*
X127580000Y-116500000D02*
X127230000Y-116500000D01*
G75*
G02*
X127055000Y-116325000I0J175000D01*
G01*
X127055000Y-114625000D01*
G75*
G02*
X127230000Y-114450000I175000J0D01*
G01*
X127580000Y-114450000D01*
G75*
G02*
X127755000Y-114625000I0J-175000D01*
G01*
X127755000Y-116325000D01*
G75*
G02*
X127580000Y-116500000I-175000J0D01*
G01*
G37*
G36*
G01*
X126310000Y-116500000D02*
X125960000Y-116500000D01*
G75*
G02*
X125785000Y-116325000I0J175000D01*
G01*
X125785000Y-114625000D01*
G75*
G02*
X125960000Y-114450000I175000J0D01*
G01*
X126310000Y-114450000D01*
G75*
G02*
X126485000Y-114625000I0J-175000D01*
G01*
X126485000Y-116325000D01*
G75*
G02*
X126310000Y-116500000I-175000J0D01*
G01*
G37*
G36*
G01*
X125040000Y-116500000D02*
X124690000Y-116500000D01*
G75*
G02*
X124515000Y-116325000I0J175000D01*
G01*
X124515000Y-114625000D01*
G75*
G02*
X124690000Y-114450000I175000J0D01*
G01*
X125040000Y-114450000D01*
G75*
G02*
X125215000Y-114625000I0J-175000D01*
G01*
X125215000Y-116325000D01*
G75*
G02*
X125040000Y-116500000I-175000J0D01*
G01*
G37*
G36*
G01*
X123770000Y-116500000D02*
X123420000Y-116500000D01*
G75*
G02*
X123245000Y-116325000I0J175000D01*
G01*
X123245000Y-114625000D01*
G75*
G02*
X123420000Y-114450000I175000J0D01*
G01*
X123770000Y-114450000D01*
G75*
G02*
X123945000Y-114625000I0J-175000D01*
G01*
X123945000Y-116325000D01*
G75*
G02*
X123770000Y-116500000I-175000J0D01*
G01*
G37*
G04 #@! TD*
G04 #@! TO.C,U4*
G36*
G01*
X131450000Y-84770000D02*
X131450000Y-84420000D01*
G75*
G02*
X131625000Y-84245000I175000J0D01*
G01*
X133325000Y-84245000D01*
G75*
G02*
X133500000Y-84420000I0J-175000D01*
G01*
X133500000Y-84770000D01*
G75*
G02*
X133325000Y-84945000I-175000J0D01*
G01*
X131625000Y-84945000D01*
G75*
G02*
X131450000Y-84770000I0J175000D01*
G01*
G37*
G36*
G01*
X131450000Y-86040000D02*
X131450000Y-85690000D01*
G75*
G02*
X131625000Y-85515000I175000J0D01*
G01*
X133325000Y-85515000D01*
G75*
G02*
X133500000Y-85690000I0J-175000D01*
G01*
X133500000Y-86040000D01*
G75*
G02*
X133325000Y-86215000I-175000J0D01*
G01*
X131625000Y-86215000D01*
G75*
G02*
X131450000Y-86040000I0J175000D01*
G01*
G37*
G36*
G01*
X131450000Y-87310000D02*
X131450000Y-86960000D01*
G75*
G02*
X131625000Y-86785000I175000J0D01*
G01*
X133325000Y-86785000D01*
G75*
G02*
X133500000Y-86960000I0J-175000D01*
G01*
X133500000Y-87310000D01*
G75*
G02*
X133325000Y-87485000I-175000J0D01*
G01*
X131625000Y-87485000D01*
G75*
G02*
X131450000Y-87310000I0J175000D01*
G01*
G37*
G36*
G01*
X131450000Y-88580000D02*
X131450000Y-88230000D01*
G75*
G02*
X131625000Y-88055000I175000J0D01*
G01*
X133325000Y-88055000D01*
G75*
G02*
X133500000Y-88230000I0J-175000D01*
G01*
X133500000Y-88580000D01*
G75*
G02*
X133325000Y-88755000I-175000J0D01*
G01*
X131625000Y-88755000D01*
G75*
G02*
X131450000Y-88580000I0J175000D01*
G01*
G37*
G36*
G01*
X126500000Y-88580000D02*
X126500000Y-88230000D01*
G75*
G02*
X126675000Y-88055000I175000J0D01*
G01*
X128375000Y-88055000D01*
G75*
G02*
X128550000Y-88230000I0J-175000D01*
G01*
X128550000Y-88580000D01*
G75*
G02*
X128375000Y-88755000I-175000J0D01*
G01*
X126675000Y-88755000D01*
G75*
G02*
X126500000Y-88580000I0J175000D01*
G01*
G37*
G36*
G01*
X126500000Y-87310000D02*
X126500000Y-86960000D01*
G75*
G02*
X126675000Y-86785000I175000J0D01*
G01*
X128375000Y-86785000D01*
G75*
G02*
X128550000Y-86960000I0J-175000D01*
G01*
X128550000Y-87310000D01*
G75*
G02*
X128375000Y-87485000I-175000J0D01*
G01*
X126675000Y-87485000D01*
G75*
G02*
X126500000Y-87310000I0J175000D01*
G01*
G37*
G36*
G01*
X126500000Y-86040000D02*
X126500000Y-85690000D01*
G75*
G02*
X126675000Y-85515000I175000J0D01*
G01*
X128375000Y-85515000D01*
G75*
G02*
X128550000Y-85690000I0J-175000D01*
G01*
X128550000Y-86040000D01*
G75*
G02*
X128375000Y-86215000I-175000J0D01*
G01*
X126675000Y-86215000D01*
G75*
G02*
X126500000Y-86040000I0J175000D01*
G01*
G37*
G36*
G01*
X126500000Y-84770000D02*
X126500000Y-84420000D01*
G75*
G02*
X126675000Y-84245000I175000J0D01*
G01*
X128375000Y-84245000D01*
G75*
G02*
X128550000Y-84420000I0J-175000D01*
G01*
X128550000Y-84770000D01*
G75*
G02*
X128375000Y-84945000I-175000J0D01*
G01*
X126675000Y-84945000D01*
G75*
G02*
X126500000Y-84770000I0J175000D01*
G01*
G37*
G04 #@! TD*
D11*
G04 #@! TO.C,TP1*
X153000000Y-87500000D03*
G04 #@! TD*
D12*
G04 #@! TO.C,RV2*
X152150000Y-115750000D03*
D13*
X151000000Y-110250000D03*
D12*
X149850000Y-115750000D03*
G04 #@! TD*
G04 #@! TO.C,RV1*
X144750000Y-87650000D03*
D14*
X150250000Y-86500000D03*
D12*
X144750000Y-85350000D03*
G04 #@! TD*
G04 #@! TO.C,R4*
G36*
G01*
X146981250Y-112600000D02*
X146018750Y-112600000D01*
G75*
G02*
X145750000Y-112331250I0J268750D01*
G01*
X145750000Y-111793750D01*
G75*
G02*
X146018750Y-111525000I268750J0D01*
G01*
X146981250Y-111525000D01*
G75*
G02*
X147250000Y-111793750I0J-268750D01*
G01*
X147250000Y-112331250D01*
G75*
G02*
X146981250Y-112600000I-268750J0D01*
G01*
G37*
G36*
G01*
X146981250Y-114475000D02*
X146018750Y-114475000D01*
G75*
G02*
X145750000Y-114206250I0J268750D01*
G01*
X145750000Y-113668750D01*
G75*
G02*
X146018750Y-113400000I268750J0D01*
G01*
X146981250Y-113400000D01*
G75*
G02*
X147250000Y-113668750I0J-268750D01*
G01*
X147250000Y-114206250D01*
G75*
G02*
X146981250Y-114475000I-268750J0D01*
G01*
G37*
G04 #@! TD*
G04 #@! TO.C,R3*
G36*
G01*
X140100000Y-87518750D02*
X140100000Y-88481250D01*
G75*
G02*
X139831250Y-88750000I-268750J0D01*
G01*
X139293750Y-88750000D01*
G75*
G02*
X139025000Y-88481250I0J268750D01*
G01*
X139025000Y-87518750D01*
G75*
G02*
X139293750Y-87250000I268750J0D01*
G01*
X139831250Y-87250000D01*
G75*
G02*
X140100000Y-87518750I0J-268750D01*
G01*
G37*
G36*
G01*
X141975000Y-87518750D02*
X141975000Y-88481250D01*
G75*
G02*
X141706250Y-88750000I-268750J0D01*
G01*
X141168750Y-88750000D01*
G75*
G02*
X140900000Y-88481250I0J268750D01*
G01*
X140900000Y-87518750D01*
G75*
G02*
X141168750Y-87250000I268750J0D01*
G01*
X141706250Y-87250000D01*
G75*
G02*
X141975000Y-87518750I0J-268750D01*
G01*
G37*
G04 #@! TD*
G04 #@! TO.C,R2*
G36*
G01*
X130981250Y-112100000D02*
X130018750Y-112100000D01*
G75*
G02*
X129750000Y-111831250I0J268750D01*
G01*
X129750000Y-111293750D01*
G75*
G02*
X130018750Y-111025000I268750J0D01*
G01*
X130981250Y-111025000D01*
G75*
G02*
X131250000Y-111293750I0J-268750D01*
G01*
X131250000Y-111831250D01*
G75*
G02*
X130981250Y-112100000I-268750J0D01*
G01*
G37*
G36*
G01*
X130981250Y-113975000D02*
X130018750Y-113975000D01*
G75*
G02*
X129750000Y-113706250I0J268750D01*
G01*
X129750000Y-113168750D01*
G75*
G02*
X130018750Y-112900000I268750J0D01*
G01*
X130981250Y-112900000D01*
G75*
G02*
X131250000Y-113168750I0J-268750D01*
G01*
X131250000Y-113706250D01*
G75*
G02*
X130981250Y-113975000I-268750J0D01*
G01*
G37*
G04 #@! TD*
G04 #@! TO.C,R1*
G36*
G01*
X136037500Y-87518750D02*
X136037500Y-88481250D01*
G75*
G02*
X135768750Y-88750000I-268750J0D01*
G01*
X135231250Y-88750000D01*
G75*
G02*
X134962500Y-88481250I0J268750D01*
G01*
X134962500Y-87518750D01*
G75*
G02*
X135231250Y-87250000I268750J0D01*
G01*
X135768750Y-87250000D01*
G75*
G02*
X136037500Y-87518750I0J-268750D01*
G01*
G37*
G36*
G01*
X137912500Y-87518750D02*
X137912500Y-88481250D01*
G75*
G02*
X137643750Y-88750000I-268750J0D01*
G01*
X137106250Y-88750000D01*
G75*
G02*
X136837500Y-88481250I0J268750D01*
G01*
X136837500Y-87518750D01*
G75*
G02*
X137106250Y-87250000I268750J0D01*
G01*
X137643750Y-87250000D01*
G75*
G02*
X137912500Y-87518750I0J-268750D01*
G01*
G37*
G04 #@! TD*
D15*
G04 #@! TO.C,L3*
X147794000Y-103500000D03*
X147794000Y-106040000D03*
X145000000Y-106040000D03*
X145000000Y-103500000D03*
G04 #@! TD*
G04 #@! TO.C,L2*
X136397000Y-103230000D03*
X136397000Y-105770000D03*
X133603000Y-105770000D03*
X133603000Y-103230000D03*
G04 #@! TD*
G04 #@! TO.C,L1*
X140294000Y-80500000D03*
X140294000Y-83040000D03*
X137500000Y-83040000D03*
X137500000Y-80500000D03*
G04 #@! TD*
D16*
G04 #@! TO.C,J7*
X120725000Y-118300000D03*
X120725000Y-67700000D03*
D17*
X126000000Y-118300000D03*
X126000000Y-67700000D03*
X132000000Y-67700000D03*
X138000000Y-67700000D03*
X144000000Y-67700000D03*
X150000000Y-118300000D03*
X150000000Y-67700000D03*
D16*
X155275000Y-118300000D03*
X155275000Y-67700000D03*
D18*
X119050000Y-116450000D03*
X156950000Y-116450000D03*
D19*
X119050000Y-111000000D03*
X156950000Y-111000000D03*
X119050000Y-93000000D03*
X156950000Y-93000000D03*
X119050000Y-87000000D03*
X156950000Y-87000000D03*
D18*
X119050000Y-69550000D03*
X156950000Y-69550000D03*
D20*
X119050000Y-67700000D03*
X119050000Y-118300000D03*
X156950000Y-118300000D03*
X156950000Y-67700000D03*
G04 #@! TD*
D21*
G04 #@! TO.C,H4*
X161000000Y-125000000D03*
G04 #@! TD*
G04 #@! TO.C,H3*
X161000000Y-61000000D03*
G04 #@! TD*
G04 #@! TO.C,H2*
X115000000Y-125000000D03*
G04 #@! TD*
G04 #@! TO.C,H1*
X115000000Y-61000000D03*
G04 #@! TD*
D22*
G04 #@! TO.C,U3*
G36*
X142584461Y-97040245D02*
G01*
X142587306Y-97030866D01*
X142591927Y-97022221D01*
X142598145Y-97014645D01*
X142605721Y-97008427D01*
X142614366Y-97003806D01*
X142623745Y-97000961D01*
X142633500Y-97000000D01*
X144366500Y-97000000D01*
X144376255Y-97000961D01*
X144385634Y-97003806D01*
X144394279Y-97008427D01*
X144401855Y-97014645D01*
X144408073Y-97022221D01*
X144412694Y-97030866D01*
X144415539Y-97040245D01*
X144416500Y-97050000D01*
X144416500Y-100175000D01*
X144415539Y-100184755D01*
X144412694Y-100194134D01*
X144408073Y-100202779D01*
X144401855Y-100210355D01*
X144394279Y-100216573D01*
X144385634Y-100221194D01*
X144376255Y-100224039D01*
X144366500Y-100225000D01*
X144000000Y-100225000D01*
X144000000Y-101650000D01*
X143999039Y-101659755D01*
X143996194Y-101669134D01*
X143991573Y-101677779D01*
X143985355Y-101685355D01*
X143977779Y-101691573D01*
X143969134Y-101696194D01*
X143959755Y-101699039D01*
X143950000Y-101700000D01*
X143050000Y-101700000D01*
X143040245Y-101699039D01*
X143030866Y-101696194D01*
X143022221Y-101691573D01*
X143014645Y-101685355D01*
X143008427Y-101677779D01*
X143003806Y-101669134D01*
X143000961Y-101659755D01*
X143000000Y-101650000D01*
X143000000Y-100225000D01*
X142633500Y-100225000D01*
X142623745Y-100224039D01*
X142614366Y-100221194D01*
X142605721Y-100216573D01*
X142598145Y-100210355D01*
X142591927Y-100202779D01*
X142587306Y-100194134D01*
X142584461Y-100184755D01*
X142583500Y-100175000D01*
X142583500Y-97050000D01*
X142584461Y-97040245D01*
G37*
D23*
X145000000Y-101000000D03*
X142000000Y-101000000D03*
G04 #@! TD*
D22*
G04 #@! TO.C,U2*
G36*
X131084461Y-97040245D02*
G01*
X131087306Y-97030866D01*
X131091927Y-97022221D01*
X131098145Y-97014645D01*
X131105721Y-97008427D01*
X131114366Y-97003806D01*
X131123745Y-97000961D01*
X131133500Y-97000000D01*
X132866500Y-97000000D01*
X132876255Y-97000961D01*
X132885634Y-97003806D01*
X132894279Y-97008427D01*
X132901855Y-97014645D01*
X132908073Y-97022221D01*
X132912694Y-97030866D01*
X132915539Y-97040245D01*
X132916500Y-97050000D01*
X132916500Y-100175000D01*
X132915539Y-100184755D01*
X132912694Y-100194134D01*
X132908073Y-100202779D01*
X132901855Y-100210355D01*
X132894279Y-100216573D01*
X132885634Y-100221194D01*
X132876255Y-100224039D01*
X132866500Y-100225000D01*
X132500000Y-100225000D01*
X132500000Y-101650000D01*
X132499039Y-101659755D01*
X132496194Y-101669134D01*
X132491573Y-101677779D01*
X132485355Y-101685355D01*
X132477779Y-101691573D01*
X132469134Y-101696194D01*
X132459755Y-101699039D01*
X132450000Y-101700000D01*
X131550000Y-101700000D01*
X131540245Y-101699039D01*
X131530866Y-101696194D01*
X131522221Y-101691573D01*
X131514645Y-101685355D01*
X131508427Y-101677779D01*
X131503806Y-101669134D01*
X131500961Y-101659755D01*
X131500000Y-101650000D01*
X131500000Y-100225000D01*
X131133500Y-100225000D01*
X131123745Y-100224039D01*
X131114366Y-100221194D01*
X131105721Y-100216573D01*
X131098145Y-100210355D01*
X131091927Y-100202779D01*
X131087306Y-100194134D01*
X131084461Y-100184755D01*
X131083500Y-100175000D01*
X131083500Y-97050000D01*
X131084461Y-97040245D01*
G37*
D23*
X133500000Y-101000000D03*
X130500000Y-101000000D03*
G04 #@! TD*
D22*
G04 #@! TO.C,U1*
G36*
X135084461Y-75040245D02*
G01*
X135087306Y-75030866D01*
X135091927Y-75022221D01*
X135098145Y-75014645D01*
X135105721Y-75008427D01*
X135114366Y-75003806D01*
X135123745Y-75000961D01*
X135133500Y-75000000D01*
X136866500Y-75000000D01*
X136876255Y-75000961D01*
X136885634Y-75003806D01*
X136894279Y-75008427D01*
X136901855Y-75014645D01*
X136908073Y-75022221D01*
X136912694Y-75030866D01*
X136915539Y-75040245D01*
X136916500Y-75050000D01*
X136916500Y-78175000D01*
X136915539Y-78184755D01*
X136912694Y-78194134D01*
X136908073Y-78202779D01*
X136901855Y-78210355D01*
X136894279Y-78216573D01*
X136885634Y-78221194D01*
X136876255Y-78224039D01*
X136866500Y-78225000D01*
X136500000Y-78225000D01*
X136500000Y-79650000D01*
X136499039Y-79659755D01*
X136496194Y-79669134D01*
X136491573Y-79677779D01*
X136485355Y-79685355D01*
X136477779Y-79691573D01*
X136469134Y-79696194D01*
X136459755Y-79699039D01*
X136450000Y-79700000D01*
X135550000Y-79700000D01*
X135540245Y-79699039D01*
X135530866Y-79696194D01*
X135522221Y-79691573D01*
X135514645Y-79685355D01*
X135508427Y-79677779D01*
X135503806Y-79669134D01*
X135500961Y-79659755D01*
X135500000Y-79650000D01*
X135500000Y-78225000D01*
X135133500Y-78225000D01*
X135123745Y-78224039D01*
X135114366Y-78221194D01*
X135105721Y-78216573D01*
X135098145Y-78210355D01*
X135091927Y-78202779D01*
X135087306Y-78194134D01*
X135084461Y-78184755D01*
X135083500Y-78175000D01*
X135083500Y-75050000D01*
X135084461Y-75040245D01*
G37*
D23*
X137500000Y-79000000D03*
X134500000Y-79000000D03*
G04 #@! TD*
D24*
G04 #@! TO.C,J5*
X153500000Y-101000000D03*
X153500000Y-96750000D03*
X153500000Y-105250000D03*
G04 #@! TD*
D25*
G04 #@! TO.C,J4*
X138000000Y-115000000D03*
X142250000Y-115000000D03*
X133750000Y-115000000D03*
G04 #@! TD*
D24*
G04 #@! TO.C,J3*
X153500000Y-79000000D03*
X153500000Y-74750000D03*
X153500000Y-83250000D03*
G04 #@! TD*
G04 #@! TO.C,J2*
X123000000Y-101000000D03*
X123000000Y-105250000D03*
X123000000Y-96750000D03*
G04 #@! TD*
G04 #@! TO.C,J1*
X123000000Y-79000000D03*
X123000000Y-83250000D03*
X123000000Y-74750000D03*
G04 #@! TD*
G04 #@! TO.C,C12*
G36*
G01*
X148860000Y-100802500D02*
X148860000Y-101197500D01*
G75*
G02*
X148687500Y-101370000I-172500J0D01*
G01*
X148342500Y-101370000D01*
G75*
G02*
X148170000Y-101197500I0J172500D01*
G01*
X148170000Y-100802500D01*
G75*
G02*
X148342500Y-100630000I172500J0D01*
G01*
X148687500Y-100630000D01*
G75*
G02*
X148860000Y-100802500I0J-172500D01*
G01*
G37*
G36*
G01*
X149830000Y-100802500D02*
X149830000Y-101197500D01*
G75*
G02*
X149657500Y-101370000I-172500J0D01*
G01*
X149312500Y-101370000D01*
G75*
G02*
X149140000Y-101197500I0J172500D01*
G01*
X149140000Y-100802500D01*
G75*
G02*
X149312500Y-100630000I172500J0D01*
G01*
X149657500Y-100630000D01*
G75*
G02*
X149830000Y-100802500I0J-172500D01*
G01*
G37*
G04 #@! TD*
G04 #@! TO.C,C11*
G36*
G01*
X138218750Y-109087500D02*
X138781250Y-109087500D01*
G75*
G02*
X139025000Y-109331250I0J-243750D01*
G01*
X139025000Y-109818750D01*
G75*
G02*
X138781250Y-110062500I-243750J0D01*
G01*
X138218750Y-110062500D01*
G75*
G02*
X137975000Y-109818750I0J243750D01*
G01*
X137975000Y-109331250D01*
G75*
G02*
X138218750Y-109087500I243750J0D01*
G01*
G37*
G36*
G01*
X138218750Y-107512500D02*
X138781250Y-107512500D01*
G75*
G02*
X139025000Y-107756250I0J-243750D01*
G01*
X139025000Y-108243750D01*
G75*
G02*
X138781250Y-108487500I-243750J0D01*
G01*
X138218750Y-108487500D01*
G75*
G02*
X137975000Y-108243750I0J243750D01*
G01*
X137975000Y-107756250D01*
G75*
G02*
X138218750Y-107512500I243750J0D01*
G01*
G37*
G04 #@! TD*
G04 #@! TO.C,C10*
G36*
G01*
X141200000Y-84718750D02*
X141200000Y-85281250D01*
G75*
G02*
X140956250Y-85525000I-243750J0D01*
G01*
X140468750Y-85525000D01*
G75*
G02*
X140225000Y-85281250I0J243750D01*
G01*
X140225000Y-84718750D01*
G75*
G02*
X140468750Y-84475000I243750J0D01*
G01*
X140956250Y-84475000D01*
G75*
G02*
X141200000Y-84718750I0J-243750D01*
G01*
G37*
G36*
G01*
X142775000Y-84718750D02*
X142775000Y-85281250D01*
G75*
G02*
X142531250Y-85525000I-243750J0D01*
G01*
X142043750Y-85525000D01*
G75*
G02*
X141800000Y-85281250I0J243750D01*
G01*
X141800000Y-84718750D01*
G75*
G02*
X142043750Y-84475000I243750J0D01*
G01*
X142531250Y-84475000D01*
G75*
G02*
X142775000Y-84718750I0J-243750D01*
G01*
G37*
G04 #@! TD*
G04 #@! TO.C,C9*
G36*
G01*
X144218750Y-109087500D02*
X144781250Y-109087500D01*
G75*
G02*
X145025000Y-109331250I0J-243750D01*
G01*
X145025000Y-109818750D01*
G75*
G02*
X144781250Y-110062500I-243750J0D01*
G01*
X144218750Y-110062500D01*
G75*
G02*
X143975000Y-109818750I0J243750D01*
G01*
X143975000Y-109331250D01*
G75*
G02*
X144218750Y-109087500I243750J0D01*
G01*
G37*
G36*
G01*
X144218750Y-107512500D02*
X144781250Y-107512500D01*
G75*
G02*
X145025000Y-107756250I0J-243750D01*
G01*
X145025000Y-108243750D01*
G75*
G02*
X144781250Y-108487500I-243750J0D01*
G01*
X144218750Y-108487500D01*
G75*
G02*
X143975000Y-108243750I0J243750D01*
G01*
X143975000Y-107756250D01*
G75*
G02*
X144218750Y-107512500I243750J0D01*
G01*
G37*
G04 #@! TD*
G04 #@! TO.C,C8*
G36*
G01*
X138512500Y-85281250D02*
X138512500Y-84718750D01*
G75*
G02*
X138756250Y-84475000I243750J0D01*
G01*
X139243750Y-84475000D01*
G75*
G02*
X139487500Y-84718750I0J-243750D01*
G01*
X139487500Y-85281250D01*
G75*
G02*
X139243750Y-85525000I-243750J0D01*
G01*
X138756250Y-85525000D01*
G75*
G02*
X138512500Y-85281250I0J243750D01*
G01*
G37*
G36*
G01*
X136937500Y-85281250D02*
X136937500Y-84718750D01*
G75*
G02*
X137181250Y-84475000I243750J0D01*
G01*
X137668750Y-84475000D01*
G75*
G02*
X137912500Y-84718750I0J-243750D01*
G01*
X137912500Y-85281250D01*
G75*
G02*
X137668750Y-85525000I-243750J0D01*
G01*
X137181250Y-85525000D01*
G75*
G02*
X136937500Y-85281250I0J243750D01*
G01*
G37*
G04 #@! TD*
G04 #@! TO.C,C7*
G36*
G01*
X135718750Y-109087500D02*
X136281250Y-109087500D01*
G75*
G02*
X136525000Y-109331250I0J-243750D01*
G01*
X136525000Y-109818750D01*
G75*
G02*
X136281250Y-110062500I-243750J0D01*
G01*
X135718750Y-110062500D01*
G75*
G02*
X135475000Y-109818750I0J243750D01*
G01*
X135475000Y-109331250D01*
G75*
G02*
X135718750Y-109087500I243750J0D01*
G01*
G37*
G36*
G01*
X135718750Y-107512500D02*
X136281250Y-107512500D01*
G75*
G02*
X136525000Y-107756250I0J-243750D01*
G01*
X136525000Y-108243750D01*
G75*
G02*
X136281250Y-108487500I-243750J0D01*
G01*
X135718750Y-108487500D01*
G75*
G02*
X135475000Y-108243750I0J243750D01*
G01*
X135475000Y-107756250D01*
G75*
G02*
X135718750Y-107512500I243750J0D01*
G01*
G37*
G04 #@! TD*
G04 #@! TO.C,C6*
G36*
G01*
X138345000Y-100802500D02*
X138345000Y-101197500D01*
G75*
G02*
X138172500Y-101370000I-172500J0D01*
G01*
X137827500Y-101370000D01*
G75*
G02*
X137655000Y-101197500I0J172500D01*
G01*
X137655000Y-100802500D01*
G75*
G02*
X137827500Y-100630000I172500J0D01*
G01*
X138172500Y-100630000D01*
G75*
G02*
X138345000Y-100802500I0J-172500D01*
G01*
G37*
G36*
G01*
X139315000Y-100802500D02*
X139315000Y-101197500D01*
G75*
G02*
X139142500Y-101370000I-172500J0D01*
G01*
X138797500Y-101370000D01*
G75*
G02*
X138625000Y-101197500I0J172500D01*
G01*
X138625000Y-100802500D01*
G75*
G02*
X138797500Y-100630000I172500J0D01*
G01*
X139142500Y-100630000D01*
G75*
G02*
X139315000Y-100802500I0J-172500D01*
G01*
G37*
G04 #@! TD*
G04 #@! TO.C,C5*
G36*
G01*
X143860000Y-78802500D02*
X143860000Y-79197500D01*
G75*
G02*
X143687500Y-79370000I-172500J0D01*
G01*
X143342500Y-79370000D01*
G75*
G02*
X143170000Y-79197500I0J172500D01*
G01*
X143170000Y-78802500D01*
G75*
G02*
X143342500Y-78630000I172500J0D01*
G01*
X143687500Y-78630000D01*
G75*
G02*
X143860000Y-78802500I0J-172500D01*
G01*
G37*
G36*
G01*
X144830000Y-78802500D02*
X144830000Y-79197500D01*
G75*
G02*
X144657500Y-79370000I-172500J0D01*
G01*
X144312500Y-79370000D01*
G75*
G02*
X144140000Y-79197500I0J172500D01*
G01*
X144140000Y-78802500D01*
G75*
G02*
X144312500Y-78630000I172500J0D01*
G01*
X144657500Y-78630000D01*
G75*
G02*
X144830000Y-78802500I0J-172500D01*
G01*
G37*
G04 #@! TD*
G04 #@! TO.C,C4*
G36*
G01*
X143537500Y-82018750D02*
X143537500Y-82981250D01*
G75*
G02*
X143268750Y-83250000I-268750J0D01*
G01*
X142731250Y-83250000D01*
G75*
G02*
X142462500Y-82981250I0J268750D01*
G01*
X142462500Y-82018750D01*
G75*
G02*
X142731250Y-81750000I268750J0D01*
G01*
X143268750Y-81750000D01*
G75*
G02*
X143537500Y-82018750I0J-268750D01*
G01*
G37*
G36*
G01*
X145412500Y-82018750D02*
X145412500Y-82981250D01*
G75*
G02*
X145143750Y-83250000I-268750J0D01*
G01*
X144606250Y-83250000D01*
G75*
G02*
X144337500Y-82981250I0J268750D01*
G01*
X144337500Y-82018750D01*
G75*
G02*
X144606250Y-81750000I268750J0D01*
G01*
X145143750Y-81750000D01*
G75*
G02*
X145412500Y-82018750I0J-268750D01*
G01*
G37*
G04 #@! TD*
G04 #@! TO.C,C3*
G36*
G01*
X141018750Y-109337500D02*
X141981250Y-109337500D01*
G75*
G02*
X142250000Y-109606250I0J-268750D01*
G01*
X142250000Y-110143750D01*
G75*
G02*
X141981250Y-110412500I-268750J0D01*
G01*
X141018750Y-110412500D01*
G75*
G02*
X140750000Y-110143750I0J268750D01*
G01*
X140750000Y-109606250D01*
G75*
G02*
X141018750Y-109337500I268750J0D01*
G01*
G37*
G36*
G01*
X141018750Y-107462500D02*
X141981250Y-107462500D01*
G75*
G02*
X142250000Y-107731250I0J-268750D01*
G01*
X142250000Y-108268750D01*
G75*
G02*
X141981250Y-108537500I-268750J0D01*
G01*
X141018750Y-108537500D01*
G75*
G02*
X140750000Y-108268750I0J268750D01*
G01*
X140750000Y-107731250D01*
G75*
G02*
X141018750Y-107462500I268750J0D01*
G01*
G37*
G04 #@! TD*
G04 #@! TO.C,C2*
G36*
G01*
X127360000Y-100802500D02*
X127360000Y-101197500D01*
G75*
G02*
X127187500Y-101370000I-172500J0D01*
G01*
X126842500Y-101370000D01*
G75*
G02*
X126670000Y-101197500I0J172500D01*
G01*
X126670000Y-100802500D01*
G75*
G02*
X126842500Y-100630000I172500J0D01*
G01*
X127187500Y-100630000D01*
G75*
G02*
X127360000Y-100802500I0J-172500D01*
G01*
G37*
G36*
G01*
X128330000Y-100802500D02*
X128330000Y-101197500D01*
G75*
G02*
X128157500Y-101370000I-172500J0D01*
G01*
X127812500Y-101370000D01*
G75*
G02*
X127640000Y-101197500I0J172500D01*
G01*
X127640000Y-100802500D01*
G75*
G02*
X127812500Y-100630000I172500J0D01*
G01*
X128157500Y-100630000D01*
G75*
G02*
X128330000Y-100802500I0J-172500D01*
G01*
G37*
G04 #@! TD*
G04 #@! TO.C,C1*
G36*
G01*
X130360000Y-78802500D02*
X130360000Y-79197500D01*
G75*
G02*
X130187500Y-79370000I-172500J0D01*
G01*
X129842500Y-79370000D01*
G75*
G02*
X129670000Y-79197500I0J172500D01*
G01*
X129670000Y-78802500D01*
G75*
G02*
X129842500Y-78630000I172500J0D01*
G01*
X130187500Y-78630000D01*
G75*
G02*
X130360000Y-78802500I0J-172500D01*
G01*
G37*
G36*
G01*
X131330000Y-78802500D02*
X131330000Y-79197500D01*
G75*
G02*
X131157500Y-79370000I-172500J0D01*
G01*
X130812500Y-79370000D01*
G75*
G02*
X130640000Y-79197500I0J172500D01*
G01*
X130640000Y-78802500D01*
G75*
G02*
X130812500Y-78630000I172500J0D01*
G01*
X131157500Y-78630000D01*
G75*
G02*
X131330000Y-78802500I0J-172500D01*
G01*
G37*
G04 #@! TD*
M02*
