G04 #@! TF.GenerationSoftware,KiCad,Pcbnew,5.1.6-c6e7f7d~87~ubuntu18.04.1*
G04 #@! TF.CreationDate,2021-01-12T05:29:31+00:00*
G04 #@! TF.ProjectId,amp,616d702e-6b69-4636-9164-5f7063625858,rev?*
G04 #@! TF.SameCoordinates,Original*
G04 #@! TF.FileFunction,Copper,L3,Inr*
G04 #@! TF.FilePolarity,Positive*
%FSLAX46Y46*%
G04 Gerber Fmt 4.6, Leading zero omitted, Abs format (unit mm)*
G04 Created by KiCad (PCBNEW 5.1.6-c6e7f7d~87~ubuntu18.04.1) date 2021-01-12 05:29:31*
%MOMM*%
%LPD*%
G01*
G04 APERTURE LIST*
G04 #@! TA.AperFunction,ViaPad*
%ADD10C,0.800000*%
G04 #@! TD*
G04 #@! TA.AperFunction,Conductor*
%ADD11C,0.250000*%
G04 #@! TD*
G04 APERTURE END LIST*
D10*
G04 #@! TO.N,GND*
X142000000Y-96500000D03*
X143500000Y-96000000D03*
X145000000Y-96500000D03*
X128000000Y-90700000D03*
X131200000Y-90700000D03*
X133800000Y-90700000D03*
X136600000Y-90700000D03*
X139000000Y-90700000D03*
X142000000Y-90700000D03*
X145000000Y-90700000D03*
X147400000Y-90700000D03*
X132000000Y-115000000D03*
X144500000Y-115000000D03*
X123000000Y-95000000D03*
X123000000Y-107500000D03*
X153500000Y-94500000D03*
X153500000Y-108000000D03*
X153500000Y-72500000D03*
X153500000Y-85500000D03*
X123000000Y-72000000D03*
X123000000Y-86500000D03*
X122200000Y-90700000D03*
X125200000Y-90700000D03*
X150200000Y-90700000D03*
X153400000Y-90700000D03*
X139000000Y-89000000D03*
X143000000Y-85500000D03*
X146000000Y-82500000D03*
X136500000Y-85000000D03*
X136000000Y-74000000D03*
X137000000Y-74500000D03*
X135000000Y-74500000D03*
X133500000Y-96500000D03*
X132000000Y-96000000D03*
X130500000Y-96500000D03*
X134500000Y-110000000D03*
X146000000Y-110000000D03*
X147500000Y-110500000D03*
X142500000Y-105500000D03*
X142500000Y-103500000D03*
X139000000Y-103500000D03*
X139000000Y-106000000D03*
G04 #@! TO.N,Net-(C11-Pad1)*
X125000000Y-117000000D03*
G04 #@! TO.N,+10V*
X125000000Y-87000000D03*
X136500000Y-113500000D03*
X122500000Y-115500000D03*
G04 #@! TD*
D11*
G04 #@! TO.N,+10V*
X125925001Y-87925001D02*
X125925001Y-102925001D01*
X125000000Y-87000000D02*
X125925001Y-87925001D01*
X125925001Y-102925001D02*
X136500000Y-113500000D01*
X136500000Y-113500000D02*
X124500000Y-113500000D01*
X124500000Y-113500000D02*
X122500000Y-115500000D01*
G04 #@! TD*
M02*
