G04 #@! TF.GenerationSoftware,KiCad,Pcbnew,5.1.6-c6e7f7d~87~ubuntu18.04.1*
G04 #@! TF.CreationDate,2021-01-12T05:29:31+00:00*
G04 #@! TF.ProjectId,amp,616d702e-6b69-4636-9164-5f7063625858,rev?*
G04 #@! TF.SameCoordinates,Original*
G04 #@! TF.FileFunction,Copper,L1,Top*
G04 #@! TF.FilePolarity,Positive*
%FSLAX46Y46*%
G04 Gerber Fmt 4.6, Leading zero omitted, Abs format (unit mm)*
G04 Created by KiCad (PCBNEW 5.1.6-c6e7f7d~87~ubuntu18.04.1) date 2021-01-12 05:29:31*
%MOMM*%
%LPD*%
G01*
G04 APERTURE LIST*
G04 #@! TA.AperFunction,SMDPad,CuDef*
%ADD10C,2.000000*%
G04 #@! TD*
G04 #@! TA.AperFunction,SMDPad,CuDef*
%ADD11R,1.300000X1.300000*%
G04 #@! TD*
G04 #@! TA.AperFunction,SMDPad,CuDef*
%ADD12R,2.000000X1.300000*%
G04 #@! TD*
G04 #@! TA.AperFunction,SMDPad,CuDef*
%ADD13R,1.300000X2.000000*%
G04 #@! TD*
G04 #@! TA.AperFunction,SMDPad,CuDef*
%ADD14R,1.270000X0.762000*%
G04 #@! TD*
G04 #@! TA.AperFunction,SMDPad,CuDef*
%ADD15R,2.350000X1.000000*%
G04 #@! TD*
G04 #@! TA.AperFunction,SMDPad,CuDef*
%ADD16R,3.800000X1.000000*%
G04 #@! TD*
G04 #@! TA.AperFunction,SMDPad,CuDef*
%ADD17R,1.000000X2.700000*%
G04 #@! TD*
G04 #@! TA.AperFunction,SMDPad,CuDef*
%ADD18R,1.000000X3.800000*%
G04 #@! TD*
G04 #@! TA.AperFunction,SMDPad,CuDef*
%ADD19R,1.000000X1.000000*%
G04 #@! TD*
G04 #@! TA.AperFunction,SMDPad,CuDef*
%ADD20C,0.100000*%
G04 #@! TD*
G04 #@! TA.AperFunction,SMDPad,CuDef*
%ADD21R,0.900000X1.300000*%
G04 #@! TD*
G04 #@! TA.AperFunction,SMDPad,CuDef*
%ADD22R,5.080000X1.500000*%
G04 #@! TD*
G04 #@! TA.AperFunction,SMDPad,CuDef*
%ADD23R,1.500000X5.080000*%
G04 #@! TD*
G04 #@! TA.AperFunction,ViaPad*
%ADD24C,0.800000*%
G04 #@! TD*
G04 #@! TA.AperFunction,Conductor*
%ADD25C,0.350000*%
G04 #@! TD*
G04 #@! TA.AperFunction,Conductor*
%ADD26C,0.250000*%
G04 #@! TD*
G04 #@! TA.AperFunction,Conductor*
%ADD27C,0.254000*%
G04 #@! TD*
G04 APERTURE END LIST*
G04 #@! TO.P,C14,2*
G04 #@! TO.N,+10V*
G04 #@! TA.AperFunction,SMDPad,CuDef*
G36*
G01*
X123450000Y-88950001D02*
X123450000Y-88049999D01*
G75*
G02*
X123699999Y-87800000I249999J0D01*
G01*
X124350001Y-87800000D01*
G75*
G02*
X124600000Y-88049999I0J-249999D01*
G01*
X124600000Y-88950001D01*
G75*
G02*
X124350001Y-89200000I-249999J0D01*
G01*
X123699999Y-89200000D01*
G75*
G02*
X123450000Y-88950001I0J249999D01*
G01*
G37*
G04 #@! TD.AperFunction*
G04 #@! TO.P,C14,1*
G04 #@! TO.N,GND*
G04 #@! TA.AperFunction,SMDPad,CuDef*
G36*
G01*
X121400000Y-88950001D02*
X121400000Y-88049999D01*
G75*
G02*
X121649999Y-87800000I249999J0D01*
G01*
X122300001Y-87800000D01*
G75*
G02*
X122550000Y-88049999I0J-249999D01*
G01*
X122550000Y-88950001D01*
G75*
G02*
X122300001Y-89200000I-249999J0D01*
G01*
X121649999Y-89200000D01*
G75*
G02*
X121400000Y-88950001I0J249999D01*
G01*
G37*
G04 #@! TD.AperFunction*
G04 #@! TD*
G04 #@! TO.P,C13,2*
G04 #@! TO.N,+10V*
G04 #@! TA.AperFunction,SMDPad,CuDef*
G36*
G01*
X121049999Y-110450000D02*
X121950001Y-110450000D01*
G75*
G02*
X122200000Y-110699999I0J-249999D01*
G01*
X122200000Y-111350001D01*
G75*
G02*
X121950001Y-111600000I-249999J0D01*
G01*
X121049999Y-111600000D01*
G75*
G02*
X120800000Y-111350001I0J249999D01*
G01*
X120800000Y-110699999D01*
G75*
G02*
X121049999Y-110450000I249999J0D01*
G01*
G37*
G04 #@! TD.AperFunction*
G04 #@! TO.P,C13,1*
G04 #@! TO.N,GND*
G04 #@! TA.AperFunction,SMDPad,CuDef*
G36*
G01*
X121049999Y-108400000D02*
X121950001Y-108400000D01*
G75*
G02*
X122200000Y-108649999I0J-249999D01*
G01*
X122200000Y-109300001D01*
G75*
G02*
X121950001Y-109550000I-249999J0D01*
G01*
X121049999Y-109550000D01*
G75*
G02*
X120800000Y-109300001I0J249999D01*
G01*
X120800000Y-108649999D01*
G75*
G02*
X121049999Y-108400000I249999J0D01*
G01*
G37*
G04 #@! TD.AperFunction*
G04 #@! TD*
G04 #@! TO.P,U5,8*
G04 #@! TO.N,Net-(U5-Pad8)*
G04 #@! TA.AperFunction,SMDPad,CuDef*
G36*
G01*
X123745000Y-111500000D02*
X123445000Y-111500000D01*
G75*
G02*
X123295000Y-111350000I0J150000D01*
G01*
X123295000Y-109700000D01*
G75*
G02*
X123445000Y-109550000I150000J0D01*
G01*
X123745000Y-109550000D01*
G75*
G02*
X123895000Y-109700000I0J-150000D01*
G01*
X123895000Y-111350000D01*
G75*
G02*
X123745000Y-111500000I-150000J0D01*
G01*
G37*
G04 #@! TD.AperFunction*
G04 #@! TO.P,U5,7*
G04 #@! TO.N,Net-(C11-Pad1)*
G04 #@! TA.AperFunction,SMDPad,CuDef*
G36*
G01*
X125015000Y-111500000D02*
X124715000Y-111500000D01*
G75*
G02*
X124565000Y-111350000I0J150000D01*
G01*
X124565000Y-109700000D01*
G75*
G02*
X124715000Y-109550000I150000J0D01*
G01*
X125015000Y-109550000D01*
G75*
G02*
X125165000Y-109700000I0J-150000D01*
G01*
X125165000Y-111350000D01*
G75*
G02*
X125015000Y-111500000I-150000J0D01*
G01*
G37*
G04 #@! TD.AperFunction*
G04 #@! TO.P,U5,6*
G04 #@! TA.AperFunction,SMDPad,CuDef*
G36*
G01*
X126285000Y-111500000D02*
X125985000Y-111500000D01*
G75*
G02*
X125835000Y-111350000I0J150000D01*
G01*
X125835000Y-109700000D01*
G75*
G02*
X125985000Y-109550000I150000J0D01*
G01*
X126285000Y-109550000D01*
G75*
G02*
X126435000Y-109700000I0J-150000D01*
G01*
X126435000Y-111350000D01*
G75*
G02*
X126285000Y-111500000I-150000J0D01*
G01*
G37*
G04 #@! TD.AperFunction*
G04 #@! TO.P,U5,5*
G04 #@! TO.N,Net-(U5-Pad5)*
G04 #@! TA.AperFunction,SMDPad,CuDef*
G36*
G01*
X127555000Y-111500000D02*
X127255000Y-111500000D01*
G75*
G02*
X127105000Y-111350000I0J150000D01*
G01*
X127105000Y-109700000D01*
G75*
G02*
X127255000Y-109550000I150000J0D01*
G01*
X127555000Y-109550000D01*
G75*
G02*
X127705000Y-109700000I0J-150000D01*
G01*
X127705000Y-111350000D01*
G75*
G02*
X127555000Y-111500000I-150000J0D01*
G01*
G37*
G04 #@! TD.AperFunction*
G04 #@! TO.P,U5,4*
G04 #@! TO.N,Net-(R2-Pad2)*
G04 #@! TA.AperFunction,SMDPad,CuDef*
G36*
G01*
X127555000Y-116450000D02*
X127255000Y-116450000D01*
G75*
G02*
X127105000Y-116300000I0J150000D01*
G01*
X127105000Y-114650000D01*
G75*
G02*
X127255000Y-114500000I150000J0D01*
G01*
X127555000Y-114500000D01*
G75*
G02*
X127705000Y-114650000I0J-150000D01*
G01*
X127705000Y-116300000D01*
G75*
G02*
X127555000Y-116450000I-150000J0D01*
G01*
G37*
G04 #@! TD.AperFunction*
G04 #@! TO.P,U5,3*
G04 #@! TO.N,Net-(C11-Pad1)*
G04 #@! TA.AperFunction,SMDPad,CuDef*
G36*
G01*
X126285000Y-116450000D02*
X125985000Y-116450000D01*
G75*
G02*
X125835000Y-116300000I0J150000D01*
G01*
X125835000Y-114650000D01*
G75*
G02*
X125985000Y-114500000I150000J0D01*
G01*
X126285000Y-114500000D01*
G75*
G02*
X126435000Y-114650000I0J-150000D01*
G01*
X126435000Y-116300000D01*
G75*
G02*
X126285000Y-116450000I-150000J0D01*
G01*
G37*
G04 #@! TD.AperFunction*
G04 #@! TO.P,U5,2*
G04 #@! TA.AperFunction,SMDPad,CuDef*
G36*
G01*
X125015000Y-116450000D02*
X124715000Y-116450000D01*
G75*
G02*
X124565000Y-116300000I0J150000D01*
G01*
X124565000Y-114650000D01*
G75*
G02*
X124715000Y-114500000I150000J0D01*
G01*
X125015000Y-114500000D01*
G75*
G02*
X125165000Y-114650000I0J-150000D01*
G01*
X125165000Y-116300000D01*
G75*
G02*
X125015000Y-116450000I-150000J0D01*
G01*
G37*
G04 #@! TD.AperFunction*
G04 #@! TO.P,U5,1*
G04 #@! TO.N,+10V*
G04 #@! TA.AperFunction,SMDPad,CuDef*
G36*
G01*
X123745000Y-116450000D02*
X123445000Y-116450000D01*
G75*
G02*
X123295000Y-116300000I0J150000D01*
G01*
X123295000Y-114650000D01*
G75*
G02*
X123445000Y-114500000I150000J0D01*
G01*
X123745000Y-114500000D01*
G75*
G02*
X123895000Y-114650000I0J-150000D01*
G01*
X123895000Y-116300000D01*
G75*
G02*
X123745000Y-116450000I-150000J0D01*
G01*
G37*
G04 #@! TD.AperFunction*
G04 #@! TD*
G04 #@! TO.P,U4,8*
G04 #@! TO.N,Net-(U4-Pad8)*
G04 #@! TA.AperFunction,SMDPad,CuDef*
G36*
G01*
X131500000Y-84745000D02*
X131500000Y-84445000D01*
G75*
G02*
X131650000Y-84295000I150000J0D01*
G01*
X133300000Y-84295000D01*
G75*
G02*
X133450000Y-84445000I0J-150000D01*
G01*
X133450000Y-84745000D01*
G75*
G02*
X133300000Y-84895000I-150000J0D01*
G01*
X131650000Y-84895000D01*
G75*
G02*
X131500000Y-84745000I0J150000D01*
G01*
G37*
G04 #@! TD.AperFunction*
G04 #@! TO.P,U4,7*
G04 #@! TO.N,Net-(C10-Pad2)*
G04 #@! TA.AperFunction,SMDPad,CuDef*
G36*
G01*
X131500000Y-86015000D02*
X131500000Y-85715000D01*
G75*
G02*
X131650000Y-85565000I150000J0D01*
G01*
X133300000Y-85565000D01*
G75*
G02*
X133450000Y-85715000I0J-150000D01*
G01*
X133450000Y-86015000D01*
G75*
G02*
X133300000Y-86165000I-150000J0D01*
G01*
X131650000Y-86165000D01*
G75*
G02*
X131500000Y-86015000I0J150000D01*
G01*
G37*
G04 #@! TD.AperFunction*
G04 #@! TO.P,U4,6*
G04 #@! TA.AperFunction,SMDPad,CuDef*
G36*
G01*
X131500000Y-87285000D02*
X131500000Y-86985000D01*
G75*
G02*
X131650000Y-86835000I150000J0D01*
G01*
X133300000Y-86835000D01*
G75*
G02*
X133450000Y-86985000I0J-150000D01*
G01*
X133450000Y-87285000D01*
G75*
G02*
X133300000Y-87435000I-150000J0D01*
G01*
X131650000Y-87435000D01*
G75*
G02*
X131500000Y-87285000I0J150000D01*
G01*
G37*
G04 #@! TD.AperFunction*
G04 #@! TO.P,U4,5*
G04 #@! TO.N,Net-(U4-Pad5)*
G04 #@! TA.AperFunction,SMDPad,CuDef*
G36*
G01*
X131500000Y-88555000D02*
X131500000Y-88255000D01*
G75*
G02*
X131650000Y-88105000I150000J0D01*
G01*
X133300000Y-88105000D01*
G75*
G02*
X133450000Y-88255000I0J-150000D01*
G01*
X133450000Y-88555000D01*
G75*
G02*
X133300000Y-88705000I-150000J0D01*
G01*
X131650000Y-88705000D01*
G75*
G02*
X131500000Y-88555000I0J150000D01*
G01*
G37*
G04 #@! TD.AperFunction*
G04 #@! TO.P,U4,4*
G04 #@! TO.N,Net-(R1-Pad2)*
G04 #@! TA.AperFunction,SMDPad,CuDef*
G36*
G01*
X126550000Y-88555000D02*
X126550000Y-88255000D01*
G75*
G02*
X126700000Y-88105000I150000J0D01*
G01*
X128350000Y-88105000D01*
G75*
G02*
X128500000Y-88255000I0J-150000D01*
G01*
X128500000Y-88555000D01*
G75*
G02*
X128350000Y-88705000I-150000J0D01*
G01*
X126700000Y-88705000D01*
G75*
G02*
X126550000Y-88555000I0J150000D01*
G01*
G37*
G04 #@! TD.AperFunction*
G04 #@! TO.P,U4,3*
G04 #@! TO.N,Net-(C10-Pad2)*
G04 #@! TA.AperFunction,SMDPad,CuDef*
G36*
G01*
X126550000Y-87285000D02*
X126550000Y-86985000D01*
G75*
G02*
X126700000Y-86835000I150000J0D01*
G01*
X128350000Y-86835000D01*
G75*
G02*
X128500000Y-86985000I0J-150000D01*
G01*
X128500000Y-87285000D01*
G75*
G02*
X128350000Y-87435000I-150000J0D01*
G01*
X126700000Y-87435000D01*
G75*
G02*
X126550000Y-87285000I0J150000D01*
G01*
G37*
G04 #@! TD.AperFunction*
G04 #@! TO.P,U4,2*
G04 #@! TA.AperFunction,SMDPad,CuDef*
G36*
G01*
X126550000Y-86015000D02*
X126550000Y-85715000D01*
G75*
G02*
X126700000Y-85565000I150000J0D01*
G01*
X128350000Y-85565000D01*
G75*
G02*
X128500000Y-85715000I0J-150000D01*
G01*
X128500000Y-86015000D01*
G75*
G02*
X128350000Y-86165000I-150000J0D01*
G01*
X126700000Y-86165000D01*
G75*
G02*
X126550000Y-86015000I0J150000D01*
G01*
G37*
G04 #@! TD.AperFunction*
G04 #@! TO.P,U4,1*
G04 #@! TO.N,+10V*
G04 #@! TA.AperFunction,SMDPad,CuDef*
G36*
G01*
X126550000Y-84745000D02*
X126550000Y-84445000D01*
G75*
G02*
X126700000Y-84295000I150000J0D01*
G01*
X128350000Y-84295000D01*
G75*
G02*
X128500000Y-84445000I0J-150000D01*
G01*
X128500000Y-84745000D01*
G75*
G02*
X128350000Y-84895000I-150000J0D01*
G01*
X126700000Y-84895000D01*
G75*
G02*
X126550000Y-84745000I0J150000D01*
G01*
G37*
G04 #@! TD.AperFunction*
G04 #@! TD*
D10*
G04 #@! TO.P,TP1,1*
G04 #@! TO.N,Net-(C10-Pad2)*
X153000000Y-87500000D03*
G04 #@! TD*
D11*
G04 #@! TO.P,RV2,3*
G04 #@! TO.N,Net-(R4-Pad1)*
X152150000Y-115750000D03*
D12*
G04 #@! TO.P,RV2,2*
G04 #@! TO.N,Net-(R2-Pad2)*
X151000000Y-110250000D03*
D11*
G04 #@! TO.P,RV2,1*
G04 #@! TO.N,Net-(RV2-Pad1)*
X149850000Y-115750000D03*
G04 #@! TD*
G04 #@! TO.P,RV1,3*
G04 #@! TO.N,Net-(R3-Pad1)*
X144750000Y-87650000D03*
D13*
G04 #@! TO.P,RV1,2*
G04 #@! TO.N,Net-(R1-Pad2)*
X150250000Y-86500000D03*
D11*
G04 #@! TO.P,RV1,1*
G04 #@! TO.N,Net-(RV1-Pad1)*
X144750000Y-85350000D03*
G04 #@! TD*
G04 #@! TO.P,R4,2*
G04 #@! TO.N,GND*
G04 #@! TA.AperFunction,SMDPad,CuDef*
G36*
G01*
X146956250Y-112550000D02*
X146043750Y-112550000D01*
G75*
G02*
X145800000Y-112306250I0J243750D01*
G01*
X145800000Y-111818750D01*
G75*
G02*
X146043750Y-111575000I243750J0D01*
G01*
X146956250Y-111575000D01*
G75*
G02*
X147200000Y-111818750I0J-243750D01*
G01*
X147200000Y-112306250D01*
G75*
G02*
X146956250Y-112550000I-243750J0D01*
G01*
G37*
G04 #@! TD.AperFunction*
G04 #@! TO.P,R4,1*
G04 #@! TO.N,Net-(R4-Pad1)*
G04 #@! TA.AperFunction,SMDPad,CuDef*
G36*
G01*
X146956250Y-114425000D02*
X146043750Y-114425000D01*
G75*
G02*
X145800000Y-114181250I0J243750D01*
G01*
X145800000Y-113693750D01*
G75*
G02*
X146043750Y-113450000I243750J0D01*
G01*
X146956250Y-113450000D01*
G75*
G02*
X147200000Y-113693750I0J-243750D01*
G01*
X147200000Y-114181250D01*
G75*
G02*
X146956250Y-114425000I-243750J0D01*
G01*
G37*
G04 #@! TD.AperFunction*
G04 #@! TD*
G04 #@! TO.P,R3,2*
G04 #@! TO.N,GND*
G04 #@! TA.AperFunction,SMDPad,CuDef*
G36*
G01*
X140050000Y-87543750D02*
X140050000Y-88456250D01*
G75*
G02*
X139806250Y-88700000I-243750J0D01*
G01*
X139318750Y-88700000D01*
G75*
G02*
X139075000Y-88456250I0J243750D01*
G01*
X139075000Y-87543750D01*
G75*
G02*
X139318750Y-87300000I243750J0D01*
G01*
X139806250Y-87300000D01*
G75*
G02*
X140050000Y-87543750I0J-243750D01*
G01*
G37*
G04 #@! TD.AperFunction*
G04 #@! TO.P,R3,1*
G04 #@! TO.N,Net-(R3-Pad1)*
G04 #@! TA.AperFunction,SMDPad,CuDef*
G36*
G01*
X141925000Y-87543750D02*
X141925000Y-88456250D01*
G75*
G02*
X141681250Y-88700000I-243750J0D01*
G01*
X141193750Y-88700000D01*
G75*
G02*
X140950000Y-88456250I0J243750D01*
G01*
X140950000Y-87543750D01*
G75*
G02*
X141193750Y-87300000I243750J0D01*
G01*
X141681250Y-87300000D01*
G75*
G02*
X141925000Y-87543750I0J-243750D01*
G01*
G37*
G04 #@! TD.AperFunction*
G04 #@! TD*
G04 #@! TO.P,R2,2*
G04 #@! TO.N,Net-(R2-Pad2)*
G04 #@! TA.AperFunction,SMDPad,CuDef*
G36*
G01*
X130956250Y-112050000D02*
X130043750Y-112050000D01*
G75*
G02*
X129800000Y-111806250I0J243750D01*
G01*
X129800000Y-111318750D01*
G75*
G02*
X130043750Y-111075000I243750J0D01*
G01*
X130956250Y-111075000D01*
G75*
G02*
X131200000Y-111318750I0J-243750D01*
G01*
X131200000Y-111806250D01*
G75*
G02*
X130956250Y-112050000I-243750J0D01*
G01*
G37*
G04 #@! TD.AperFunction*
G04 #@! TO.P,R2,1*
G04 #@! TO.N,Net-(C11-Pad1)*
G04 #@! TA.AperFunction,SMDPad,CuDef*
G36*
G01*
X130956250Y-113925000D02*
X130043750Y-113925000D01*
G75*
G02*
X129800000Y-113681250I0J243750D01*
G01*
X129800000Y-113193750D01*
G75*
G02*
X130043750Y-112950000I243750J0D01*
G01*
X130956250Y-112950000D01*
G75*
G02*
X131200000Y-113193750I0J-243750D01*
G01*
X131200000Y-113681250D01*
G75*
G02*
X130956250Y-113925000I-243750J0D01*
G01*
G37*
G04 #@! TD.AperFunction*
G04 #@! TD*
G04 #@! TO.P,R1,2*
G04 #@! TO.N,Net-(R1-Pad2)*
G04 #@! TA.AperFunction,SMDPad,CuDef*
G36*
G01*
X135987500Y-87543750D02*
X135987500Y-88456250D01*
G75*
G02*
X135743750Y-88700000I-243750J0D01*
G01*
X135256250Y-88700000D01*
G75*
G02*
X135012500Y-88456250I0J243750D01*
G01*
X135012500Y-87543750D01*
G75*
G02*
X135256250Y-87300000I243750J0D01*
G01*
X135743750Y-87300000D01*
G75*
G02*
X135987500Y-87543750I0J-243750D01*
G01*
G37*
G04 #@! TD.AperFunction*
G04 #@! TO.P,R1,1*
G04 #@! TO.N,Net-(C10-Pad2)*
G04 #@! TA.AperFunction,SMDPad,CuDef*
G36*
G01*
X137862500Y-87543750D02*
X137862500Y-88456250D01*
G75*
G02*
X137618750Y-88700000I-243750J0D01*
G01*
X137131250Y-88700000D01*
G75*
G02*
X136887500Y-88456250I0J243750D01*
G01*
X136887500Y-87543750D01*
G75*
G02*
X137131250Y-87300000I243750J0D01*
G01*
X137618750Y-87300000D01*
G75*
G02*
X137862500Y-87543750I0J-243750D01*
G01*
G37*
G04 #@! TD.AperFunction*
G04 #@! TD*
D14*
G04 #@! TO.P,L3,3*
G04 #@! TO.N,N/C*
X147794000Y-103500000D03*
G04 #@! TO.P,L3,1*
G04 #@! TO.N,Net-(C11-Pad1)*
X147794000Y-106040000D03*
G04 #@! TO.P,L3,4*
G04 #@! TO.N,N/C*
X145000000Y-106040000D03*
G04 #@! TO.P,L3,2*
G04 #@! TO.N,Net-(C12-Pad2)*
X145000000Y-103500000D03*
G04 #@! TD*
G04 #@! TO.P,L2,3*
G04 #@! TO.N,N/C*
X136397000Y-103230000D03*
G04 #@! TO.P,L2,1*
G04 #@! TO.N,Net-(C11-Pad1)*
X136397000Y-105770000D03*
G04 #@! TO.P,L2,4*
G04 #@! TO.N,N/C*
X133603000Y-105770000D03*
G04 #@! TO.P,L2,2*
G04 #@! TO.N,Net-(C6-Pad2)*
X133603000Y-103230000D03*
G04 #@! TD*
G04 #@! TO.P,L1,3*
G04 #@! TO.N,N/C*
X140294000Y-80500000D03*
G04 #@! TO.P,L1,1*
G04 #@! TO.N,Net-(C10-Pad2)*
X140294000Y-83040000D03*
G04 #@! TO.P,L1,4*
G04 #@! TO.N,N/C*
X137500000Y-83040000D03*
G04 #@! TO.P,L1,2*
G04 #@! TO.N,Net-(C5-Pad2)*
X137500000Y-80500000D03*
G04 #@! TD*
D15*
G04 #@! TO.P,J7,1*
G04 #@! TO.N,GND*
X120725000Y-118300000D03*
X120725000Y-67700000D03*
D16*
X126000000Y-118300000D03*
X126000000Y-67700000D03*
X132000000Y-67700000D03*
X138000000Y-67700000D03*
X144000000Y-67700000D03*
X150000000Y-118300000D03*
X150000000Y-67700000D03*
D15*
X155275000Y-118300000D03*
X155275000Y-67700000D03*
D17*
X119050000Y-116450000D03*
X156950000Y-116450000D03*
D18*
X119050000Y-111000000D03*
X156950000Y-111000000D03*
X119050000Y-93000000D03*
X156950000Y-93000000D03*
X119050000Y-87000000D03*
X156950000Y-87000000D03*
D17*
X119050000Y-69550000D03*
X156950000Y-69550000D03*
D19*
X119050000Y-67700000D03*
X119050000Y-118300000D03*
X156950000Y-118300000D03*
X156950000Y-67700000D03*
G04 #@! TD*
G04 #@! TA.AperFunction,SMDPad,CuDef*
D20*
G04 #@! TO.P,U3,2*
G04 #@! TO.N,GND*
G36*
X144366500Y-97050000D02*
G01*
X144366500Y-100175000D01*
X143950000Y-100175000D01*
X143950000Y-101650000D01*
X143050000Y-101650000D01*
X143050000Y-100175000D01*
X142633500Y-100175000D01*
X142633500Y-97050000D01*
X144366500Y-97050000D01*
G37*
G04 #@! TD.AperFunction*
D21*
G04 #@! TO.P,U3,3*
G04 #@! TO.N,Net-(C12-Pad2)*
X145000000Y-101000000D03*
G04 #@! TO.P,U3,1*
G04 #@! TO.N,Net-(C6-Pad1)*
X142000000Y-101000000D03*
G04 #@! TD*
G04 #@! TA.AperFunction,SMDPad,CuDef*
D20*
G04 #@! TO.P,U2,2*
G04 #@! TO.N,GND*
G36*
X132866500Y-97050000D02*
G01*
X132866500Y-100175000D01*
X132450000Y-100175000D01*
X132450000Y-101650000D01*
X131550000Y-101650000D01*
X131550000Y-100175000D01*
X131133500Y-100175000D01*
X131133500Y-97050000D01*
X132866500Y-97050000D01*
G37*
G04 #@! TD.AperFunction*
D21*
G04 #@! TO.P,U2,3*
G04 #@! TO.N,Net-(C6-Pad2)*
X133500000Y-101000000D03*
G04 #@! TO.P,U2,1*
G04 #@! TO.N,Net-(C2-Pad1)*
X130500000Y-101000000D03*
G04 #@! TD*
G04 #@! TA.AperFunction,SMDPad,CuDef*
D20*
G04 #@! TO.P,U1,2*
G04 #@! TO.N,GND*
G36*
X136866500Y-75050000D02*
G01*
X136866500Y-78175000D01*
X136450000Y-78175000D01*
X136450000Y-79650000D01*
X135550000Y-79650000D01*
X135550000Y-78175000D01*
X135133500Y-78175000D01*
X135133500Y-75050000D01*
X136866500Y-75050000D01*
G37*
G04 #@! TD.AperFunction*
D21*
G04 #@! TO.P,U1,3*
G04 #@! TO.N,Net-(C5-Pad2)*
X137500000Y-79000000D03*
G04 #@! TO.P,U1,1*
G04 #@! TO.N,Net-(C1-Pad1)*
X134500000Y-79000000D03*
G04 #@! TD*
D22*
G04 #@! TO.P,J5,1*
G04 #@! TO.N,Net-(C12-Pad1)*
X153500000Y-101000000D03*
G04 #@! TO.P,J5,2*
G04 #@! TO.N,GND*
X153500000Y-96750000D03*
X153500000Y-105250000D03*
G04 #@! TD*
D23*
G04 #@! TO.P,J4,1*
G04 #@! TO.N,+10V*
X138000000Y-115000000D03*
G04 #@! TO.P,J4,2*
G04 #@! TO.N,GND*
X142250000Y-115000000D03*
X133750000Y-115000000D03*
G04 #@! TD*
D22*
G04 #@! TO.P,J3,1*
G04 #@! TO.N,Net-(C5-Pad1)*
X153500000Y-79000000D03*
G04 #@! TO.P,J3,2*
G04 #@! TO.N,GND*
X153500000Y-74750000D03*
X153500000Y-83250000D03*
G04 #@! TD*
G04 #@! TO.P,J2,1*
G04 #@! TO.N,Net-(C2-Pad2)*
X123000000Y-101000000D03*
G04 #@! TO.P,J2,2*
G04 #@! TO.N,GND*
X123000000Y-105250000D03*
X123000000Y-96750000D03*
G04 #@! TD*
G04 #@! TO.P,J1,1*
G04 #@! TO.N,Net-(C1-Pad2)*
X123000000Y-79000000D03*
G04 #@! TO.P,J1,2*
G04 #@! TO.N,GND*
X123000000Y-83250000D03*
X123000000Y-74750000D03*
G04 #@! TD*
G04 #@! TO.P,C12,2*
G04 #@! TO.N,Net-(C12-Pad2)*
G04 #@! TA.AperFunction,SMDPad,CuDef*
G36*
G01*
X148810000Y-100827500D02*
X148810000Y-101172500D01*
G75*
G02*
X148662500Y-101320000I-147500J0D01*
G01*
X148367500Y-101320000D01*
G75*
G02*
X148220000Y-101172500I0J147500D01*
G01*
X148220000Y-100827500D01*
G75*
G02*
X148367500Y-100680000I147500J0D01*
G01*
X148662500Y-100680000D01*
G75*
G02*
X148810000Y-100827500I0J-147500D01*
G01*
G37*
G04 #@! TD.AperFunction*
G04 #@! TO.P,C12,1*
G04 #@! TO.N,Net-(C12-Pad1)*
G04 #@! TA.AperFunction,SMDPad,CuDef*
G36*
G01*
X149780000Y-100827500D02*
X149780000Y-101172500D01*
G75*
G02*
X149632500Y-101320000I-147500J0D01*
G01*
X149337500Y-101320000D01*
G75*
G02*
X149190000Y-101172500I0J147500D01*
G01*
X149190000Y-100827500D01*
G75*
G02*
X149337500Y-100680000I147500J0D01*
G01*
X149632500Y-100680000D01*
G75*
G02*
X149780000Y-100827500I0J-147500D01*
G01*
G37*
G04 #@! TD.AperFunction*
G04 #@! TD*
G04 #@! TO.P,C11,2*
G04 #@! TO.N,GND*
G04 #@! TA.AperFunction,SMDPad,CuDef*
G36*
G01*
X138243750Y-109137500D02*
X138756250Y-109137500D01*
G75*
G02*
X138975000Y-109356250I0J-218750D01*
G01*
X138975000Y-109793750D01*
G75*
G02*
X138756250Y-110012500I-218750J0D01*
G01*
X138243750Y-110012500D01*
G75*
G02*
X138025000Y-109793750I0J218750D01*
G01*
X138025000Y-109356250D01*
G75*
G02*
X138243750Y-109137500I218750J0D01*
G01*
G37*
G04 #@! TD.AperFunction*
G04 #@! TO.P,C11,1*
G04 #@! TO.N,Net-(C11-Pad1)*
G04 #@! TA.AperFunction,SMDPad,CuDef*
G36*
G01*
X138243750Y-107562500D02*
X138756250Y-107562500D01*
G75*
G02*
X138975000Y-107781250I0J-218750D01*
G01*
X138975000Y-108218750D01*
G75*
G02*
X138756250Y-108437500I-218750J0D01*
G01*
X138243750Y-108437500D01*
G75*
G02*
X138025000Y-108218750I0J218750D01*
G01*
X138025000Y-107781250D01*
G75*
G02*
X138243750Y-107562500I218750J0D01*
G01*
G37*
G04 #@! TD.AperFunction*
G04 #@! TD*
G04 #@! TO.P,C10,2*
G04 #@! TO.N,Net-(C10-Pad2)*
G04 #@! TA.AperFunction,SMDPad,CuDef*
G36*
G01*
X141150000Y-84743750D02*
X141150000Y-85256250D01*
G75*
G02*
X140931250Y-85475000I-218750J0D01*
G01*
X140493750Y-85475000D01*
G75*
G02*
X140275000Y-85256250I0J218750D01*
G01*
X140275000Y-84743750D01*
G75*
G02*
X140493750Y-84525000I218750J0D01*
G01*
X140931250Y-84525000D01*
G75*
G02*
X141150000Y-84743750I0J-218750D01*
G01*
G37*
G04 #@! TD.AperFunction*
G04 #@! TO.P,C10,1*
G04 #@! TO.N,GND*
G04 #@! TA.AperFunction,SMDPad,CuDef*
G36*
G01*
X142725000Y-84743750D02*
X142725000Y-85256250D01*
G75*
G02*
X142506250Y-85475000I-218750J0D01*
G01*
X142068750Y-85475000D01*
G75*
G02*
X141850000Y-85256250I0J218750D01*
G01*
X141850000Y-84743750D01*
G75*
G02*
X142068750Y-84525000I218750J0D01*
G01*
X142506250Y-84525000D01*
G75*
G02*
X142725000Y-84743750I0J-218750D01*
G01*
G37*
G04 #@! TD.AperFunction*
G04 #@! TD*
G04 #@! TO.P,C9,2*
G04 #@! TO.N,GND*
G04 #@! TA.AperFunction,SMDPad,CuDef*
G36*
G01*
X144243750Y-109137500D02*
X144756250Y-109137500D01*
G75*
G02*
X144975000Y-109356250I0J-218750D01*
G01*
X144975000Y-109793750D01*
G75*
G02*
X144756250Y-110012500I-218750J0D01*
G01*
X144243750Y-110012500D01*
G75*
G02*
X144025000Y-109793750I0J218750D01*
G01*
X144025000Y-109356250D01*
G75*
G02*
X144243750Y-109137500I218750J0D01*
G01*
G37*
G04 #@! TD.AperFunction*
G04 #@! TO.P,C9,1*
G04 #@! TO.N,Net-(C11-Pad1)*
G04 #@! TA.AperFunction,SMDPad,CuDef*
G36*
G01*
X144243750Y-107562500D02*
X144756250Y-107562500D01*
G75*
G02*
X144975000Y-107781250I0J-218750D01*
G01*
X144975000Y-108218750D01*
G75*
G02*
X144756250Y-108437500I-218750J0D01*
G01*
X144243750Y-108437500D01*
G75*
G02*
X144025000Y-108218750I0J218750D01*
G01*
X144025000Y-107781250D01*
G75*
G02*
X144243750Y-107562500I218750J0D01*
G01*
G37*
G04 #@! TD.AperFunction*
G04 #@! TD*
G04 #@! TO.P,C8,2*
G04 #@! TO.N,Net-(C10-Pad2)*
G04 #@! TA.AperFunction,SMDPad,CuDef*
G36*
G01*
X138562500Y-85256250D02*
X138562500Y-84743750D01*
G75*
G02*
X138781250Y-84525000I218750J0D01*
G01*
X139218750Y-84525000D01*
G75*
G02*
X139437500Y-84743750I0J-218750D01*
G01*
X139437500Y-85256250D01*
G75*
G02*
X139218750Y-85475000I-218750J0D01*
G01*
X138781250Y-85475000D01*
G75*
G02*
X138562500Y-85256250I0J218750D01*
G01*
G37*
G04 #@! TD.AperFunction*
G04 #@! TO.P,C8,1*
G04 #@! TO.N,GND*
G04 #@! TA.AperFunction,SMDPad,CuDef*
G36*
G01*
X136987500Y-85256250D02*
X136987500Y-84743750D01*
G75*
G02*
X137206250Y-84525000I218750J0D01*
G01*
X137643750Y-84525000D01*
G75*
G02*
X137862500Y-84743750I0J-218750D01*
G01*
X137862500Y-85256250D01*
G75*
G02*
X137643750Y-85475000I-218750J0D01*
G01*
X137206250Y-85475000D01*
G75*
G02*
X136987500Y-85256250I0J218750D01*
G01*
G37*
G04 #@! TD.AperFunction*
G04 #@! TD*
G04 #@! TO.P,C7,2*
G04 #@! TO.N,GND*
G04 #@! TA.AperFunction,SMDPad,CuDef*
G36*
G01*
X135743750Y-109137500D02*
X136256250Y-109137500D01*
G75*
G02*
X136475000Y-109356250I0J-218750D01*
G01*
X136475000Y-109793750D01*
G75*
G02*
X136256250Y-110012500I-218750J0D01*
G01*
X135743750Y-110012500D01*
G75*
G02*
X135525000Y-109793750I0J218750D01*
G01*
X135525000Y-109356250D01*
G75*
G02*
X135743750Y-109137500I218750J0D01*
G01*
G37*
G04 #@! TD.AperFunction*
G04 #@! TO.P,C7,1*
G04 #@! TO.N,Net-(C11-Pad1)*
G04 #@! TA.AperFunction,SMDPad,CuDef*
G36*
G01*
X135743750Y-107562500D02*
X136256250Y-107562500D01*
G75*
G02*
X136475000Y-107781250I0J-218750D01*
G01*
X136475000Y-108218750D01*
G75*
G02*
X136256250Y-108437500I-218750J0D01*
G01*
X135743750Y-108437500D01*
G75*
G02*
X135525000Y-108218750I0J218750D01*
G01*
X135525000Y-107781250D01*
G75*
G02*
X135743750Y-107562500I218750J0D01*
G01*
G37*
G04 #@! TD.AperFunction*
G04 #@! TD*
G04 #@! TO.P,C6,2*
G04 #@! TO.N,Net-(C6-Pad2)*
G04 #@! TA.AperFunction,SMDPad,CuDef*
G36*
G01*
X138295000Y-100827500D02*
X138295000Y-101172500D01*
G75*
G02*
X138147500Y-101320000I-147500J0D01*
G01*
X137852500Y-101320000D01*
G75*
G02*
X137705000Y-101172500I0J147500D01*
G01*
X137705000Y-100827500D01*
G75*
G02*
X137852500Y-100680000I147500J0D01*
G01*
X138147500Y-100680000D01*
G75*
G02*
X138295000Y-100827500I0J-147500D01*
G01*
G37*
G04 #@! TD.AperFunction*
G04 #@! TO.P,C6,1*
G04 #@! TO.N,Net-(C6-Pad1)*
G04 #@! TA.AperFunction,SMDPad,CuDef*
G36*
G01*
X139265000Y-100827500D02*
X139265000Y-101172500D01*
G75*
G02*
X139117500Y-101320000I-147500J0D01*
G01*
X138822500Y-101320000D01*
G75*
G02*
X138675000Y-101172500I0J147500D01*
G01*
X138675000Y-100827500D01*
G75*
G02*
X138822500Y-100680000I147500J0D01*
G01*
X139117500Y-100680000D01*
G75*
G02*
X139265000Y-100827500I0J-147500D01*
G01*
G37*
G04 #@! TD.AperFunction*
G04 #@! TD*
G04 #@! TO.P,C5,2*
G04 #@! TO.N,Net-(C5-Pad2)*
G04 #@! TA.AperFunction,SMDPad,CuDef*
G36*
G01*
X143810000Y-78827500D02*
X143810000Y-79172500D01*
G75*
G02*
X143662500Y-79320000I-147500J0D01*
G01*
X143367500Y-79320000D01*
G75*
G02*
X143220000Y-79172500I0J147500D01*
G01*
X143220000Y-78827500D01*
G75*
G02*
X143367500Y-78680000I147500J0D01*
G01*
X143662500Y-78680000D01*
G75*
G02*
X143810000Y-78827500I0J-147500D01*
G01*
G37*
G04 #@! TD.AperFunction*
G04 #@! TO.P,C5,1*
G04 #@! TO.N,Net-(C5-Pad1)*
G04 #@! TA.AperFunction,SMDPad,CuDef*
G36*
G01*
X144780000Y-78827500D02*
X144780000Y-79172500D01*
G75*
G02*
X144632500Y-79320000I-147500J0D01*
G01*
X144337500Y-79320000D01*
G75*
G02*
X144190000Y-79172500I0J147500D01*
G01*
X144190000Y-78827500D01*
G75*
G02*
X144337500Y-78680000I147500J0D01*
G01*
X144632500Y-78680000D01*
G75*
G02*
X144780000Y-78827500I0J-147500D01*
G01*
G37*
G04 #@! TD.AperFunction*
G04 #@! TD*
G04 #@! TO.P,C4,2*
G04 #@! TO.N,Net-(C10-Pad2)*
G04 #@! TA.AperFunction,SMDPad,CuDef*
G36*
G01*
X143487500Y-82043750D02*
X143487500Y-82956250D01*
G75*
G02*
X143243750Y-83200000I-243750J0D01*
G01*
X142756250Y-83200000D01*
G75*
G02*
X142512500Y-82956250I0J243750D01*
G01*
X142512500Y-82043750D01*
G75*
G02*
X142756250Y-81800000I243750J0D01*
G01*
X143243750Y-81800000D01*
G75*
G02*
X143487500Y-82043750I0J-243750D01*
G01*
G37*
G04 #@! TD.AperFunction*
G04 #@! TO.P,C4,1*
G04 #@! TO.N,GND*
G04 #@! TA.AperFunction,SMDPad,CuDef*
G36*
G01*
X145362500Y-82043750D02*
X145362500Y-82956250D01*
G75*
G02*
X145118750Y-83200000I-243750J0D01*
G01*
X144631250Y-83200000D01*
G75*
G02*
X144387500Y-82956250I0J243750D01*
G01*
X144387500Y-82043750D01*
G75*
G02*
X144631250Y-81800000I243750J0D01*
G01*
X145118750Y-81800000D01*
G75*
G02*
X145362500Y-82043750I0J-243750D01*
G01*
G37*
G04 #@! TD.AperFunction*
G04 #@! TD*
G04 #@! TO.P,C3,2*
G04 #@! TO.N,GND*
G04 #@! TA.AperFunction,SMDPad,CuDef*
G36*
G01*
X141043750Y-109387500D02*
X141956250Y-109387500D01*
G75*
G02*
X142200000Y-109631250I0J-243750D01*
G01*
X142200000Y-110118750D01*
G75*
G02*
X141956250Y-110362500I-243750J0D01*
G01*
X141043750Y-110362500D01*
G75*
G02*
X140800000Y-110118750I0J243750D01*
G01*
X140800000Y-109631250D01*
G75*
G02*
X141043750Y-109387500I243750J0D01*
G01*
G37*
G04 #@! TD.AperFunction*
G04 #@! TO.P,C3,1*
G04 #@! TO.N,Net-(C11-Pad1)*
G04 #@! TA.AperFunction,SMDPad,CuDef*
G36*
G01*
X141043750Y-107512500D02*
X141956250Y-107512500D01*
G75*
G02*
X142200000Y-107756250I0J-243750D01*
G01*
X142200000Y-108243750D01*
G75*
G02*
X141956250Y-108487500I-243750J0D01*
G01*
X141043750Y-108487500D01*
G75*
G02*
X140800000Y-108243750I0J243750D01*
G01*
X140800000Y-107756250D01*
G75*
G02*
X141043750Y-107512500I243750J0D01*
G01*
G37*
G04 #@! TD.AperFunction*
G04 #@! TD*
G04 #@! TO.P,C2,2*
G04 #@! TO.N,Net-(C2-Pad2)*
G04 #@! TA.AperFunction,SMDPad,CuDef*
G36*
G01*
X127310000Y-100827500D02*
X127310000Y-101172500D01*
G75*
G02*
X127162500Y-101320000I-147500J0D01*
G01*
X126867500Y-101320000D01*
G75*
G02*
X126720000Y-101172500I0J147500D01*
G01*
X126720000Y-100827500D01*
G75*
G02*
X126867500Y-100680000I147500J0D01*
G01*
X127162500Y-100680000D01*
G75*
G02*
X127310000Y-100827500I0J-147500D01*
G01*
G37*
G04 #@! TD.AperFunction*
G04 #@! TO.P,C2,1*
G04 #@! TO.N,Net-(C2-Pad1)*
G04 #@! TA.AperFunction,SMDPad,CuDef*
G36*
G01*
X128280000Y-100827500D02*
X128280000Y-101172500D01*
G75*
G02*
X128132500Y-101320000I-147500J0D01*
G01*
X127837500Y-101320000D01*
G75*
G02*
X127690000Y-101172500I0J147500D01*
G01*
X127690000Y-100827500D01*
G75*
G02*
X127837500Y-100680000I147500J0D01*
G01*
X128132500Y-100680000D01*
G75*
G02*
X128280000Y-100827500I0J-147500D01*
G01*
G37*
G04 #@! TD.AperFunction*
G04 #@! TD*
G04 #@! TO.P,C1,2*
G04 #@! TO.N,Net-(C1-Pad2)*
G04 #@! TA.AperFunction,SMDPad,CuDef*
G36*
G01*
X130310000Y-78827500D02*
X130310000Y-79172500D01*
G75*
G02*
X130162500Y-79320000I-147500J0D01*
G01*
X129867500Y-79320000D01*
G75*
G02*
X129720000Y-79172500I0J147500D01*
G01*
X129720000Y-78827500D01*
G75*
G02*
X129867500Y-78680000I147500J0D01*
G01*
X130162500Y-78680000D01*
G75*
G02*
X130310000Y-78827500I0J-147500D01*
G01*
G37*
G04 #@! TD.AperFunction*
G04 #@! TO.P,C1,1*
G04 #@! TO.N,Net-(C1-Pad1)*
G04 #@! TA.AperFunction,SMDPad,CuDef*
G36*
G01*
X131280000Y-78827500D02*
X131280000Y-79172500D01*
G75*
G02*
X131132500Y-79320000I-147500J0D01*
G01*
X130837500Y-79320000D01*
G75*
G02*
X130690000Y-79172500I0J147500D01*
G01*
X130690000Y-78827500D01*
G75*
G02*
X130837500Y-78680000I147500J0D01*
G01*
X131132500Y-78680000D01*
G75*
G02*
X131280000Y-78827500I0J-147500D01*
G01*
G37*
G04 #@! TD.AperFunction*
G04 #@! TD*
D24*
G04 #@! TO.N,GND*
X142000000Y-96500000D03*
X143500000Y-96000000D03*
X145000000Y-96500000D03*
X128000000Y-90700000D03*
X131200000Y-90700000D03*
X133800000Y-90700000D03*
X136600000Y-90700000D03*
X139000000Y-90700000D03*
X142000000Y-90700000D03*
X145000000Y-90700000D03*
X147400000Y-90700000D03*
X132000000Y-115000000D03*
X144500000Y-115000000D03*
X123000000Y-95000000D03*
X123000000Y-107500000D03*
X153500000Y-94500000D03*
X153500000Y-108000000D03*
X153500000Y-72500000D03*
X153500000Y-85500000D03*
X123000000Y-72000000D03*
X123000000Y-86500000D03*
X122200000Y-90700000D03*
X125200000Y-90700000D03*
X150200000Y-90700000D03*
X153400000Y-90700000D03*
X139000000Y-89000000D03*
X143000000Y-85500000D03*
X146000000Y-82500000D03*
X136500000Y-85000000D03*
X136000000Y-74000000D03*
X137000000Y-74500000D03*
X135000000Y-74500000D03*
X133500000Y-96500000D03*
X132000000Y-96000000D03*
X130500000Y-96500000D03*
X134500000Y-110000000D03*
X146000000Y-110000000D03*
X147500000Y-110500000D03*
X142500000Y-105500000D03*
X142500000Y-103500000D03*
X139000000Y-103500000D03*
X139000000Y-106000000D03*
G04 #@! TO.N,Net-(C11-Pad1)*
X125000000Y-117000000D03*
G04 #@! TO.N,+10V*
X125000000Y-87000000D03*
X136500000Y-113500000D03*
X122500000Y-115500000D03*
G04 #@! TD*
D25*
G04 #@! TO.N,Net-(C1-Pad2)*
X123000000Y-79000000D02*
X130015000Y-79000000D01*
G04 #@! TO.N,Net-(C1-Pad1)*
X130985000Y-79000000D02*
X134500000Y-79000000D01*
G04 #@! TO.N,Net-(C2-Pad2)*
X123000000Y-101000000D02*
X127015000Y-101000000D01*
G04 #@! TO.N,Net-(C2-Pad1)*
X127985000Y-101000000D02*
X130500000Y-101000000D01*
D26*
G04 #@! TO.N,GND*
X143000000Y-97500000D02*
X142000000Y-96500000D01*
X143500000Y-97500000D02*
X143500000Y-96000000D01*
X143500000Y-98000000D02*
X145000000Y-96500000D01*
X133750000Y-115000000D02*
X132000000Y-115000000D01*
X144500000Y-115000000D02*
X142250000Y-115000000D01*
X123000000Y-96750000D02*
X123000000Y-95000000D01*
X123000000Y-107500000D02*
X123000000Y-105250000D01*
X153500000Y-96750000D02*
X153500000Y-94500000D01*
X153500000Y-108000000D02*
X153500000Y-105250000D01*
X153500000Y-74750000D02*
X153500000Y-72500000D01*
X153500000Y-85500000D02*
X153500000Y-83250000D01*
X123000000Y-74750000D02*
X123000000Y-72000000D01*
X139562500Y-88000000D02*
X139562500Y-88437500D01*
X139562500Y-88437500D02*
X139000000Y-89000000D01*
X142287500Y-85000000D02*
X142500000Y-85000000D01*
X142500000Y-85000000D02*
X143000000Y-85500000D01*
X144875000Y-82500000D02*
X146000000Y-82500000D01*
X137425000Y-85000000D02*
X136500000Y-85000000D01*
X136000000Y-78912500D02*
X136000000Y-74000000D01*
X136000000Y-78912500D02*
X136000000Y-75500000D01*
X136000000Y-75500000D02*
X137000000Y-74500000D01*
X136000000Y-75500000D02*
X135000000Y-74500000D01*
X132000000Y-98000000D02*
X133500000Y-96500000D01*
X132000000Y-100912500D02*
X132000000Y-97500000D01*
X132000000Y-97500000D02*
X132000000Y-96000000D01*
X132000000Y-100912500D02*
X132000000Y-98000000D01*
X132000000Y-97500000D02*
X131500000Y-97500000D01*
X131500000Y-97500000D02*
X130500000Y-96500000D01*
X136000000Y-109575000D02*
X144500000Y-109575000D01*
X136000000Y-109575000D02*
X134925000Y-109575000D01*
X134925000Y-109575000D02*
X134500000Y-110000000D01*
X144500000Y-109575000D02*
X145575000Y-109575000D01*
X145575000Y-109575000D02*
X146000000Y-110000000D01*
X146500000Y-112062500D02*
X146500000Y-111000000D01*
X138800000Y-109875000D02*
X138500000Y-109575000D01*
X141500000Y-109875000D02*
X138800000Y-109875000D01*
X121075000Y-108975000D02*
X119050000Y-111000000D01*
X121500000Y-108975000D02*
X121075000Y-108975000D01*
X120550000Y-88500000D02*
X119050000Y-87000000D01*
X121975000Y-88500000D02*
X120550000Y-88500000D01*
X128700000Y-118300000D02*
X126000000Y-118300000D01*
X132000000Y-115000000D02*
X128700000Y-118300000D01*
X120725000Y-118300000D02*
X119050000Y-118300000D01*
X155275000Y-118300000D02*
X156950000Y-118300000D01*
X156950000Y-69550000D02*
X156950000Y-67700000D01*
X120725000Y-67700000D02*
X119050000Y-67700000D01*
G04 #@! TO.N,Net-(C11-Pad1)*
X124865000Y-115475000D02*
X124865000Y-116865000D01*
X124865000Y-116865000D02*
X125000000Y-117000000D01*
X126135000Y-115475000D02*
X124865000Y-115475000D01*
D25*
X136397000Y-107603000D02*
X136000000Y-108000000D01*
X136397000Y-105770000D02*
X136397000Y-107603000D01*
X136000000Y-108000000D02*
X144500000Y-108000000D01*
X145834000Y-108000000D02*
X147794000Y-106040000D01*
X144500000Y-108000000D02*
X145834000Y-108000000D01*
X124865000Y-115475000D02*
X124865000Y-110525000D01*
X124865000Y-110525000D02*
X126135000Y-110525000D01*
X126135000Y-114500000D02*
X126135000Y-115475000D01*
X127197500Y-113437500D02*
X126135000Y-114500000D01*
X130500000Y-113437500D02*
X127197500Y-113437500D01*
X129424990Y-111062450D02*
X129424990Y-112362490D01*
X129424990Y-112362490D02*
X130500000Y-113437500D01*
X132487440Y-108000000D02*
X129424990Y-111062450D01*
X136000000Y-108000000D02*
X132487440Y-108000000D01*
G04 #@! TO.N,Net-(C10-Pad2)*
X140294000Y-84581500D02*
X140712500Y-85000000D01*
X140294000Y-83040000D02*
X140294000Y-84581500D01*
X140834000Y-82500000D02*
X140294000Y-83040000D01*
X143000000Y-82500000D02*
X140834000Y-82500000D01*
X139000000Y-84334000D02*
X140294000Y-83040000D01*
X139000000Y-85000000D02*
X139000000Y-84334000D01*
X137375000Y-86625000D02*
X139000000Y-85000000D01*
X137375000Y-88000000D02*
X137375000Y-86625000D01*
X136299990Y-86924990D02*
X132575010Y-86924990D01*
X137375000Y-88000000D02*
X136299990Y-86924990D01*
X132475000Y-86824980D02*
X132475000Y-85865000D01*
X132575010Y-86924990D02*
X132475000Y-86824980D01*
X132475000Y-85865000D02*
X127525000Y-85865000D01*
X127525000Y-85865000D02*
X127525000Y-87135000D01*
X144075010Y-83575010D02*
X143000000Y-82500000D01*
X149650012Y-83575010D02*
X144075010Y-83575010D01*
X153000000Y-86924998D02*
X149650012Y-83575010D01*
X153000000Y-87500000D02*
X153000000Y-86924998D01*
G04 #@! TO.N,Net-(C5-Pad2)*
X137500000Y-79000000D02*
X143515000Y-79000000D01*
X137500000Y-80500000D02*
X137500000Y-79000000D01*
G04 #@! TO.N,Net-(C5-Pad1)*
X144485000Y-79000000D02*
X153500000Y-79000000D01*
G04 #@! TO.N,Net-(C6-Pad2)*
X133500000Y-101000000D02*
X138000000Y-101000000D01*
X133603000Y-101103000D02*
X133500000Y-101000000D01*
X133603000Y-103230000D02*
X133603000Y-101103000D01*
G04 #@! TO.N,Net-(C6-Pad1)*
X138970000Y-101000000D02*
X142000000Y-101000000D01*
G04 #@! TO.N,Net-(C12-Pad2)*
X145000000Y-101000000D02*
X148515000Y-101000000D01*
X145000000Y-103500000D02*
X145000000Y-101000000D01*
G04 #@! TO.N,Net-(C12-Pad1)*
X149485000Y-101000000D02*
X153500000Y-101000000D01*
D26*
G04 #@! TO.N,+10V*
X126550000Y-84595000D02*
X125000000Y-86145000D01*
X127525000Y-84595000D02*
X126550000Y-84595000D01*
X125000000Y-86145000D02*
X125000000Y-87000000D01*
X136500000Y-113500000D02*
X138000000Y-115000000D01*
X123570000Y-115500000D02*
X123595000Y-115475000D01*
X122500000Y-115500000D02*
X123570000Y-115500000D01*
X122500000Y-112025000D02*
X121500000Y-111025000D01*
X122500000Y-115500000D02*
X122500000Y-112025000D01*
X124025000Y-87975000D02*
X125000000Y-87000000D01*
X124025000Y-88500000D02*
X124025000Y-87975000D01*
G04 #@! TO.N,Net-(R1-Pad2)*
X135279990Y-87779990D02*
X128150010Y-87779990D01*
X128150010Y-87779990D02*
X127525000Y-88405000D01*
X135500000Y-88000000D02*
X135279990Y-87779990D01*
X138749990Y-87308160D02*
X139558150Y-86500000D01*
X139558150Y-86500000D02*
X150250000Y-86500000D01*
X137854340Y-89025010D02*
X138749990Y-88129360D01*
X138749990Y-88129360D02*
X138749990Y-87308160D01*
X136525010Y-89025010D02*
X137854340Y-89025010D01*
X135500000Y-88000000D02*
X136525010Y-89025010D01*
G04 #@! TO.N,Net-(R2-Pad2)*
X148374990Y-112875010D02*
X144000012Y-112875010D01*
X142687502Y-111562500D02*
X130500000Y-111562500D01*
X144000012Y-112875010D02*
X142687502Y-111562500D01*
X151000000Y-110250000D02*
X148374990Y-112875010D01*
X129966850Y-115475000D02*
X127405000Y-115475000D01*
X131525010Y-113916840D02*
X129966850Y-115475000D01*
X131525010Y-112587510D02*
X131525010Y-113916840D01*
X130500000Y-111562500D02*
X131525010Y-112587510D01*
G04 #@! TO.N,Net-(R3-Pad1)*
X144400000Y-88000000D02*
X144750000Y-87650000D01*
X141437500Y-88000000D02*
X144400000Y-88000000D01*
G04 #@! TO.N,Net-(R4-Pad1)*
X150337500Y-113937500D02*
X146500000Y-113937500D01*
X152150000Y-115750000D02*
X150337500Y-113937500D01*
G04 #@! TD*
D27*
G04 #@! TO.N,GND*
G36*
X122260750Y-89835000D02*
G01*
X122550000Y-89838072D01*
X122662420Y-89827000D01*
X123587583Y-89827000D01*
X123699999Y-89838072D01*
X124350001Y-89838072D01*
X124462417Y-89827000D01*
X154073000Y-89827000D01*
X154073000Y-91373000D01*
X121727000Y-91373000D01*
X121727000Y-89827000D01*
X122252750Y-89827000D01*
X122260750Y-89835000D01*
G37*
X122260750Y-89835000D02*
X122550000Y-89838072D01*
X122662420Y-89827000D01*
X123587583Y-89827000D01*
X123699999Y-89838072D01*
X124350001Y-89838072D01*
X124462417Y-89827000D01*
X154073000Y-89827000D01*
X154073000Y-91373000D01*
X121727000Y-91373000D01*
X121727000Y-89827000D01*
X122252750Y-89827000D01*
X122260750Y-89835000D01*
G36*
X120165000Y-108689250D02*
G01*
X120323748Y-108847998D01*
X120165000Y-108847998D01*
X120165000Y-108939876D01*
X120139502Y-108855820D01*
X120080537Y-108745506D01*
X120001185Y-108648815D01*
X119904494Y-108569463D01*
X119794180Y-108510498D01*
X119674482Y-108474188D01*
X119550000Y-108461928D01*
X119335750Y-108465000D01*
X119177000Y-108623750D01*
X119177000Y-110873000D01*
X119197000Y-110873000D01*
X119197000Y-111127000D01*
X119177000Y-111127000D01*
X119177000Y-113376250D01*
X119335750Y-113535000D01*
X119550000Y-113538072D01*
X119674482Y-113525812D01*
X119794180Y-113489502D01*
X119904494Y-113430537D01*
X120001185Y-113351185D01*
X120080537Y-113254494D01*
X120139502Y-113144180D01*
X120175812Y-113024482D01*
X120188072Y-112900000D01*
X120186647Y-112151420D01*
X120214564Y-112185436D01*
X120393602Y-112332369D01*
X120597865Y-112441550D01*
X120819503Y-112508783D01*
X121049999Y-112531485D01*
X121448001Y-112531485D01*
X121448000Y-114685892D01*
X121324028Y-114871430D01*
X121223996Y-115112928D01*
X121173000Y-115369302D01*
X121173000Y-115630698D01*
X121223996Y-115887072D01*
X121324028Y-116128570D01*
X121469252Y-116345913D01*
X121654087Y-116530748D01*
X121871430Y-116675972D01*
X122112928Y-116776004D01*
X122369302Y-116827000D01*
X122506309Y-116827000D01*
X122545778Y-116900841D01*
X122680275Y-117064725D01*
X122844159Y-117199222D01*
X123031134Y-117299162D01*
X123234013Y-117360705D01*
X123445000Y-117381485D01*
X123622004Y-117381485D01*
X123569463Y-117445506D01*
X123510498Y-117555820D01*
X123474188Y-117675518D01*
X123461928Y-117800000D01*
X123465000Y-118014250D01*
X123623750Y-118173000D01*
X124366982Y-118173000D01*
X124371430Y-118175972D01*
X124612928Y-118276004D01*
X124869302Y-118327000D01*
X125130698Y-118327000D01*
X125387072Y-118276004D01*
X125628570Y-118175972D01*
X125633018Y-118173000D01*
X125873000Y-118173000D01*
X125873000Y-118153000D01*
X126127000Y-118153000D01*
X126127000Y-118173000D01*
X128376250Y-118173000D01*
X128535000Y-118014250D01*
X128538072Y-117800000D01*
X128525812Y-117675518D01*
X128489502Y-117555820D01*
X128430537Y-117445506D01*
X128351185Y-117348815D01*
X128254494Y-117269463D01*
X128144180Y-117210498D01*
X128138161Y-117208672D01*
X128155841Y-117199222D01*
X128319725Y-117064725D01*
X128454222Y-116900841D01*
X128554162Y-116713866D01*
X128610847Y-116527000D01*
X129915171Y-116527000D01*
X129966850Y-116532090D01*
X130018529Y-116527000D01*
X130173078Y-116511778D01*
X130371381Y-116451624D01*
X130554138Y-116353938D01*
X130714326Y-116222476D01*
X130747281Y-116182321D01*
X132232336Y-114697266D01*
X132272486Y-114664316D01*
X132364779Y-114551856D01*
X132365000Y-114714250D01*
X132523750Y-114873000D01*
X133623000Y-114873000D01*
X133623000Y-114853000D01*
X133877000Y-114853000D01*
X133877000Y-114873000D01*
X134976250Y-114873000D01*
X135135000Y-114714250D01*
X135137861Y-112614500D01*
X135508839Y-112614500D01*
X135469252Y-112654087D01*
X135324028Y-112871430D01*
X135223996Y-113112928D01*
X135173000Y-113369302D01*
X135173000Y-113630698D01*
X135223996Y-113887072D01*
X135324028Y-114128570D01*
X135469252Y-114345913D01*
X135654087Y-114530748D01*
X135871430Y-114675972D01*
X136112928Y-114776004D01*
X136318515Y-114816898D01*
X136318515Y-116548000D01*
X135136720Y-116548000D01*
X135135000Y-115285750D01*
X134976250Y-115127000D01*
X133877000Y-115127000D01*
X133877000Y-115147000D01*
X133623000Y-115147000D01*
X133623000Y-115127000D01*
X132523750Y-115127000D01*
X132365000Y-115285750D01*
X132363280Y-116548000D01*
X131046765Y-116548000D01*
X131000000Y-116543394D01*
X130953235Y-116548000D01*
X130813375Y-116561775D01*
X130633923Y-116616211D01*
X130468538Y-116704611D01*
X130323577Y-116823577D01*
X130204611Y-116968538D01*
X130116211Y-117133923D01*
X130061775Y-117313375D01*
X130043394Y-117500000D01*
X130048001Y-117546775D01*
X130048000Y-118548000D01*
X128497250Y-118548000D01*
X128376250Y-118427000D01*
X126127000Y-118427000D01*
X126127000Y-118447000D01*
X125873000Y-118447000D01*
X125873000Y-118427000D01*
X123623750Y-118427000D01*
X123502750Y-118548000D01*
X122953235Y-118548000D01*
X122911394Y-118552121D01*
X122892774Y-118551991D01*
X122879545Y-118553288D01*
X122535054Y-118589495D01*
X122535000Y-118585750D01*
X122376250Y-118427000D01*
X120852000Y-118427000D01*
X120852000Y-118447000D01*
X120598000Y-118447000D01*
X120598000Y-118427000D01*
X119662420Y-118427000D01*
X119674482Y-118425812D01*
X119794180Y-118389502D01*
X119904494Y-118330537D01*
X120001185Y-118251185D01*
X120065350Y-118173000D01*
X120598000Y-118173000D01*
X120598000Y-117323750D01*
X120852000Y-117323750D01*
X120852000Y-118173000D01*
X122376250Y-118173000D01*
X122535000Y-118014250D01*
X122538072Y-117800000D01*
X122525812Y-117675518D01*
X122489502Y-117555820D01*
X122430537Y-117445506D01*
X122351185Y-117348815D01*
X122254494Y-117269463D01*
X122144180Y-117210498D01*
X122024482Y-117174188D01*
X121900000Y-117161928D01*
X121010750Y-117165000D01*
X120852000Y-117323750D01*
X120598000Y-117323750D01*
X120439250Y-117165000D01*
X120186237Y-117164126D01*
X120185000Y-116735750D01*
X120026250Y-116577000D01*
X119177000Y-116577000D01*
X119177000Y-117284650D01*
X119098815Y-117348815D01*
X119019463Y-117445506D01*
X118960498Y-117555820D01*
X118924188Y-117675518D01*
X118923000Y-117687580D01*
X118923000Y-117342320D01*
X118947456Y-117092900D01*
X118952000Y-117046765D01*
X118952000Y-114623750D01*
X119177000Y-114623750D01*
X119177000Y-116323000D01*
X120026250Y-116323000D01*
X120185000Y-116164250D01*
X120188072Y-115100000D01*
X120175812Y-114975518D01*
X120139502Y-114855820D01*
X120080537Y-114745506D01*
X120001185Y-114648815D01*
X119904494Y-114569463D01*
X119794180Y-114510498D01*
X119674482Y-114474188D01*
X119550000Y-114461928D01*
X119335750Y-114465000D01*
X119177000Y-114623750D01*
X118952000Y-114623750D01*
X118952000Y-108452000D01*
X119953235Y-108452000D01*
X120000000Y-108456606D01*
X120046765Y-108452000D01*
X120162359Y-108440615D01*
X120165000Y-108689250D01*
G37*
X120165000Y-108689250D02*
X120323748Y-108847998D01*
X120165000Y-108847998D01*
X120165000Y-108939876D01*
X120139502Y-108855820D01*
X120080537Y-108745506D01*
X120001185Y-108648815D01*
X119904494Y-108569463D01*
X119794180Y-108510498D01*
X119674482Y-108474188D01*
X119550000Y-108461928D01*
X119335750Y-108465000D01*
X119177000Y-108623750D01*
X119177000Y-110873000D01*
X119197000Y-110873000D01*
X119197000Y-111127000D01*
X119177000Y-111127000D01*
X119177000Y-113376250D01*
X119335750Y-113535000D01*
X119550000Y-113538072D01*
X119674482Y-113525812D01*
X119794180Y-113489502D01*
X119904494Y-113430537D01*
X120001185Y-113351185D01*
X120080537Y-113254494D01*
X120139502Y-113144180D01*
X120175812Y-113024482D01*
X120188072Y-112900000D01*
X120186647Y-112151420D01*
X120214564Y-112185436D01*
X120393602Y-112332369D01*
X120597865Y-112441550D01*
X120819503Y-112508783D01*
X121049999Y-112531485D01*
X121448001Y-112531485D01*
X121448000Y-114685892D01*
X121324028Y-114871430D01*
X121223996Y-115112928D01*
X121173000Y-115369302D01*
X121173000Y-115630698D01*
X121223996Y-115887072D01*
X121324028Y-116128570D01*
X121469252Y-116345913D01*
X121654087Y-116530748D01*
X121871430Y-116675972D01*
X122112928Y-116776004D01*
X122369302Y-116827000D01*
X122506309Y-116827000D01*
X122545778Y-116900841D01*
X122680275Y-117064725D01*
X122844159Y-117199222D01*
X123031134Y-117299162D01*
X123234013Y-117360705D01*
X123445000Y-117381485D01*
X123622004Y-117381485D01*
X123569463Y-117445506D01*
X123510498Y-117555820D01*
X123474188Y-117675518D01*
X123461928Y-117800000D01*
X123465000Y-118014250D01*
X123623750Y-118173000D01*
X124366982Y-118173000D01*
X124371430Y-118175972D01*
X124612928Y-118276004D01*
X124869302Y-118327000D01*
X125130698Y-118327000D01*
X125387072Y-118276004D01*
X125628570Y-118175972D01*
X125633018Y-118173000D01*
X125873000Y-118173000D01*
X125873000Y-118153000D01*
X126127000Y-118153000D01*
X126127000Y-118173000D01*
X128376250Y-118173000D01*
X128535000Y-118014250D01*
X128538072Y-117800000D01*
X128525812Y-117675518D01*
X128489502Y-117555820D01*
X128430537Y-117445506D01*
X128351185Y-117348815D01*
X128254494Y-117269463D01*
X128144180Y-117210498D01*
X128138161Y-117208672D01*
X128155841Y-117199222D01*
X128319725Y-117064725D01*
X128454222Y-116900841D01*
X128554162Y-116713866D01*
X128610847Y-116527000D01*
X129915171Y-116527000D01*
X129966850Y-116532090D01*
X130018529Y-116527000D01*
X130173078Y-116511778D01*
X130371381Y-116451624D01*
X130554138Y-116353938D01*
X130714326Y-116222476D01*
X130747281Y-116182321D01*
X132232336Y-114697266D01*
X132272486Y-114664316D01*
X132364779Y-114551856D01*
X132365000Y-114714250D01*
X132523750Y-114873000D01*
X133623000Y-114873000D01*
X133623000Y-114853000D01*
X133877000Y-114853000D01*
X133877000Y-114873000D01*
X134976250Y-114873000D01*
X135135000Y-114714250D01*
X135137861Y-112614500D01*
X135508839Y-112614500D01*
X135469252Y-112654087D01*
X135324028Y-112871430D01*
X135223996Y-113112928D01*
X135173000Y-113369302D01*
X135173000Y-113630698D01*
X135223996Y-113887072D01*
X135324028Y-114128570D01*
X135469252Y-114345913D01*
X135654087Y-114530748D01*
X135871430Y-114675972D01*
X136112928Y-114776004D01*
X136318515Y-114816898D01*
X136318515Y-116548000D01*
X135136720Y-116548000D01*
X135135000Y-115285750D01*
X134976250Y-115127000D01*
X133877000Y-115127000D01*
X133877000Y-115147000D01*
X133623000Y-115147000D01*
X133623000Y-115127000D01*
X132523750Y-115127000D01*
X132365000Y-115285750D01*
X132363280Y-116548000D01*
X131046765Y-116548000D01*
X131000000Y-116543394D01*
X130953235Y-116548000D01*
X130813375Y-116561775D01*
X130633923Y-116616211D01*
X130468538Y-116704611D01*
X130323577Y-116823577D01*
X130204611Y-116968538D01*
X130116211Y-117133923D01*
X130061775Y-117313375D01*
X130043394Y-117500000D01*
X130048001Y-117546775D01*
X130048000Y-118548000D01*
X128497250Y-118548000D01*
X128376250Y-118427000D01*
X126127000Y-118427000D01*
X126127000Y-118447000D01*
X125873000Y-118447000D01*
X125873000Y-118427000D01*
X123623750Y-118427000D01*
X123502750Y-118548000D01*
X122953235Y-118548000D01*
X122911394Y-118552121D01*
X122892774Y-118551991D01*
X122879545Y-118553288D01*
X122535054Y-118589495D01*
X122535000Y-118585750D01*
X122376250Y-118427000D01*
X120852000Y-118427000D01*
X120852000Y-118447000D01*
X120598000Y-118447000D01*
X120598000Y-118427000D01*
X119662420Y-118427000D01*
X119674482Y-118425812D01*
X119794180Y-118389502D01*
X119904494Y-118330537D01*
X120001185Y-118251185D01*
X120065350Y-118173000D01*
X120598000Y-118173000D01*
X120598000Y-117323750D01*
X120852000Y-117323750D01*
X120852000Y-118173000D01*
X122376250Y-118173000D01*
X122535000Y-118014250D01*
X122538072Y-117800000D01*
X122525812Y-117675518D01*
X122489502Y-117555820D01*
X122430537Y-117445506D01*
X122351185Y-117348815D01*
X122254494Y-117269463D01*
X122144180Y-117210498D01*
X122024482Y-117174188D01*
X121900000Y-117161928D01*
X121010750Y-117165000D01*
X120852000Y-117323750D01*
X120598000Y-117323750D01*
X120439250Y-117165000D01*
X120186237Y-117164126D01*
X120185000Y-116735750D01*
X120026250Y-116577000D01*
X119177000Y-116577000D01*
X119177000Y-117284650D01*
X119098815Y-117348815D01*
X119019463Y-117445506D01*
X118960498Y-117555820D01*
X118924188Y-117675518D01*
X118923000Y-117687580D01*
X118923000Y-117342320D01*
X118947456Y-117092900D01*
X118952000Y-117046765D01*
X118952000Y-114623750D01*
X119177000Y-114623750D01*
X119177000Y-116323000D01*
X120026250Y-116323000D01*
X120185000Y-116164250D01*
X120188072Y-115100000D01*
X120175812Y-114975518D01*
X120139502Y-114855820D01*
X120080537Y-114745506D01*
X120001185Y-114648815D01*
X119904494Y-114569463D01*
X119794180Y-114510498D01*
X119674482Y-114474188D01*
X119550000Y-114461928D01*
X119335750Y-114465000D01*
X119177000Y-114623750D01*
X118952000Y-114623750D01*
X118952000Y-108452000D01*
X119953235Y-108452000D01*
X120000000Y-108456606D01*
X120046765Y-108452000D01*
X120162359Y-108440615D01*
X120165000Y-108689250D01*
G36*
X150185499Y-102267505D02*
G01*
X150301341Y-102408659D01*
X150442495Y-102524501D01*
X150603536Y-102610580D01*
X150778276Y-102663587D01*
X150960000Y-102681485D01*
X155048001Y-102681485D01*
X155048001Y-103863280D01*
X153785750Y-103865000D01*
X153627000Y-104023750D01*
X153627000Y-105123000D01*
X153647000Y-105123000D01*
X153647000Y-105377000D01*
X153627000Y-105377000D01*
X153627000Y-106476250D01*
X153785750Y-106635000D01*
X155048001Y-106636720D01*
X155048001Y-107453225D01*
X155043394Y-107500000D01*
X155061775Y-107686625D01*
X155116211Y-107866077D01*
X155204611Y-108031462D01*
X155323577Y-108176423D01*
X155468538Y-108295389D01*
X155633923Y-108383789D01*
X155813375Y-108438225D01*
X155953235Y-108452000D01*
X156000000Y-108456606D01*
X156046765Y-108452000D01*
X157048000Y-108452000D01*
X157048001Y-117046765D01*
X157052121Y-117088597D01*
X157051991Y-117107226D01*
X157053288Y-117120455D01*
X157077000Y-117346060D01*
X157077000Y-117687580D01*
X157075812Y-117675518D01*
X157039502Y-117555820D01*
X156980537Y-117445506D01*
X156901185Y-117348815D01*
X156823000Y-117284650D01*
X156823000Y-116577000D01*
X155973750Y-116577000D01*
X155815000Y-116735750D01*
X155813763Y-117164126D01*
X155560750Y-117165000D01*
X155402000Y-117323750D01*
X155402000Y-118173000D01*
X155934650Y-118173000D01*
X155998815Y-118251185D01*
X156095506Y-118330537D01*
X156205820Y-118389502D01*
X156325518Y-118425812D01*
X156337580Y-118427000D01*
X155402000Y-118427000D01*
X155402000Y-118447000D01*
X155148000Y-118447000D01*
X155148000Y-118427000D01*
X153623750Y-118427000D01*
X153465000Y-118585750D01*
X153464953Y-118589024D01*
X153093131Y-118552567D01*
X153046765Y-118548000D01*
X152497250Y-118548000D01*
X152376250Y-118427000D01*
X150127000Y-118427000D01*
X150127000Y-118447000D01*
X149873000Y-118447000D01*
X149873000Y-118427000D01*
X147623750Y-118427000D01*
X147502750Y-118548000D01*
X144952000Y-118548000D01*
X144952000Y-117546765D01*
X144956606Y-117500000D01*
X144938225Y-117313375D01*
X144883789Y-117133923D01*
X144795389Y-116968538D01*
X144676423Y-116823577D01*
X144531462Y-116704611D01*
X144366077Y-116616211D01*
X144186625Y-116561775D01*
X144046765Y-116548000D01*
X144000000Y-116543394D01*
X143953235Y-116548000D01*
X143636720Y-116548000D01*
X143635000Y-115285750D01*
X143476250Y-115127000D01*
X142377000Y-115127000D01*
X142377000Y-115147000D01*
X142123000Y-115147000D01*
X142123000Y-115127000D01*
X141023750Y-115127000D01*
X140865000Y-115285750D01*
X140863280Y-116548000D01*
X139681485Y-116548000D01*
X139681485Y-112614500D01*
X140862139Y-112614500D01*
X140865000Y-114714250D01*
X141023750Y-114873000D01*
X142123000Y-114873000D01*
X142123000Y-114853000D01*
X142377000Y-114853000D01*
X142377000Y-114873000D01*
X143476250Y-114873000D01*
X143635000Y-114714250D01*
X143636159Y-113863973D01*
X143704816Y-113884800D01*
X143793783Y-113911788D01*
X144000011Y-113932100D01*
X144051690Y-113927010D01*
X144868515Y-113927010D01*
X144868515Y-114181250D01*
X144891097Y-114410527D01*
X144957974Y-114630993D01*
X145066578Y-114834176D01*
X145212733Y-115012267D01*
X145390824Y-115158422D01*
X145594007Y-115267026D01*
X145814473Y-115333903D01*
X146043750Y-115356485D01*
X146956250Y-115356485D01*
X147185527Y-115333903D01*
X147405993Y-115267026D01*
X147609176Y-115158422D01*
X147787267Y-115012267D01*
X147805951Y-114989500D01*
X148279398Y-114989500D01*
X148268515Y-115100000D01*
X148268515Y-116400000D01*
X148286413Y-116581724D01*
X148339420Y-116756464D01*
X148425499Y-116917505D01*
X148541341Y-117058659D01*
X148668493Y-117163010D01*
X148100000Y-117161928D01*
X147975518Y-117174188D01*
X147855820Y-117210498D01*
X147745506Y-117269463D01*
X147648815Y-117348815D01*
X147569463Y-117445506D01*
X147510498Y-117555820D01*
X147474188Y-117675518D01*
X147461928Y-117800000D01*
X147465000Y-118014250D01*
X147623750Y-118173000D01*
X149873000Y-118173000D01*
X149873000Y-118153000D01*
X150127000Y-118153000D01*
X150127000Y-118173000D01*
X152376250Y-118173000D01*
X152535000Y-118014250D01*
X152538072Y-117800000D01*
X153461928Y-117800000D01*
X153465000Y-118014250D01*
X153623750Y-118173000D01*
X155148000Y-118173000D01*
X155148000Y-117323750D01*
X154989250Y-117165000D01*
X154100000Y-117161928D01*
X153975518Y-117174188D01*
X153855820Y-117210498D01*
X153745506Y-117269463D01*
X153648815Y-117348815D01*
X153569463Y-117445506D01*
X153510498Y-117555820D01*
X153474188Y-117675518D01*
X153461928Y-117800000D01*
X152538072Y-117800000D01*
X152525812Y-117675518D01*
X152489502Y-117555820D01*
X152430537Y-117445506D01*
X152351185Y-117348815D01*
X152330068Y-117331485D01*
X152800000Y-117331485D01*
X152981724Y-117313587D01*
X153156464Y-117260580D01*
X153317505Y-117174501D01*
X153458659Y-117058659D01*
X153574501Y-116917505D01*
X153660580Y-116756464D01*
X153713587Y-116581724D01*
X153731485Y-116400000D01*
X153731485Y-115100000D01*
X155811928Y-115100000D01*
X155815000Y-116164250D01*
X155973750Y-116323000D01*
X156823000Y-116323000D01*
X156823000Y-114623750D01*
X156664250Y-114465000D01*
X156450000Y-114461928D01*
X156325518Y-114474188D01*
X156205820Y-114510498D01*
X156095506Y-114569463D01*
X155998815Y-114648815D01*
X155919463Y-114745506D01*
X155860498Y-114855820D01*
X155824188Y-114975518D01*
X155811928Y-115100000D01*
X153731485Y-115100000D01*
X153713587Y-114918276D01*
X153660580Y-114743536D01*
X153574501Y-114582495D01*
X153458659Y-114441341D01*
X153317505Y-114325499D01*
X153156464Y-114239420D01*
X152981724Y-114186413D01*
X152800000Y-114168515D01*
X152056267Y-114168515D01*
X151117931Y-113230180D01*
X151084976Y-113190024D01*
X150924788Y-113058562D01*
X150742031Y-112960876D01*
X150543728Y-112900722D01*
X150536398Y-112900000D01*
X155811928Y-112900000D01*
X155824188Y-113024482D01*
X155860498Y-113144180D01*
X155919463Y-113254494D01*
X155998815Y-113351185D01*
X156095506Y-113430537D01*
X156205820Y-113489502D01*
X156325518Y-113525812D01*
X156450000Y-113538072D01*
X156664250Y-113535000D01*
X156823000Y-113376250D01*
X156823000Y-111127000D01*
X155973750Y-111127000D01*
X155815000Y-111285750D01*
X155811928Y-112900000D01*
X150536398Y-112900000D01*
X150389179Y-112885500D01*
X150337500Y-112880410D01*
X150285821Y-112885500D01*
X149852252Y-112885500D01*
X150906267Y-111831485D01*
X152000000Y-111831485D01*
X152181724Y-111813587D01*
X152356464Y-111760580D01*
X152517505Y-111674501D01*
X152658659Y-111558659D01*
X152774501Y-111417505D01*
X152860580Y-111256464D01*
X152913587Y-111081724D01*
X152931485Y-110900000D01*
X152931485Y-109600000D01*
X152913587Y-109418276D01*
X152860580Y-109243536D01*
X152783858Y-109100000D01*
X155811928Y-109100000D01*
X155815000Y-110714250D01*
X155973750Y-110873000D01*
X156823000Y-110873000D01*
X156823000Y-108623750D01*
X156664250Y-108465000D01*
X156450000Y-108461928D01*
X156325518Y-108474188D01*
X156205820Y-108510498D01*
X156095506Y-108569463D01*
X155998815Y-108648815D01*
X155919463Y-108745506D01*
X155860498Y-108855820D01*
X155824188Y-108975518D01*
X155811928Y-109100000D01*
X152783858Y-109100000D01*
X152774501Y-109082495D01*
X152658659Y-108941341D01*
X152517505Y-108825499D01*
X152356464Y-108739420D01*
X152181724Y-108686413D01*
X152000000Y-108668515D01*
X150000000Y-108668515D01*
X149818276Y-108686413D01*
X149643536Y-108739420D01*
X149482495Y-108825499D01*
X149341341Y-108941341D01*
X149225499Y-109082495D01*
X149139420Y-109243536D01*
X149086413Y-109418276D01*
X149068515Y-109600000D01*
X149068515Y-110693733D01*
X147939239Y-111823010D01*
X147788740Y-111823010D01*
X147835000Y-111776750D01*
X147838072Y-111575000D01*
X147825812Y-111450518D01*
X147789502Y-111330820D01*
X147730537Y-111220506D01*
X147651185Y-111123815D01*
X147554494Y-111044463D01*
X147444180Y-110985498D01*
X147324482Y-110949188D01*
X147200000Y-110936928D01*
X146785750Y-110940000D01*
X146627000Y-111098750D01*
X146627000Y-111823010D01*
X146373000Y-111823010D01*
X146373000Y-111098750D01*
X146214250Y-110940000D01*
X145800000Y-110936928D01*
X145675518Y-110949188D01*
X145555820Y-110985498D01*
X145445506Y-111044463D01*
X145348815Y-111123815D01*
X145269463Y-111220506D01*
X145210498Y-111330820D01*
X145174188Y-111450518D01*
X145161928Y-111575000D01*
X145165000Y-111776750D01*
X145211260Y-111823010D01*
X144435765Y-111823010D01*
X143467932Y-110855179D01*
X143434978Y-110815024D01*
X143274790Y-110683562D01*
X143092033Y-110585876D01*
X142893730Y-110525722D01*
X142816372Y-110518103D01*
X142825812Y-110486982D01*
X142838072Y-110362500D01*
X142835000Y-110160750D01*
X142686750Y-110012500D01*
X143386928Y-110012500D01*
X143399188Y-110136982D01*
X143435498Y-110256680D01*
X143494463Y-110366994D01*
X143573815Y-110463685D01*
X143670506Y-110543037D01*
X143780820Y-110602002D01*
X143900518Y-110638312D01*
X144025000Y-110650572D01*
X144214250Y-110647500D01*
X144373000Y-110488750D01*
X144373000Y-109702000D01*
X144627000Y-109702000D01*
X144627000Y-110488750D01*
X144785750Y-110647500D01*
X144975000Y-110650572D01*
X145099482Y-110638312D01*
X145219180Y-110602002D01*
X145329494Y-110543037D01*
X145426185Y-110463685D01*
X145505537Y-110366994D01*
X145564502Y-110256680D01*
X145600812Y-110136982D01*
X145613072Y-110012500D01*
X145610000Y-109860750D01*
X145451250Y-109702000D01*
X144627000Y-109702000D01*
X144373000Y-109702000D01*
X143548750Y-109702000D01*
X143390000Y-109860750D01*
X143386928Y-110012500D01*
X142686750Y-110012500D01*
X142676250Y-110002000D01*
X141627000Y-110002000D01*
X141627000Y-110022000D01*
X141373000Y-110022000D01*
X141373000Y-110002000D01*
X140323750Y-110002000D01*
X140165000Y-110160750D01*
X140161928Y-110362500D01*
X140174188Y-110486982D01*
X140181322Y-110510500D01*
X139369141Y-110510500D01*
X139426185Y-110463685D01*
X139505537Y-110366994D01*
X139564502Y-110256680D01*
X139600812Y-110136982D01*
X139613072Y-110012500D01*
X139610000Y-109860750D01*
X139451250Y-109702000D01*
X138627000Y-109702000D01*
X138627000Y-109722000D01*
X138373000Y-109722000D01*
X138373000Y-109702000D01*
X137548750Y-109702000D01*
X137390000Y-109860750D01*
X137386928Y-110012500D01*
X137399188Y-110136982D01*
X137435498Y-110256680D01*
X137494463Y-110366994D01*
X137573815Y-110463685D01*
X137630859Y-110510500D01*
X136869141Y-110510500D01*
X136926185Y-110463685D01*
X137005537Y-110366994D01*
X137064502Y-110256680D01*
X137100812Y-110136982D01*
X137113072Y-110012500D01*
X137110000Y-109860750D01*
X136951250Y-109702000D01*
X136127000Y-109702000D01*
X136127000Y-109722000D01*
X135873000Y-109722000D01*
X135873000Y-109702000D01*
X135048750Y-109702000D01*
X134890000Y-109860750D01*
X134886928Y-110012500D01*
X134899188Y-110136982D01*
X134935498Y-110256680D01*
X134994463Y-110366994D01*
X135073815Y-110463685D01*
X135130859Y-110510500D01*
X131805951Y-110510500D01*
X131787267Y-110487733D01*
X131661437Y-110384467D01*
X132943904Y-109102000D01*
X134890424Y-109102000D01*
X134886928Y-109137500D01*
X134890000Y-109289250D01*
X135048750Y-109448000D01*
X135873000Y-109448000D01*
X135873000Y-109428000D01*
X136127000Y-109428000D01*
X136127000Y-109448000D01*
X136951250Y-109448000D01*
X137110000Y-109289250D01*
X137113072Y-109137500D01*
X137109576Y-109102000D01*
X137390424Y-109102000D01*
X137386928Y-109137500D01*
X137390000Y-109289250D01*
X137548750Y-109448000D01*
X138373000Y-109448000D01*
X138373000Y-109428000D01*
X138627000Y-109428000D01*
X138627000Y-109448000D01*
X139451250Y-109448000D01*
X139610000Y-109289250D01*
X139613072Y-109137500D01*
X139609576Y-109102000D01*
X140232584Y-109102000D01*
X140210498Y-109143320D01*
X140174188Y-109263018D01*
X140161928Y-109387500D01*
X140165000Y-109589250D01*
X140323750Y-109748000D01*
X141373000Y-109748000D01*
X141373000Y-109728000D01*
X141627000Y-109728000D01*
X141627000Y-109748000D01*
X142676250Y-109748000D01*
X142835000Y-109589250D01*
X142838072Y-109387500D01*
X142825812Y-109263018D01*
X142789502Y-109143320D01*
X142767416Y-109102000D01*
X143390424Y-109102000D01*
X143386928Y-109137500D01*
X143390000Y-109289250D01*
X143548750Y-109448000D01*
X144373000Y-109448000D01*
X144373000Y-109428000D01*
X144627000Y-109428000D01*
X144627000Y-109448000D01*
X145451250Y-109448000D01*
X145610000Y-109289250D01*
X145613072Y-109137500D01*
X145609576Y-109102000D01*
X145779863Y-109102000D01*
X145834000Y-109107332D01*
X145888137Y-109102000D01*
X146050030Y-109086055D01*
X146257758Y-109023041D01*
X146449201Y-108920713D01*
X146617002Y-108783002D01*
X146651514Y-108740949D01*
X148039978Y-107352485D01*
X148429000Y-107352485D01*
X148610724Y-107334587D01*
X148785464Y-107281580D01*
X148946505Y-107195501D01*
X149087659Y-107079659D01*
X149203501Y-106938505D01*
X149289580Y-106777464D01*
X149342587Y-106602724D01*
X149360485Y-106421000D01*
X149360485Y-106000000D01*
X150321928Y-106000000D01*
X150334188Y-106124482D01*
X150370498Y-106244180D01*
X150429463Y-106354494D01*
X150508815Y-106451185D01*
X150605506Y-106530537D01*
X150715820Y-106589502D01*
X150835518Y-106625812D01*
X150960000Y-106638072D01*
X153214250Y-106635000D01*
X153373000Y-106476250D01*
X153373000Y-105377000D01*
X150483750Y-105377000D01*
X150325000Y-105535750D01*
X150321928Y-106000000D01*
X149360485Y-106000000D01*
X149360485Y-105659000D01*
X149342587Y-105477276D01*
X149289580Y-105302536D01*
X149203501Y-105141495D01*
X149087659Y-105000341D01*
X148946505Y-104884499D01*
X148785464Y-104798420D01*
X148691776Y-104770000D01*
X148785464Y-104741580D01*
X148946505Y-104655501D01*
X149087659Y-104539659D01*
X149120206Y-104500000D01*
X150321928Y-104500000D01*
X150325000Y-104964250D01*
X150483750Y-105123000D01*
X153373000Y-105123000D01*
X153373000Y-104023750D01*
X153214250Y-103865000D01*
X150960000Y-103861928D01*
X150835518Y-103874188D01*
X150715820Y-103910498D01*
X150605506Y-103969463D01*
X150508815Y-104048815D01*
X150429463Y-104145506D01*
X150370498Y-104255820D01*
X150334188Y-104375518D01*
X150321928Y-104500000D01*
X149120206Y-104500000D01*
X149203501Y-104398505D01*
X149289580Y-104237464D01*
X149342587Y-104062724D01*
X149360485Y-103881000D01*
X149360485Y-103119000D01*
X149342587Y-102937276D01*
X149289580Y-102762536D01*
X149203501Y-102601495D01*
X149087659Y-102460341D01*
X148946505Y-102344499D01*
X148785464Y-102258420D01*
X148738068Y-102244042D01*
X148873000Y-102230753D01*
X149000000Y-102192228D01*
X149127000Y-102230753D01*
X149337500Y-102251485D01*
X149632500Y-102251485D01*
X149843000Y-102230753D01*
X150045410Y-102169352D01*
X150113563Y-102132923D01*
X150185499Y-102267505D01*
G37*
X150185499Y-102267505D02*
X150301341Y-102408659D01*
X150442495Y-102524501D01*
X150603536Y-102610580D01*
X150778276Y-102663587D01*
X150960000Y-102681485D01*
X155048001Y-102681485D01*
X155048001Y-103863280D01*
X153785750Y-103865000D01*
X153627000Y-104023750D01*
X153627000Y-105123000D01*
X153647000Y-105123000D01*
X153647000Y-105377000D01*
X153627000Y-105377000D01*
X153627000Y-106476250D01*
X153785750Y-106635000D01*
X155048001Y-106636720D01*
X155048001Y-107453225D01*
X155043394Y-107500000D01*
X155061775Y-107686625D01*
X155116211Y-107866077D01*
X155204611Y-108031462D01*
X155323577Y-108176423D01*
X155468538Y-108295389D01*
X155633923Y-108383789D01*
X155813375Y-108438225D01*
X155953235Y-108452000D01*
X156000000Y-108456606D01*
X156046765Y-108452000D01*
X157048000Y-108452000D01*
X157048001Y-117046765D01*
X157052121Y-117088597D01*
X157051991Y-117107226D01*
X157053288Y-117120455D01*
X157077000Y-117346060D01*
X157077000Y-117687580D01*
X157075812Y-117675518D01*
X157039502Y-117555820D01*
X156980537Y-117445506D01*
X156901185Y-117348815D01*
X156823000Y-117284650D01*
X156823000Y-116577000D01*
X155973750Y-116577000D01*
X155815000Y-116735750D01*
X155813763Y-117164126D01*
X155560750Y-117165000D01*
X155402000Y-117323750D01*
X155402000Y-118173000D01*
X155934650Y-118173000D01*
X155998815Y-118251185D01*
X156095506Y-118330537D01*
X156205820Y-118389502D01*
X156325518Y-118425812D01*
X156337580Y-118427000D01*
X155402000Y-118427000D01*
X155402000Y-118447000D01*
X155148000Y-118447000D01*
X155148000Y-118427000D01*
X153623750Y-118427000D01*
X153465000Y-118585750D01*
X153464953Y-118589024D01*
X153093131Y-118552567D01*
X153046765Y-118548000D01*
X152497250Y-118548000D01*
X152376250Y-118427000D01*
X150127000Y-118427000D01*
X150127000Y-118447000D01*
X149873000Y-118447000D01*
X149873000Y-118427000D01*
X147623750Y-118427000D01*
X147502750Y-118548000D01*
X144952000Y-118548000D01*
X144952000Y-117546765D01*
X144956606Y-117500000D01*
X144938225Y-117313375D01*
X144883789Y-117133923D01*
X144795389Y-116968538D01*
X144676423Y-116823577D01*
X144531462Y-116704611D01*
X144366077Y-116616211D01*
X144186625Y-116561775D01*
X144046765Y-116548000D01*
X144000000Y-116543394D01*
X143953235Y-116548000D01*
X143636720Y-116548000D01*
X143635000Y-115285750D01*
X143476250Y-115127000D01*
X142377000Y-115127000D01*
X142377000Y-115147000D01*
X142123000Y-115147000D01*
X142123000Y-115127000D01*
X141023750Y-115127000D01*
X140865000Y-115285750D01*
X140863280Y-116548000D01*
X139681485Y-116548000D01*
X139681485Y-112614500D01*
X140862139Y-112614500D01*
X140865000Y-114714250D01*
X141023750Y-114873000D01*
X142123000Y-114873000D01*
X142123000Y-114853000D01*
X142377000Y-114853000D01*
X142377000Y-114873000D01*
X143476250Y-114873000D01*
X143635000Y-114714250D01*
X143636159Y-113863973D01*
X143704816Y-113884800D01*
X143793783Y-113911788D01*
X144000011Y-113932100D01*
X144051690Y-113927010D01*
X144868515Y-113927010D01*
X144868515Y-114181250D01*
X144891097Y-114410527D01*
X144957974Y-114630993D01*
X145066578Y-114834176D01*
X145212733Y-115012267D01*
X145390824Y-115158422D01*
X145594007Y-115267026D01*
X145814473Y-115333903D01*
X146043750Y-115356485D01*
X146956250Y-115356485D01*
X147185527Y-115333903D01*
X147405993Y-115267026D01*
X147609176Y-115158422D01*
X147787267Y-115012267D01*
X147805951Y-114989500D01*
X148279398Y-114989500D01*
X148268515Y-115100000D01*
X148268515Y-116400000D01*
X148286413Y-116581724D01*
X148339420Y-116756464D01*
X148425499Y-116917505D01*
X148541341Y-117058659D01*
X148668493Y-117163010D01*
X148100000Y-117161928D01*
X147975518Y-117174188D01*
X147855820Y-117210498D01*
X147745506Y-117269463D01*
X147648815Y-117348815D01*
X147569463Y-117445506D01*
X147510498Y-117555820D01*
X147474188Y-117675518D01*
X147461928Y-117800000D01*
X147465000Y-118014250D01*
X147623750Y-118173000D01*
X149873000Y-118173000D01*
X149873000Y-118153000D01*
X150127000Y-118153000D01*
X150127000Y-118173000D01*
X152376250Y-118173000D01*
X152535000Y-118014250D01*
X152538072Y-117800000D01*
X153461928Y-117800000D01*
X153465000Y-118014250D01*
X153623750Y-118173000D01*
X155148000Y-118173000D01*
X155148000Y-117323750D01*
X154989250Y-117165000D01*
X154100000Y-117161928D01*
X153975518Y-117174188D01*
X153855820Y-117210498D01*
X153745506Y-117269463D01*
X153648815Y-117348815D01*
X153569463Y-117445506D01*
X153510498Y-117555820D01*
X153474188Y-117675518D01*
X153461928Y-117800000D01*
X152538072Y-117800000D01*
X152525812Y-117675518D01*
X152489502Y-117555820D01*
X152430537Y-117445506D01*
X152351185Y-117348815D01*
X152330068Y-117331485D01*
X152800000Y-117331485D01*
X152981724Y-117313587D01*
X153156464Y-117260580D01*
X153317505Y-117174501D01*
X153458659Y-117058659D01*
X153574501Y-116917505D01*
X153660580Y-116756464D01*
X153713587Y-116581724D01*
X153731485Y-116400000D01*
X153731485Y-115100000D01*
X155811928Y-115100000D01*
X155815000Y-116164250D01*
X155973750Y-116323000D01*
X156823000Y-116323000D01*
X156823000Y-114623750D01*
X156664250Y-114465000D01*
X156450000Y-114461928D01*
X156325518Y-114474188D01*
X156205820Y-114510498D01*
X156095506Y-114569463D01*
X155998815Y-114648815D01*
X155919463Y-114745506D01*
X155860498Y-114855820D01*
X155824188Y-114975518D01*
X155811928Y-115100000D01*
X153731485Y-115100000D01*
X153713587Y-114918276D01*
X153660580Y-114743536D01*
X153574501Y-114582495D01*
X153458659Y-114441341D01*
X153317505Y-114325499D01*
X153156464Y-114239420D01*
X152981724Y-114186413D01*
X152800000Y-114168515D01*
X152056267Y-114168515D01*
X151117931Y-113230180D01*
X151084976Y-113190024D01*
X150924788Y-113058562D01*
X150742031Y-112960876D01*
X150543728Y-112900722D01*
X150536398Y-112900000D01*
X155811928Y-112900000D01*
X155824188Y-113024482D01*
X155860498Y-113144180D01*
X155919463Y-113254494D01*
X155998815Y-113351185D01*
X156095506Y-113430537D01*
X156205820Y-113489502D01*
X156325518Y-113525812D01*
X156450000Y-113538072D01*
X156664250Y-113535000D01*
X156823000Y-113376250D01*
X156823000Y-111127000D01*
X155973750Y-111127000D01*
X155815000Y-111285750D01*
X155811928Y-112900000D01*
X150536398Y-112900000D01*
X150389179Y-112885500D01*
X150337500Y-112880410D01*
X150285821Y-112885500D01*
X149852252Y-112885500D01*
X150906267Y-111831485D01*
X152000000Y-111831485D01*
X152181724Y-111813587D01*
X152356464Y-111760580D01*
X152517505Y-111674501D01*
X152658659Y-111558659D01*
X152774501Y-111417505D01*
X152860580Y-111256464D01*
X152913587Y-111081724D01*
X152931485Y-110900000D01*
X152931485Y-109600000D01*
X152913587Y-109418276D01*
X152860580Y-109243536D01*
X152783858Y-109100000D01*
X155811928Y-109100000D01*
X155815000Y-110714250D01*
X155973750Y-110873000D01*
X156823000Y-110873000D01*
X156823000Y-108623750D01*
X156664250Y-108465000D01*
X156450000Y-108461928D01*
X156325518Y-108474188D01*
X156205820Y-108510498D01*
X156095506Y-108569463D01*
X155998815Y-108648815D01*
X155919463Y-108745506D01*
X155860498Y-108855820D01*
X155824188Y-108975518D01*
X155811928Y-109100000D01*
X152783858Y-109100000D01*
X152774501Y-109082495D01*
X152658659Y-108941341D01*
X152517505Y-108825499D01*
X152356464Y-108739420D01*
X152181724Y-108686413D01*
X152000000Y-108668515D01*
X150000000Y-108668515D01*
X149818276Y-108686413D01*
X149643536Y-108739420D01*
X149482495Y-108825499D01*
X149341341Y-108941341D01*
X149225499Y-109082495D01*
X149139420Y-109243536D01*
X149086413Y-109418276D01*
X149068515Y-109600000D01*
X149068515Y-110693733D01*
X147939239Y-111823010D01*
X147788740Y-111823010D01*
X147835000Y-111776750D01*
X147838072Y-111575000D01*
X147825812Y-111450518D01*
X147789502Y-111330820D01*
X147730537Y-111220506D01*
X147651185Y-111123815D01*
X147554494Y-111044463D01*
X147444180Y-110985498D01*
X147324482Y-110949188D01*
X147200000Y-110936928D01*
X146785750Y-110940000D01*
X146627000Y-111098750D01*
X146627000Y-111823010D01*
X146373000Y-111823010D01*
X146373000Y-111098750D01*
X146214250Y-110940000D01*
X145800000Y-110936928D01*
X145675518Y-110949188D01*
X145555820Y-110985498D01*
X145445506Y-111044463D01*
X145348815Y-111123815D01*
X145269463Y-111220506D01*
X145210498Y-111330820D01*
X145174188Y-111450518D01*
X145161928Y-111575000D01*
X145165000Y-111776750D01*
X145211260Y-111823010D01*
X144435765Y-111823010D01*
X143467932Y-110855179D01*
X143434978Y-110815024D01*
X143274790Y-110683562D01*
X143092033Y-110585876D01*
X142893730Y-110525722D01*
X142816372Y-110518103D01*
X142825812Y-110486982D01*
X142838072Y-110362500D01*
X142835000Y-110160750D01*
X142686750Y-110012500D01*
X143386928Y-110012500D01*
X143399188Y-110136982D01*
X143435498Y-110256680D01*
X143494463Y-110366994D01*
X143573815Y-110463685D01*
X143670506Y-110543037D01*
X143780820Y-110602002D01*
X143900518Y-110638312D01*
X144025000Y-110650572D01*
X144214250Y-110647500D01*
X144373000Y-110488750D01*
X144373000Y-109702000D01*
X144627000Y-109702000D01*
X144627000Y-110488750D01*
X144785750Y-110647500D01*
X144975000Y-110650572D01*
X145099482Y-110638312D01*
X145219180Y-110602002D01*
X145329494Y-110543037D01*
X145426185Y-110463685D01*
X145505537Y-110366994D01*
X145564502Y-110256680D01*
X145600812Y-110136982D01*
X145613072Y-110012500D01*
X145610000Y-109860750D01*
X145451250Y-109702000D01*
X144627000Y-109702000D01*
X144373000Y-109702000D01*
X143548750Y-109702000D01*
X143390000Y-109860750D01*
X143386928Y-110012500D01*
X142686750Y-110012500D01*
X142676250Y-110002000D01*
X141627000Y-110002000D01*
X141627000Y-110022000D01*
X141373000Y-110022000D01*
X141373000Y-110002000D01*
X140323750Y-110002000D01*
X140165000Y-110160750D01*
X140161928Y-110362500D01*
X140174188Y-110486982D01*
X140181322Y-110510500D01*
X139369141Y-110510500D01*
X139426185Y-110463685D01*
X139505537Y-110366994D01*
X139564502Y-110256680D01*
X139600812Y-110136982D01*
X139613072Y-110012500D01*
X139610000Y-109860750D01*
X139451250Y-109702000D01*
X138627000Y-109702000D01*
X138627000Y-109722000D01*
X138373000Y-109722000D01*
X138373000Y-109702000D01*
X137548750Y-109702000D01*
X137390000Y-109860750D01*
X137386928Y-110012500D01*
X137399188Y-110136982D01*
X137435498Y-110256680D01*
X137494463Y-110366994D01*
X137573815Y-110463685D01*
X137630859Y-110510500D01*
X136869141Y-110510500D01*
X136926185Y-110463685D01*
X137005537Y-110366994D01*
X137064502Y-110256680D01*
X137100812Y-110136982D01*
X137113072Y-110012500D01*
X137110000Y-109860750D01*
X136951250Y-109702000D01*
X136127000Y-109702000D01*
X136127000Y-109722000D01*
X135873000Y-109722000D01*
X135873000Y-109702000D01*
X135048750Y-109702000D01*
X134890000Y-109860750D01*
X134886928Y-110012500D01*
X134899188Y-110136982D01*
X134935498Y-110256680D01*
X134994463Y-110366994D01*
X135073815Y-110463685D01*
X135130859Y-110510500D01*
X131805951Y-110510500D01*
X131787267Y-110487733D01*
X131661437Y-110384467D01*
X132943904Y-109102000D01*
X134890424Y-109102000D01*
X134886928Y-109137500D01*
X134890000Y-109289250D01*
X135048750Y-109448000D01*
X135873000Y-109448000D01*
X135873000Y-109428000D01*
X136127000Y-109428000D01*
X136127000Y-109448000D01*
X136951250Y-109448000D01*
X137110000Y-109289250D01*
X137113072Y-109137500D01*
X137109576Y-109102000D01*
X137390424Y-109102000D01*
X137386928Y-109137500D01*
X137390000Y-109289250D01*
X137548750Y-109448000D01*
X138373000Y-109448000D01*
X138373000Y-109428000D01*
X138627000Y-109428000D01*
X138627000Y-109448000D01*
X139451250Y-109448000D01*
X139610000Y-109289250D01*
X139613072Y-109137500D01*
X139609576Y-109102000D01*
X140232584Y-109102000D01*
X140210498Y-109143320D01*
X140174188Y-109263018D01*
X140161928Y-109387500D01*
X140165000Y-109589250D01*
X140323750Y-109748000D01*
X141373000Y-109748000D01*
X141373000Y-109728000D01*
X141627000Y-109728000D01*
X141627000Y-109748000D01*
X142676250Y-109748000D01*
X142835000Y-109589250D01*
X142838072Y-109387500D01*
X142825812Y-109263018D01*
X142789502Y-109143320D01*
X142767416Y-109102000D01*
X143390424Y-109102000D01*
X143386928Y-109137500D01*
X143390000Y-109289250D01*
X143548750Y-109448000D01*
X144373000Y-109448000D01*
X144373000Y-109428000D01*
X144627000Y-109428000D01*
X144627000Y-109448000D01*
X145451250Y-109448000D01*
X145610000Y-109289250D01*
X145613072Y-109137500D01*
X145609576Y-109102000D01*
X145779863Y-109102000D01*
X145834000Y-109107332D01*
X145888137Y-109102000D01*
X146050030Y-109086055D01*
X146257758Y-109023041D01*
X146449201Y-108920713D01*
X146617002Y-108783002D01*
X146651514Y-108740949D01*
X148039978Y-107352485D01*
X148429000Y-107352485D01*
X148610724Y-107334587D01*
X148785464Y-107281580D01*
X148946505Y-107195501D01*
X149087659Y-107079659D01*
X149203501Y-106938505D01*
X149289580Y-106777464D01*
X149342587Y-106602724D01*
X149360485Y-106421000D01*
X149360485Y-106000000D01*
X150321928Y-106000000D01*
X150334188Y-106124482D01*
X150370498Y-106244180D01*
X150429463Y-106354494D01*
X150508815Y-106451185D01*
X150605506Y-106530537D01*
X150715820Y-106589502D01*
X150835518Y-106625812D01*
X150960000Y-106638072D01*
X153214250Y-106635000D01*
X153373000Y-106476250D01*
X153373000Y-105377000D01*
X150483750Y-105377000D01*
X150325000Y-105535750D01*
X150321928Y-106000000D01*
X149360485Y-106000000D01*
X149360485Y-105659000D01*
X149342587Y-105477276D01*
X149289580Y-105302536D01*
X149203501Y-105141495D01*
X149087659Y-105000341D01*
X148946505Y-104884499D01*
X148785464Y-104798420D01*
X148691776Y-104770000D01*
X148785464Y-104741580D01*
X148946505Y-104655501D01*
X149087659Y-104539659D01*
X149120206Y-104500000D01*
X150321928Y-104500000D01*
X150325000Y-104964250D01*
X150483750Y-105123000D01*
X153373000Y-105123000D01*
X153373000Y-104023750D01*
X153214250Y-103865000D01*
X150960000Y-103861928D01*
X150835518Y-103874188D01*
X150715820Y-103910498D01*
X150605506Y-103969463D01*
X150508815Y-104048815D01*
X150429463Y-104145506D01*
X150370498Y-104255820D01*
X150334188Y-104375518D01*
X150321928Y-104500000D01*
X149120206Y-104500000D01*
X149203501Y-104398505D01*
X149289580Y-104237464D01*
X149342587Y-104062724D01*
X149360485Y-103881000D01*
X149360485Y-103119000D01*
X149342587Y-102937276D01*
X149289580Y-102762536D01*
X149203501Y-102601495D01*
X149087659Y-102460341D01*
X148946505Y-102344499D01*
X148785464Y-102258420D01*
X148738068Y-102244042D01*
X148873000Y-102230753D01*
X149000000Y-102192228D01*
X149127000Y-102230753D01*
X149337500Y-102251485D01*
X149632500Y-102251485D01*
X149843000Y-102230753D01*
X150045410Y-102169352D01*
X150113563Y-102132923D01*
X150185499Y-102267505D01*
G36*
X157077000Y-118276250D02*
G01*
X157097000Y-118296250D01*
X157097000Y-118427000D01*
X157077000Y-118427000D01*
X157077000Y-118577750D01*
X156926250Y-118427000D01*
X156672250Y-118427000D01*
X156823000Y-118276250D01*
X156823000Y-118173000D01*
X156926250Y-118173000D01*
X157077000Y-118022250D01*
X157077000Y-118276250D01*
G37*
X157077000Y-118276250D02*
X157097000Y-118296250D01*
X157097000Y-118427000D01*
X157077000Y-118427000D01*
X157077000Y-118577750D01*
X156926250Y-118427000D01*
X156672250Y-118427000D01*
X156823000Y-118276250D01*
X156823000Y-118173000D01*
X156926250Y-118173000D01*
X157077000Y-118022250D01*
X157077000Y-118276250D01*
G36*
X119073750Y-118173000D02*
G01*
X119177000Y-118173000D01*
X119177000Y-118276250D01*
X119327750Y-118427000D01*
X119073750Y-118427000D01*
X118923000Y-118577750D01*
X118923000Y-118427000D01*
X118903000Y-118427000D01*
X118903000Y-118296250D01*
X118923000Y-118276250D01*
X118923000Y-118022250D01*
X119073750Y-118173000D01*
G37*
X119073750Y-118173000D02*
X119177000Y-118173000D01*
X119177000Y-118276250D01*
X119327750Y-118427000D01*
X119073750Y-118427000D01*
X118923000Y-118577750D01*
X118923000Y-118427000D01*
X118903000Y-118427000D01*
X118903000Y-118296250D01*
X118923000Y-118276250D01*
X118923000Y-118022250D01*
X119073750Y-118173000D01*
G36*
X123461928Y-67200000D02*
G01*
X123465000Y-67414250D01*
X123623750Y-67573000D01*
X125873000Y-67573000D01*
X125873000Y-67553000D01*
X126127000Y-67553000D01*
X126127000Y-67573000D01*
X128376250Y-67573000D01*
X128535000Y-67414250D01*
X128538072Y-67200000D01*
X128530882Y-67127000D01*
X129469118Y-67127000D01*
X129461928Y-67200000D01*
X129465000Y-67414250D01*
X129623750Y-67573000D01*
X131873000Y-67573000D01*
X131873000Y-67553000D01*
X132127000Y-67553000D01*
X132127000Y-67573000D01*
X134376250Y-67573000D01*
X134535000Y-67414250D01*
X134538072Y-67200000D01*
X134530882Y-67127000D01*
X135469118Y-67127000D01*
X135461928Y-67200000D01*
X135465000Y-67414250D01*
X135623750Y-67573000D01*
X137873000Y-67573000D01*
X137873000Y-67553000D01*
X138127000Y-67553000D01*
X138127000Y-67573000D01*
X140376250Y-67573000D01*
X140535000Y-67414250D01*
X140538072Y-67200000D01*
X140530882Y-67127000D01*
X141469118Y-67127000D01*
X141461928Y-67200000D01*
X141465000Y-67414250D01*
X141623750Y-67573000D01*
X143873000Y-67573000D01*
X143873000Y-67553000D01*
X144127000Y-67553000D01*
X144127000Y-67573000D01*
X146376250Y-67573000D01*
X146535000Y-67414250D01*
X146538072Y-67200000D01*
X146530882Y-67127000D01*
X147469118Y-67127000D01*
X147461928Y-67200000D01*
X147465000Y-67414250D01*
X147623750Y-67573000D01*
X149873000Y-67573000D01*
X149873000Y-67553000D01*
X150127000Y-67553000D01*
X150127000Y-67573000D01*
X152376250Y-67573000D01*
X152535000Y-67414250D01*
X152538072Y-67200000D01*
X152530882Y-67127000D01*
X153469118Y-67127000D01*
X153461928Y-67200000D01*
X153465000Y-67414250D01*
X153623750Y-67573000D01*
X155148000Y-67573000D01*
X155148000Y-67553000D01*
X155402000Y-67553000D01*
X155402000Y-67573000D01*
X156337580Y-67573000D01*
X156325518Y-67574188D01*
X156205820Y-67610498D01*
X156095506Y-67669463D01*
X155998815Y-67748815D01*
X155934650Y-67827000D01*
X155402000Y-67827000D01*
X155402000Y-68676250D01*
X155560750Y-68835000D01*
X155813763Y-68835874D01*
X155815000Y-69264250D01*
X155973750Y-69423000D01*
X156823000Y-69423000D01*
X156823000Y-68715350D01*
X156901185Y-68651185D01*
X156980537Y-68554494D01*
X157039502Y-68444180D01*
X157075812Y-68324482D01*
X157077000Y-68312420D01*
X157077000Y-68657681D01*
X157052544Y-68907100D01*
X157052544Y-68907109D01*
X157048001Y-68953235D01*
X157048000Y-71548000D01*
X156046765Y-71548000D01*
X156000000Y-71543394D01*
X155953235Y-71548000D01*
X155813375Y-71561775D01*
X155633923Y-71616211D01*
X155468538Y-71704611D01*
X155323577Y-71823577D01*
X155204611Y-71968538D01*
X155116211Y-72133923D01*
X155061775Y-72313375D01*
X155043394Y-72500000D01*
X155048000Y-72546764D01*
X155048000Y-73363280D01*
X153785750Y-73365000D01*
X153627000Y-73523750D01*
X153627000Y-74623000D01*
X153647000Y-74623000D01*
X153647000Y-74877000D01*
X153627000Y-74877000D01*
X153627000Y-75976250D01*
X153785750Y-76135000D01*
X155048000Y-76136720D01*
X155048000Y-77318515D01*
X150960000Y-77318515D01*
X150778276Y-77336413D01*
X150603536Y-77389420D01*
X150442495Y-77475499D01*
X150301341Y-77591341D01*
X150185499Y-77732495D01*
X150099420Y-77893536D01*
X150098066Y-77898000D01*
X145171416Y-77898000D01*
X145045410Y-77830648D01*
X144843000Y-77769247D01*
X144632500Y-77748515D01*
X144337500Y-77748515D01*
X144127000Y-77769247D01*
X144000000Y-77807772D01*
X143873000Y-77769247D01*
X143662500Y-77748515D01*
X143367500Y-77748515D01*
X143157000Y-77769247D01*
X142954590Y-77830648D01*
X142828584Y-77898000D01*
X138759514Y-77898000D01*
X138724501Y-77832495D01*
X138608659Y-77691341D01*
X138467505Y-77575499D01*
X138306464Y-77489420D01*
X138131724Y-77436413D01*
X137950000Y-77418515D01*
X137050000Y-77418515D01*
X136868276Y-77436413D01*
X136693536Y-77489420D01*
X136532495Y-77575499D01*
X136391341Y-77691341D01*
X136275499Y-77832495D01*
X136189420Y-77993536D01*
X136136413Y-78168276D01*
X136118515Y-78350000D01*
X136118515Y-79567357D01*
X136090499Y-79601495D01*
X136004420Y-79762536D01*
X135951413Y-79937276D01*
X135933515Y-80119000D01*
X135933515Y-80881000D01*
X135951413Y-81062724D01*
X136004420Y-81237464D01*
X136090499Y-81398505D01*
X136206341Y-81539659D01*
X136347495Y-81655501D01*
X136508536Y-81741580D01*
X136602224Y-81770000D01*
X136508536Y-81798420D01*
X136347495Y-81884499D01*
X136206341Y-82000341D01*
X136090499Y-82141495D01*
X136004420Y-82302536D01*
X135951413Y-82477276D01*
X135933515Y-82659000D01*
X135933515Y-83421000D01*
X135951413Y-83602724D01*
X136004420Y-83777464D01*
X136090499Y-83938505D01*
X136206341Y-84079659D01*
X136347495Y-84195501D01*
X136422246Y-84235456D01*
X136397998Y-84280820D01*
X136361688Y-84400518D01*
X136349428Y-84525000D01*
X136352500Y-84714250D01*
X136511250Y-84873000D01*
X137298000Y-84873000D01*
X137298000Y-84853000D01*
X137552000Y-84853000D01*
X137552000Y-84873000D01*
X137568536Y-84873000D01*
X137298000Y-85143537D01*
X137298000Y-85127000D01*
X136511250Y-85127000D01*
X136352500Y-85285750D01*
X136349428Y-85475000D01*
X136361688Y-85599482D01*
X136397998Y-85719180D01*
X136456963Y-85829494D01*
X136460199Y-85833437D01*
X136354127Y-85822990D01*
X136299990Y-85817658D01*
X136245853Y-85822990D01*
X134381485Y-85822990D01*
X134381485Y-85715000D01*
X134360705Y-85504013D01*
X134299162Y-85301134D01*
X134261140Y-85230000D01*
X134299162Y-85158866D01*
X134360705Y-84955987D01*
X134381485Y-84745000D01*
X134381485Y-84445000D01*
X134360705Y-84234013D01*
X134299162Y-84031134D01*
X134199222Y-83844159D01*
X134064725Y-83680275D01*
X133900841Y-83545778D01*
X133713866Y-83445838D01*
X133510987Y-83384295D01*
X133300000Y-83363515D01*
X131650000Y-83363515D01*
X131439013Y-83384295D01*
X131236134Y-83445838D01*
X131049159Y-83545778D01*
X130885275Y-83680275D01*
X130750778Y-83844159D01*
X130650838Y-84031134D01*
X130589295Y-84234013D01*
X130568515Y-84445000D01*
X130568515Y-84745000D01*
X130570288Y-84763000D01*
X129429712Y-84763000D01*
X129431485Y-84745000D01*
X129431485Y-84445000D01*
X129410705Y-84234013D01*
X129349162Y-84031134D01*
X129249222Y-83844159D01*
X129114725Y-83680275D01*
X128950841Y-83545778D01*
X128763866Y-83445838D01*
X128560987Y-83384295D01*
X128350000Y-83363515D01*
X126700000Y-83363515D01*
X126489013Y-83384295D01*
X126286134Y-83445838D01*
X126155118Y-83515868D01*
X126016250Y-83377000D01*
X123127000Y-83377000D01*
X123127000Y-84476250D01*
X123285750Y-84635000D01*
X125019885Y-84637363D01*
X124292679Y-85364569D01*
X124252524Y-85397524D01*
X124121062Y-85557712D01*
X124032182Y-85723996D01*
X124023376Y-85740470D01*
X123963222Y-85938773D01*
X123942910Y-86145000D01*
X123947074Y-86187278D01*
X123824028Y-86371430D01*
X123723996Y-86612928D01*
X123680462Y-86831786D01*
X123637586Y-86874662D01*
X123469503Y-86891217D01*
X123247865Y-86958450D01*
X123043602Y-87067631D01*
X122864564Y-87214564D01*
X122845422Y-87237888D01*
X122794180Y-87210498D01*
X122674482Y-87174188D01*
X122550000Y-87161928D01*
X122260750Y-87165000D01*
X122102000Y-87323750D01*
X122102000Y-88373000D01*
X122122000Y-88373000D01*
X122122000Y-88627000D01*
X122102000Y-88627000D01*
X122102000Y-89676250D01*
X122260750Y-89835000D01*
X122550000Y-89838072D01*
X122674482Y-89825812D01*
X122794180Y-89789502D01*
X122845422Y-89762112D01*
X122864564Y-89785436D01*
X123043602Y-89932369D01*
X123247865Y-90041550D01*
X123469503Y-90108783D01*
X123699999Y-90131485D01*
X124350001Y-90131485D01*
X124580497Y-90108783D01*
X124802135Y-90041550D01*
X125006398Y-89932369D01*
X125185436Y-89785436D01*
X125332369Y-89606398D01*
X125441550Y-89402135D01*
X125508783Y-89180497D01*
X125531485Y-88950001D01*
X125531485Y-88216186D01*
X125626202Y-88176953D01*
X125618515Y-88255000D01*
X125618515Y-88555000D01*
X125639295Y-88765987D01*
X125700838Y-88968866D01*
X125800778Y-89155841D01*
X125935275Y-89319725D01*
X126099159Y-89454222D01*
X126286134Y-89554162D01*
X126489013Y-89615705D01*
X126700000Y-89636485D01*
X128350000Y-89636485D01*
X128560987Y-89615705D01*
X128763866Y-89554162D01*
X128950841Y-89454222D01*
X129114725Y-89319725D01*
X129249222Y-89155841D01*
X129349162Y-88968866D01*
X129390683Y-88831990D01*
X130609317Y-88831990D01*
X130650838Y-88968866D01*
X130750778Y-89155841D01*
X130885275Y-89319725D01*
X131049159Y-89454222D01*
X131236134Y-89554162D01*
X131439013Y-89615705D01*
X131650000Y-89636485D01*
X133300000Y-89636485D01*
X133510987Y-89615705D01*
X133713866Y-89554162D01*
X133900841Y-89454222D01*
X134064725Y-89319725D01*
X134199222Y-89155841D01*
X134251621Y-89057808D01*
X134279078Y-89109176D01*
X134425233Y-89287267D01*
X134603324Y-89433422D01*
X134806507Y-89542026D01*
X135026973Y-89608903D01*
X135256250Y-89631485D01*
X135643733Y-89631485D01*
X135744584Y-89732335D01*
X135777534Y-89772486D01*
X135937722Y-89903948D01*
X136120479Y-90001634D01*
X136318782Y-90061788D01*
X136525009Y-90082100D01*
X136576688Y-90077010D01*
X137802661Y-90077010D01*
X137854340Y-90082100D01*
X137906019Y-90077010D01*
X138060568Y-90061788D01*
X138258871Y-90001634D01*
X138441628Y-89903948D01*
X138601816Y-89772486D01*
X138634770Y-89732331D01*
X139033152Y-89333950D01*
X139075000Y-89338072D01*
X139276750Y-89335000D01*
X139435500Y-89176250D01*
X139435500Y-88931603D01*
X139457321Y-88909782D01*
X139497466Y-88876836D01*
X139628928Y-88716648D01*
X139689500Y-88603326D01*
X139689500Y-89176250D01*
X139848250Y-89335000D01*
X140050000Y-89338072D01*
X140174482Y-89325812D01*
X140294180Y-89289502D01*
X140343105Y-89263350D01*
X140362733Y-89287267D01*
X140540824Y-89433422D01*
X140744007Y-89542026D01*
X140964473Y-89608903D01*
X141193750Y-89631485D01*
X141681250Y-89631485D01*
X141910527Y-89608903D01*
X142130993Y-89542026D01*
X142334176Y-89433422D01*
X142512267Y-89287267D01*
X142658422Y-89109176D01*
X142688983Y-89052000D01*
X143555077Y-89052000D01*
X143582495Y-89074501D01*
X143743536Y-89160580D01*
X143918276Y-89213587D01*
X144100000Y-89231485D01*
X145400000Y-89231485D01*
X145581724Y-89213587D01*
X145756464Y-89160580D01*
X145917505Y-89074501D01*
X146058659Y-88958659D01*
X146174501Y-88817505D01*
X146260580Y-88656464D01*
X146313587Y-88481724D01*
X146331485Y-88300000D01*
X146331485Y-87552000D01*
X148673636Y-87552000D01*
X148686413Y-87681724D01*
X148739420Y-87856464D01*
X148825499Y-88017505D01*
X148941341Y-88158659D01*
X149082495Y-88274501D01*
X149243536Y-88360580D01*
X149418276Y-88413587D01*
X149600000Y-88431485D01*
X150900000Y-88431485D01*
X151081724Y-88413587D01*
X151256464Y-88360580D01*
X151268115Y-88354353D01*
X151292315Y-88412777D01*
X151503201Y-88728391D01*
X151771609Y-88996799D01*
X152087223Y-89207685D01*
X152437915Y-89352947D01*
X152810207Y-89427000D01*
X153189793Y-89427000D01*
X153562085Y-89352947D01*
X153912777Y-89207685D01*
X154228391Y-88996799D01*
X154325190Y-88900000D01*
X155811928Y-88900000D01*
X155824188Y-89024482D01*
X155860498Y-89144180D01*
X155919463Y-89254494D01*
X155998815Y-89351185D01*
X156095506Y-89430537D01*
X156205820Y-89489502D01*
X156325518Y-89525812D01*
X156450000Y-89538072D01*
X156664250Y-89535000D01*
X156823000Y-89376250D01*
X156823000Y-87127000D01*
X155973750Y-87127000D01*
X155815000Y-87285750D01*
X155811928Y-88900000D01*
X154325190Y-88900000D01*
X154496799Y-88728391D01*
X154707685Y-88412777D01*
X154852947Y-88062085D01*
X154927000Y-87689793D01*
X154927000Y-87310207D01*
X154852947Y-86937915D01*
X154707685Y-86587223D01*
X154496799Y-86271609D01*
X154228391Y-86003201D01*
X153912777Y-85792315D01*
X153562085Y-85647053D01*
X153210605Y-85577140D01*
X152269752Y-84636287D01*
X153214250Y-84635000D01*
X153373000Y-84476250D01*
X153373000Y-83377000D01*
X153353000Y-83377000D01*
X153353000Y-83123000D01*
X153373000Y-83123000D01*
X153373000Y-82023750D01*
X153214250Y-81865000D01*
X150960000Y-81861928D01*
X150835518Y-81874188D01*
X150715820Y-81910498D01*
X150605506Y-81969463D01*
X150508815Y-82048815D01*
X150429463Y-82145506D01*
X150370498Y-82255820D01*
X150334188Y-82375518D01*
X150321928Y-82500000D01*
X150323264Y-82701939D01*
X150265213Y-82654297D01*
X150073770Y-82551969D01*
X149866042Y-82488955D01*
X149704149Y-82473010D01*
X149650012Y-82467678D01*
X149595875Y-82473010D01*
X145997500Y-82473010D01*
X145997500Y-82372998D01*
X145838752Y-82372998D01*
X145997500Y-82214250D01*
X146000572Y-81800000D01*
X145988312Y-81675518D01*
X145952002Y-81555820D01*
X145893037Y-81445506D01*
X145813685Y-81348815D01*
X145716994Y-81269463D01*
X145606680Y-81210498D01*
X145486982Y-81174188D01*
X145362500Y-81161928D01*
X145160750Y-81165000D01*
X145002000Y-81323750D01*
X145002000Y-82373000D01*
X145022000Y-82373000D01*
X145022000Y-82473010D01*
X144728000Y-82473010D01*
X144728000Y-82373000D01*
X144748000Y-82373000D01*
X144748000Y-81323750D01*
X144589250Y-81165000D01*
X144387500Y-81161928D01*
X144263018Y-81174188D01*
X144143320Y-81210498D01*
X144094395Y-81236650D01*
X144074767Y-81212733D01*
X143896676Y-81066578D01*
X143693493Y-80957974D01*
X143473027Y-80891097D01*
X143243750Y-80868515D01*
X142756250Y-80868515D01*
X142526973Y-80891097D01*
X142306507Y-80957974D01*
X142103324Y-81066578D01*
X141925233Y-81212733D01*
X141779078Y-81390824D01*
X141775242Y-81398000D01*
X141703771Y-81398000D01*
X141789580Y-81237464D01*
X141842587Y-81062724D01*
X141860485Y-80881000D01*
X141860485Y-80119000D01*
X141858811Y-80102000D01*
X142828584Y-80102000D01*
X142954590Y-80169352D01*
X143157000Y-80230753D01*
X143367500Y-80251485D01*
X143662500Y-80251485D01*
X143873000Y-80230753D01*
X144000000Y-80192228D01*
X144127000Y-80230753D01*
X144337500Y-80251485D01*
X144632500Y-80251485D01*
X144843000Y-80230753D01*
X145045410Y-80169352D01*
X145171416Y-80102000D01*
X150098066Y-80102000D01*
X150099420Y-80106464D01*
X150185499Y-80267505D01*
X150301341Y-80408659D01*
X150442495Y-80524501D01*
X150603536Y-80610580D01*
X150778276Y-80663587D01*
X150960000Y-80681485D01*
X155048001Y-80681485D01*
X155048001Y-81863280D01*
X153785750Y-81865000D01*
X153627000Y-82023750D01*
X153627000Y-83123000D01*
X153647000Y-83123000D01*
X153647000Y-83377000D01*
X153627000Y-83377000D01*
X153627000Y-84476250D01*
X153785750Y-84635000D01*
X155048001Y-84636720D01*
X155048001Y-85453225D01*
X155043394Y-85500000D01*
X155061775Y-85686625D01*
X155116211Y-85866077D01*
X155204611Y-86031462D01*
X155323577Y-86176423D01*
X155468538Y-86295389D01*
X155633923Y-86383789D01*
X155813375Y-86438225D01*
X155814475Y-86438333D01*
X155815000Y-86714250D01*
X155973750Y-86873000D01*
X156823000Y-86873000D01*
X156823000Y-86853000D01*
X157048000Y-86853000D01*
X157048001Y-93147000D01*
X156823000Y-93147000D01*
X156823000Y-93127000D01*
X155973750Y-93127000D01*
X155815000Y-93285750D01*
X155814475Y-93561667D01*
X155813375Y-93561775D01*
X155633923Y-93616211D01*
X155468538Y-93704611D01*
X155323577Y-93823577D01*
X155204611Y-93968538D01*
X155116211Y-94133923D01*
X155061775Y-94313375D01*
X155043394Y-94500000D01*
X155048000Y-94546765D01*
X155048000Y-95363280D01*
X153785750Y-95365000D01*
X153627000Y-95523750D01*
X153627000Y-96623000D01*
X153647000Y-96623000D01*
X153647000Y-96877000D01*
X153627000Y-96877000D01*
X153627000Y-97976250D01*
X153785750Y-98135000D01*
X155048000Y-98136720D01*
X155048000Y-99318515D01*
X150960000Y-99318515D01*
X150778276Y-99336413D01*
X150603536Y-99389420D01*
X150442495Y-99475499D01*
X150301341Y-99591341D01*
X150185499Y-99732495D01*
X150113563Y-99867077D01*
X150045410Y-99830648D01*
X149843000Y-99769247D01*
X149632500Y-99748515D01*
X149337500Y-99748515D01*
X149127000Y-99769247D01*
X149000000Y-99807772D01*
X148873000Y-99769247D01*
X148662500Y-99748515D01*
X148367500Y-99748515D01*
X148157000Y-99769247D01*
X147954590Y-99830648D01*
X147828584Y-99898000D01*
X146259514Y-99898000D01*
X146224501Y-99832495D01*
X146108659Y-99691341D01*
X145967505Y-99575499D01*
X145806464Y-99489420D01*
X145631724Y-99436413D01*
X145450000Y-99418515D01*
X144550000Y-99418515D01*
X144368276Y-99436413D01*
X144193536Y-99489420D01*
X144032495Y-99575499D01*
X143891341Y-99691341D01*
X143775499Y-99832495D01*
X143689420Y-99993536D01*
X143636413Y-100168276D01*
X143618515Y-100350000D01*
X143618515Y-101650000D01*
X143636413Y-101831724D01*
X143689420Y-102006464D01*
X143775499Y-102167505D01*
X143891341Y-102308659D01*
X143898000Y-102314124D01*
X143898000Y-102317503D01*
X143847495Y-102344499D01*
X143706341Y-102460341D01*
X143590499Y-102601495D01*
X143504420Y-102762536D01*
X143451413Y-102937276D01*
X143433515Y-103119000D01*
X143433515Y-103881000D01*
X143451413Y-104062724D01*
X143504420Y-104237464D01*
X143590499Y-104398505D01*
X143706341Y-104539659D01*
X143847495Y-104655501D01*
X144008536Y-104741580D01*
X144102224Y-104770000D01*
X144008536Y-104798420D01*
X143847495Y-104884499D01*
X143706341Y-105000341D01*
X143590499Y-105141495D01*
X143504420Y-105302536D01*
X143451413Y-105477276D01*
X143433515Y-105659000D01*
X143433515Y-106421000D01*
X143451413Y-106602724D01*
X143504420Y-106777464D01*
X143552612Y-106867624D01*
X143515598Y-106898000D01*
X142754083Y-106898000D01*
X142609176Y-106779078D01*
X142405993Y-106670474D01*
X142185527Y-106603597D01*
X141956250Y-106581015D01*
X141043750Y-106581015D01*
X140814473Y-106603597D01*
X140594007Y-106670474D01*
X140390824Y-106779078D01*
X140245917Y-106898000D01*
X139484402Y-106898000D01*
X139395286Y-106824865D01*
X139196426Y-106718571D01*
X138980650Y-106653116D01*
X138756250Y-106631015D01*
X138243750Y-106631015D01*
X138019350Y-106653116D01*
X137803574Y-106718571D01*
X137735591Y-106754909D01*
X137806501Y-106668505D01*
X137892580Y-106507464D01*
X137945587Y-106332724D01*
X137963485Y-106151000D01*
X137963485Y-105389000D01*
X137945587Y-105207276D01*
X137892580Y-105032536D01*
X137806501Y-104871495D01*
X137690659Y-104730341D01*
X137549505Y-104614499D01*
X137388464Y-104528420D01*
X137294776Y-104500000D01*
X137388464Y-104471580D01*
X137549505Y-104385501D01*
X137690659Y-104269659D01*
X137806501Y-104128505D01*
X137892580Y-103967464D01*
X137945587Y-103792724D01*
X137963485Y-103611000D01*
X137963485Y-102849000D01*
X137945587Y-102667276D01*
X137892580Y-102492536D01*
X137806501Y-102331495D01*
X137731020Y-102239520D01*
X137852500Y-102251485D01*
X138147500Y-102251485D01*
X138358000Y-102230753D01*
X138485000Y-102192228D01*
X138612000Y-102230753D01*
X138822500Y-102251485D01*
X139117500Y-102251485D01*
X139328000Y-102230753D01*
X139530410Y-102169352D01*
X139656416Y-102102000D01*
X140740486Y-102102000D01*
X140775499Y-102167505D01*
X140891341Y-102308659D01*
X141032495Y-102424501D01*
X141193536Y-102510580D01*
X141368276Y-102563587D01*
X141550000Y-102581485D01*
X142450000Y-102581485D01*
X142631724Y-102563587D01*
X142806464Y-102510580D01*
X142967505Y-102424501D01*
X143108659Y-102308659D01*
X143224501Y-102167505D01*
X143310580Y-102006464D01*
X143363587Y-101831724D01*
X143381485Y-101650000D01*
X143381485Y-100350000D01*
X143363587Y-100168276D01*
X143310580Y-99993536D01*
X143224501Y-99832495D01*
X143108659Y-99691341D01*
X142967505Y-99575499D01*
X142806464Y-99489420D01*
X142631724Y-99436413D01*
X142450000Y-99418515D01*
X141550000Y-99418515D01*
X141368276Y-99436413D01*
X141193536Y-99489420D01*
X141032495Y-99575499D01*
X140891341Y-99691341D01*
X140775499Y-99832495D01*
X140740486Y-99898000D01*
X139656416Y-99898000D01*
X139530410Y-99830648D01*
X139328000Y-99769247D01*
X139117500Y-99748515D01*
X138822500Y-99748515D01*
X138612000Y-99769247D01*
X138485000Y-99807772D01*
X138358000Y-99769247D01*
X138147500Y-99748515D01*
X137852500Y-99748515D01*
X137642000Y-99769247D01*
X137439590Y-99830648D01*
X137313584Y-99898000D01*
X134759514Y-99898000D01*
X134724501Y-99832495D01*
X134608659Y-99691341D01*
X134467505Y-99575499D01*
X134306464Y-99489420D01*
X134131724Y-99436413D01*
X133950000Y-99418515D01*
X133050000Y-99418515D01*
X132868276Y-99436413D01*
X132693536Y-99489420D01*
X132532495Y-99575499D01*
X132391341Y-99691341D01*
X132275499Y-99832495D01*
X132189420Y-99993536D01*
X132136413Y-100168276D01*
X132118515Y-100350000D01*
X132118515Y-101650000D01*
X132136413Y-101831724D01*
X132189420Y-102006464D01*
X132275499Y-102167505D01*
X132301791Y-102199541D01*
X132193499Y-102331495D01*
X132107420Y-102492536D01*
X132054413Y-102667276D01*
X132036515Y-102849000D01*
X132036515Y-103611000D01*
X132054413Y-103792724D01*
X132107420Y-103967464D01*
X132193499Y-104128505D01*
X132309341Y-104269659D01*
X132450495Y-104385501D01*
X132611536Y-104471580D01*
X132705224Y-104500000D01*
X132611536Y-104528420D01*
X132450495Y-104614499D01*
X132309341Y-104730341D01*
X132193499Y-104871495D01*
X132107420Y-105032536D01*
X132054413Y-105207276D01*
X132036515Y-105389000D01*
X132036515Y-106151000D01*
X132054413Y-106332724D01*
X132107420Y-106507464D01*
X132193499Y-106668505D01*
X132309341Y-106809659D01*
X132418733Y-106899435D01*
X132271410Y-106913945D01*
X132063682Y-106976959D01*
X131872239Y-107079287D01*
X131781583Y-107153686D01*
X131750443Y-107179243D01*
X131704438Y-107216998D01*
X131669930Y-107259046D01*
X128684041Y-110244936D01*
X128641988Y-110279448D01*
X128636485Y-110286153D01*
X128636485Y-109700000D01*
X128615705Y-109489013D01*
X128554162Y-109286134D01*
X128454222Y-109099159D01*
X128319725Y-108935275D01*
X128155841Y-108800778D01*
X127968866Y-108700838D01*
X127765987Y-108639295D01*
X127555000Y-108618515D01*
X127255000Y-108618515D01*
X127044013Y-108639295D01*
X126841134Y-108700838D01*
X126770000Y-108738860D01*
X126698866Y-108700838D01*
X126495987Y-108639295D01*
X126285000Y-108618515D01*
X125985000Y-108618515D01*
X125774013Y-108639295D01*
X125571134Y-108700838D01*
X125500000Y-108738860D01*
X125428866Y-108700838D01*
X125225987Y-108639295D01*
X125015000Y-108618515D01*
X124715000Y-108618515D01*
X124504013Y-108639295D01*
X124301134Y-108700838D01*
X124230000Y-108738860D01*
X124158866Y-108700838D01*
X123955987Y-108639295D01*
X123745000Y-108618515D01*
X123445000Y-108618515D01*
X123234013Y-108639295D01*
X123031134Y-108700838D01*
X122844159Y-108800778D01*
X122786622Y-108847998D01*
X122676252Y-108847998D01*
X122835000Y-108689250D01*
X122838072Y-108400000D01*
X122825812Y-108275518D01*
X122789502Y-108155820D01*
X122730537Y-108045506D01*
X122651185Y-107948815D01*
X122554494Y-107869463D01*
X122444180Y-107810498D01*
X122324482Y-107774188D01*
X122200000Y-107761928D01*
X121785750Y-107765000D01*
X121627000Y-107923750D01*
X121627000Y-108848000D01*
X121647000Y-108848000D01*
X121647000Y-109102000D01*
X121627000Y-109102000D01*
X121627000Y-109122000D01*
X121373000Y-109122000D01*
X121373000Y-109102000D01*
X121353000Y-109102000D01*
X121353000Y-108848000D01*
X121373000Y-108848000D01*
X121373000Y-107923750D01*
X121214250Y-107765000D01*
X120915123Y-107762782D01*
X120938225Y-107686625D01*
X120956606Y-107500000D01*
X120952000Y-107453235D01*
X120952000Y-106637402D01*
X122714250Y-106635000D01*
X122873000Y-106476250D01*
X122873000Y-105377000D01*
X123127000Y-105377000D01*
X123127000Y-106476250D01*
X123285750Y-106635000D01*
X125540000Y-106638072D01*
X125664482Y-106625812D01*
X125784180Y-106589502D01*
X125894494Y-106530537D01*
X125991185Y-106451185D01*
X126070537Y-106354494D01*
X126129502Y-106244180D01*
X126165812Y-106124482D01*
X126178072Y-106000000D01*
X126175000Y-105535750D01*
X126016250Y-105377000D01*
X123127000Y-105377000D01*
X122873000Y-105377000D01*
X122853000Y-105377000D01*
X122853000Y-105123000D01*
X122873000Y-105123000D01*
X122873000Y-104023750D01*
X123127000Y-104023750D01*
X123127000Y-105123000D01*
X126016250Y-105123000D01*
X126175000Y-104964250D01*
X126178072Y-104500000D01*
X126165812Y-104375518D01*
X126129502Y-104255820D01*
X126070537Y-104145506D01*
X125991185Y-104048815D01*
X125894494Y-103969463D01*
X125784180Y-103910498D01*
X125664482Y-103874188D01*
X125540000Y-103861928D01*
X123285750Y-103865000D01*
X123127000Y-104023750D01*
X122873000Y-104023750D01*
X122714250Y-103865000D01*
X120952000Y-103862598D01*
X120952000Y-102681485D01*
X125540000Y-102681485D01*
X125721724Y-102663587D01*
X125896464Y-102610580D01*
X126057505Y-102524501D01*
X126198659Y-102408659D01*
X126314501Y-102267505D01*
X126386437Y-102132923D01*
X126454590Y-102169352D01*
X126657000Y-102230753D01*
X126867500Y-102251485D01*
X127162500Y-102251485D01*
X127373000Y-102230753D01*
X127500000Y-102192228D01*
X127627000Y-102230753D01*
X127837500Y-102251485D01*
X128132500Y-102251485D01*
X128343000Y-102230753D01*
X128545410Y-102169352D01*
X128671416Y-102102000D01*
X129240486Y-102102000D01*
X129275499Y-102167505D01*
X129391341Y-102308659D01*
X129532495Y-102424501D01*
X129693536Y-102510580D01*
X129868276Y-102563587D01*
X130050000Y-102581485D01*
X130950000Y-102581485D01*
X131131724Y-102563587D01*
X131306464Y-102510580D01*
X131467505Y-102424501D01*
X131608659Y-102308659D01*
X131724501Y-102167505D01*
X131810580Y-102006464D01*
X131863587Y-101831724D01*
X131881485Y-101650000D01*
X131881485Y-100350000D01*
X131863587Y-100168276D01*
X131810580Y-99993536D01*
X131724501Y-99832495D01*
X131608659Y-99691341D01*
X131467505Y-99575499D01*
X131306464Y-99489420D01*
X131131724Y-99436413D01*
X130950000Y-99418515D01*
X130050000Y-99418515D01*
X129868276Y-99436413D01*
X129693536Y-99489420D01*
X129532495Y-99575499D01*
X129391341Y-99691341D01*
X129275499Y-99832495D01*
X129240486Y-99898000D01*
X128671416Y-99898000D01*
X128545410Y-99830648D01*
X128343000Y-99769247D01*
X128132500Y-99748515D01*
X127837500Y-99748515D01*
X127627000Y-99769247D01*
X127500000Y-99807772D01*
X127373000Y-99769247D01*
X127162500Y-99748515D01*
X126867500Y-99748515D01*
X126657000Y-99769247D01*
X126454590Y-99830648D01*
X126386437Y-99867077D01*
X126314501Y-99732495D01*
X126198659Y-99591341D01*
X126057505Y-99475499D01*
X125896464Y-99389420D01*
X125721724Y-99336413D01*
X125540000Y-99318515D01*
X120952000Y-99318515D01*
X120952000Y-98137402D01*
X122714250Y-98135000D01*
X122873000Y-97976250D01*
X122873000Y-96877000D01*
X123127000Y-96877000D01*
X123127000Y-97976250D01*
X123285750Y-98135000D01*
X125540000Y-98138072D01*
X125664482Y-98125812D01*
X125784180Y-98089502D01*
X125894494Y-98030537D01*
X125991185Y-97951185D01*
X126070537Y-97854494D01*
X126129502Y-97744180D01*
X126165812Y-97624482D01*
X126178072Y-97500000D01*
X150321928Y-97500000D01*
X150334188Y-97624482D01*
X150370498Y-97744180D01*
X150429463Y-97854494D01*
X150508815Y-97951185D01*
X150605506Y-98030537D01*
X150715820Y-98089502D01*
X150835518Y-98125812D01*
X150960000Y-98138072D01*
X153214250Y-98135000D01*
X153373000Y-97976250D01*
X153373000Y-96877000D01*
X150483750Y-96877000D01*
X150325000Y-97035750D01*
X150321928Y-97500000D01*
X126178072Y-97500000D01*
X126175000Y-97035750D01*
X126016250Y-96877000D01*
X123127000Y-96877000D01*
X122873000Y-96877000D01*
X122853000Y-96877000D01*
X122853000Y-96623000D01*
X122873000Y-96623000D01*
X122873000Y-95523750D01*
X123127000Y-95523750D01*
X123127000Y-96623000D01*
X126016250Y-96623000D01*
X126175000Y-96464250D01*
X126178072Y-96000000D01*
X150321928Y-96000000D01*
X150325000Y-96464250D01*
X150483750Y-96623000D01*
X153373000Y-96623000D01*
X153373000Y-95523750D01*
X153214250Y-95365000D01*
X150960000Y-95361928D01*
X150835518Y-95374188D01*
X150715820Y-95410498D01*
X150605506Y-95469463D01*
X150508815Y-95548815D01*
X150429463Y-95645506D01*
X150370498Y-95755820D01*
X150334188Y-95875518D01*
X150321928Y-96000000D01*
X126178072Y-96000000D01*
X126165812Y-95875518D01*
X126129502Y-95755820D01*
X126070537Y-95645506D01*
X125991185Y-95548815D01*
X125894494Y-95469463D01*
X125784180Y-95410498D01*
X125664482Y-95374188D01*
X125540000Y-95361928D01*
X123285750Y-95365000D01*
X123127000Y-95523750D01*
X122873000Y-95523750D01*
X122714250Y-95365000D01*
X120952000Y-95362598D01*
X120952000Y-94546765D01*
X120956606Y-94500000D01*
X120938225Y-94313375D01*
X120883789Y-94133923D01*
X120795389Y-93968538D01*
X120676423Y-93823577D01*
X120531462Y-93704611D01*
X120366077Y-93616211D01*
X120186625Y-93561775D01*
X120185525Y-93561667D01*
X120185000Y-93285750D01*
X120026250Y-93127000D01*
X119177000Y-93127000D01*
X119177000Y-93147000D01*
X118952000Y-93147000D01*
X118952000Y-90623750D01*
X119177000Y-90623750D01*
X119177000Y-92873000D01*
X120026250Y-92873000D01*
X120185000Y-92714250D01*
X120188072Y-91100000D01*
X155811928Y-91100000D01*
X155815000Y-92714250D01*
X155973750Y-92873000D01*
X156823000Y-92873000D01*
X156823000Y-90623750D01*
X156664250Y-90465000D01*
X156450000Y-90461928D01*
X156325518Y-90474188D01*
X156205820Y-90510498D01*
X156095506Y-90569463D01*
X155998815Y-90648815D01*
X155919463Y-90745506D01*
X155860498Y-90855820D01*
X155824188Y-90975518D01*
X155811928Y-91100000D01*
X120188072Y-91100000D01*
X120175812Y-90975518D01*
X120139502Y-90855820D01*
X120080537Y-90745506D01*
X120001185Y-90648815D01*
X119904494Y-90569463D01*
X119794180Y-90510498D01*
X119674482Y-90474188D01*
X119550000Y-90461928D01*
X119335750Y-90465000D01*
X119177000Y-90623750D01*
X118952000Y-90623750D01*
X118952000Y-87127000D01*
X119177000Y-87127000D01*
X119177000Y-89376250D01*
X119335750Y-89535000D01*
X119550000Y-89538072D01*
X119674482Y-89525812D01*
X119794180Y-89489502D01*
X119904494Y-89430537D01*
X120001185Y-89351185D01*
X120080537Y-89254494D01*
X120109665Y-89200000D01*
X120761928Y-89200000D01*
X120774188Y-89324482D01*
X120810498Y-89444180D01*
X120869463Y-89554494D01*
X120948815Y-89651185D01*
X121045506Y-89730537D01*
X121155820Y-89789502D01*
X121275518Y-89825812D01*
X121400000Y-89838072D01*
X121689250Y-89835000D01*
X121848000Y-89676250D01*
X121848000Y-88627000D01*
X120923750Y-88627000D01*
X120765000Y-88785750D01*
X120761928Y-89200000D01*
X120109665Y-89200000D01*
X120139502Y-89144180D01*
X120175812Y-89024482D01*
X120188072Y-88900000D01*
X120185979Y-87800000D01*
X120761928Y-87800000D01*
X120765000Y-88214250D01*
X120923750Y-88373000D01*
X121848000Y-88373000D01*
X121848000Y-87323750D01*
X121689250Y-87165000D01*
X121400000Y-87161928D01*
X121275518Y-87174188D01*
X121155820Y-87210498D01*
X121045506Y-87269463D01*
X120948815Y-87348815D01*
X120869463Y-87445506D01*
X120810498Y-87555820D01*
X120774188Y-87675518D01*
X120761928Y-87800000D01*
X120185979Y-87800000D01*
X120185000Y-87285750D01*
X120026250Y-87127000D01*
X119177000Y-87127000D01*
X118952000Y-87127000D01*
X118952000Y-86853000D01*
X119177000Y-86853000D01*
X119177000Y-86873000D01*
X120026250Y-86873000D01*
X120185000Y-86714250D01*
X120185525Y-86438333D01*
X120186625Y-86438225D01*
X120366077Y-86383789D01*
X120531462Y-86295389D01*
X120676423Y-86176423D01*
X120795389Y-86031462D01*
X120883789Y-85866077D01*
X120938225Y-85686625D01*
X120956606Y-85500000D01*
X120952000Y-85453235D01*
X120952000Y-84637402D01*
X122714250Y-84635000D01*
X122873000Y-84476250D01*
X122873000Y-83377000D01*
X122853000Y-83377000D01*
X122853000Y-83123000D01*
X122873000Y-83123000D01*
X122873000Y-82023750D01*
X123127000Y-82023750D01*
X123127000Y-83123000D01*
X126016250Y-83123000D01*
X126175000Y-82964250D01*
X126178072Y-82500000D01*
X126165812Y-82375518D01*
X126129502Y-82255820D01*
X126070537Y-82145506D01*
X125991185Y-82048815D01*
X125894494Y-81969463D01*
X125784180Y-81910498D01*
X125664482Y-81874188D01*
X125540000Y-81861928D01*
X123285750Y-81865000D01*
X123127000Y-82023750D01*
X122873000Y-82023750D01*
X122714250Y-81865000D01*
X120952000Y-81862598D01*
X120952000Y-80681485D01*
X125540000Y-80681485D01*
X125721724Y-80663587D01*
X125896464Y-80610580D01*
X126057505Y-80524501D01*
X126198659Y-80408659D01*
X126314501Y-80267505D01*
X126400580Y-80106464D01*
X126401934Y-80102000D01*
X129328584Y-80102000D01*
X129454590Y-80169352D01*
X129657000Y-80230753D01*
X129867500Y-80251485D01*
X130162500Y-80251485D01*
X130373000Y-80230753D01*
X130500000Y-80192228D01*
X130627000Y-80230753D01*
X130837500Y-80251485D01*
X131132500Y-80251485D01*
X131343000Y-80230753D01*
X131545410Y-80169352D01*
X131671416Y-80102000D01*
X133240486Y-80102000D01*
X133275499Y-80167505D01*
X133391341Y-80308659D01*
X133532495Y-80424501D01*
X133693536Y-80510580D01*
X133868276Y-80563587D01*
X134050000Y-80581485D01*
X134950000Y-80581485D01*
X135131724Y-80563587D01*
X135306464Y-80510580D01*
X135467505Y-80424501D01*
X135608659Y-80308659D01*
X135724501Y-80167505D01*
X135810580Y-80006464D01*
X135863587Y-79831724D01*
X135881485Y-79650000D01*
X135881485Y-78350000D01*
X135863587Y-78168276D01*
X135810580Y-77993536D01*
X135724501Y-77832495D01*
X135608659Y-77691341D01*
X135467505Y-77575499D01*
X135306464Y-77489420D01*
X135131724Y-77436413D01*
X134950000Y-77418515D01*
X134050000Y-77418515D01*
X133868276Y-77436413D01*
X133693536Y-77489420D01*
X133532495Y-77575499D01*
X133391341Y-77691341D01*
X133275499Y-77832495D01*
X133240486Y-77898000D01*
X131671416Y-77898000D01*
X131545410Y-77830648D01*
X131343000Y-77769247D01*
X131132500Y-77748515D01*
X130837500Y-77748515D01*
X130627000Y-77769247D01*
X130500000Y-77807772D01*
X130373000Y-77769247D01*
X130162500Y-77748515D01*
X129867500Y-77748515D01*
X129657000Y-77769247D01*
X129454590Y-77830648D01*
X129328584Y-77898000D01*
X126401934Y-77898000D01*
X126400580Y-77893536D01*
X126314501Y-77732495D01*
X126198659Y-77591341D01*
X126057505Y-77475499D01*
X125896464Y-77389420D01*
X125721724Y-77336413D01*
X125540000Y-77318515D01*
X120952000Y-77318515D01*
X120952000Y-76137402D01*
X122714250Y-76135000D01*
X122873000Y-75976250D01*
X122873000Y-74877000D01*
X123127000Y-74877000D01*
X123127000Y-75976250D01*
X123285750Y-76135000D01*
X125540000Y-76138072D01*
X125664482Y-76125812D01*
X125784180Y-76089502D01*
X125894494Y-76030537D01*
X125991185Y-75951185D01*
X126070537Y-75854494D01*
X126129502Y-75744180D01*
X126165812Y-75624482D01*
X126178072Y-75500000D01*
X150321928Y-75500000D01*
X150334188Y-75624482D01*
X150370498Y-75744180D01*
X150429463Y-75854494D01*
X150508815Y-75951185D01*
X150605506Y-76030537D01*
X150715820Y-76089502D01*
X150835518Y-76125812D01*
X150960000Y-76138072D01*
X153214250Y-76135000D01*
X153373000Y-75976250D01*
X153373000Y-74877000D01*
X150483750Y-74877000D01*
X150325000Y-75035750D01*
X150321928Y-75500000D01*
X126178072Y-75500000D01*
X126175000Y-75035750D01*
X126016250Y-74877000D01*
X123127000Y-74877000D01*
X122873000Y-74877000D01*
X122853000Y-74877000D01*
X122853000Y-74623000D01*
X122873000Y-74623000D01*
X122873000Y-73523750D01*
X123127000Y-73523750D01*
X123127000Y-74623000D01*
X126016250Y-74623000D01*
X126175000Y-74464250D01*
X126178072Y-74000000D01*
X150321928Y-74000000D01*
X150325000Y-74464250D01*
X150483750Y-74623000D01*
X153373000Y-74623000D01*
X153373000Y-73523750D01*
X153214250Y-73365000D01*
X150960000Y-73361928D01*
X150835518Y-73374188D01*
X150715820Y-73410498D01*
X150605506Y-73469463D01*
X150508815Y-73548815D01*
X150429463Y-73645506D01*
X150370498Y-73755820D01*
X150334188Y-73875518D01*
X150321928Y-74000000D01*
X126178072Y-74000000D01*
X126165812Y-73875518D01*
X126129502Y-73755820D01*
X126070537Y-73645506D01*
X125991185Y-73548815D01*
X125894494Y-73469463D01*
X125784180Y-73410498D01*
X125664482Y-73374188D01*
X125540000Y-73361928D01*
X123285750Y-73365000D01*
X123127000Y-73523750D01*
X122873000Y-73523750D01*
X122714250Y-73365000D01*
X120952000Y-73362598D01*
X120952000Y-72546764D01*
X120956606Y-72500000D01*
X120938225Y-72313375D01*
X120883789Y-72133923D01*
X120795389Y-71968538D01*
X120676423Y-71823577D01*
X120531462Y-71704611D01*
X120366077Y-71616211D01*
X120186625Y-71561775D01*
X120046765Y-71548000D01*
X120000000Y-71543394D01*
X119953235Y-71548000D01*
X118952000Y-71548000D01*
X118952000Y-69677000D01*
X119177000Y-69677000D01*
X119177000Y-71376250D01*
X119335750Y-71535000D01*
X119550000Y-71538072D01*
X119674482Y-71525812D01*
X119794180Y-71489502D01*
X119904494Y-71430537D01*
X120001185Y-71351185D01*
X120080537Y-71254494D01*
X120139502Y-71144180D01*
X120175812Y-71024482D01*
X120188072Y-70900000D01*
X155811928Y-70900000D01*
X155824188Y-71024482D01*
X155860498Y-71144180D01*
X155919463Y-71254494D01*
X155998815Y-71351185D01*
X156095506Y-71430537D01*
X156205820Y-71489502D01*
X156325518Y-71525812D01*
X156450000Y-71538072D01*
X156664250Y-71535000D01*
X156823000Y-71376250D01*
X156823000Y-69677000D01*
X155973750Y-69677000D01*
X155815000Y-69835750D01*
X155811928Y-70900000D01*
X120188072Y-70900000D01*
X120185000Y-69835750D01*
X120026250Y-69677000D01*
X119177000Y-69677000D01*
X118952000Y-69677000D01*
X118952000Y-68953235D01*
X118947879Y-68911394D01*
X118948009Y-68892774D01*
X118946712Y-68879545D01*
X118923000Y-68653940D01*
X118923000Y-68312420D01*
X118924188Y-68324482D01*
X118960498Y-68444180D01*
X119019463Y-68554494D01*
X119098815Y-68651185D01*
X119177000Y-68715350D01*
X119177000Y-69423000D01*
X120026250Y-69423000D01*
X120185000Y-69264250D01*
X120186237Y-68835874D01*
X120439250Y-68835000D01*
X120598000Y-68676250D01*
X120598000Y-67827000D01*
X120852000Y-67827000D01*
X120852000Y-68676250D01*
X121010750Y-68835000D01*
X121900000Y-68838072D01*
X122024482Y-68825812D01*
X122144180Y-68789502D01*
X122254494Y-68730537D01*
X122351185Y-68651185D01*
X122430537Y-68554494D01*
X122489502Y-68444180D01*
X122525812Y-68324482D01*
X122538072Y-68200000D01*
X123461928Y-68200000D01*
X123474188Y-68324482D01*
X123510498Y-68444180D01*
X123569463Y-68554494D01*
X123648815Y-68651185D01*
X123745506Y-68730537D01*
X123855820Y-68789502D01*
X123975518Y-68825812D01*
X124100000Y-68838072D01*
X125714250Y-68835000D01*
X125873000Y-68676250D01*
X125873000Y-67827000D01*
X126127000Y-67827000D01*
X126127000Y-68676250D01*
X126285750Y-68835000D01*
X127900000Y-68838072D01*
X128024482Y-68825812D01*
X128144180Y-68789502D01*
X128254494Y-68730537D01*
X128351185Y-68651185D01*
X128430537Y-68554494D01*
X128489502Y-68444180D01*
X128525812Y-68324482D01*
X128538072Y-68200000D01*
X129461928Y-68200000D01*
X129474188Y-68324482D01*
X129510498Y-68444180D01*
X129569463Y-68554494D01*
X129648815Y-68651185D01*
X129745506Y-68730537D01*
X129855820Y-68789502D01*
X129975518Y-68825812D01*
X130100000Y-68838072D01*
X131714250Y-68835000D01*
X131873000Y-68676250D01*
X131873000Y-67827000D01*
X132127000Y-67827000D01*
X132127000Y-68676250D01*
X132285750Y-68835000D01*
X133900000Y-68838072D01*
X134024482Y-68825812D01*
X134144180Y-68789502D01*
X134254494Y-68730537D01*
X134351185Y-68651185D01*
X134430537Y-68554494D01*
X134489502Y-68444180D01*
X134525812Y-68324482D01*
X134538072Y-68200000D01*
X135461928Y-68200000D01*
X135474188Y-68324482D01*
X135510498Y-68444180D01*
X135569463Y-68554494D01*
X135648815Y-68651185D01*
X135745506Y-68730537D01*
X135855820Y-68789502D01*
X135975518Y-68825812D01*
X136100000Y-68838072D01*
X137714250Y-68835000D01*
X137873000Y-68676250D01*
X137873000Y-67827000D01*
X138127000Y-67827000D01*
X138127000Y-68676250D01*
X138285750Y-68835000D01*
X139900000Y-68838072D01*
X140024482Y-68825812D01*
X140144180Y-68789502D01*
X140254494Y-68730537D01*
X140351185Y-68651185D01*
X140430537Y-68554494D01*
X140489502Y-68444180D01*
X140525812Y-68324482D01*
X140538072Y-68200000D01*
X141461928Y-68200000D01*
X141474188Y-68324482D01*
X141510498Y-68444180D01*
X141569463Y-68554494D01*
X141648815Y-68651185D01*
X141745506Y-68730537D01*
X141855820Y-68789502D01*
X141975518Y-68825812D01*
X142100000Y-68838072D01*
X143714250Y-68835000D01*
X143873000Y-68676250D01*
X143873000Y-67827000D01*
X144127000Y-67827000D01*
X144127000Y-68676250D01*
X144285750Y-68835000D01*
X145900000Y-68838072D01*
X146024482Y-68825812D01*
X146144180Y-68789502D01*
X146254494Y-68730537D01*
X146351185Y-68651185D01*
X146430537Y-68554494D01*
X146489502Y-68444180D01*
X146525812Y-68324482D01*
X146538072Y-68200000D01*
X147461928Y-68200000D01*
X147474188Y-68324482D01*
X147510498Y-68444180D01*
X147569463Y-68554494D01*
X147648815Y-68651185D01*
X147745506Y-68730537D01*
X147855820Y-68789502D01*
X147975518Y-68825812D01*
X148100000Y-68838072D01*
X149714250Y-68835000D01*
X149873000Y-68676250D01*
X149873000Y-67827000D01*
X150127000Y-67827000D01*
X150127000Y-68676250D01*
X150285750Y-68835000D01*
X151900000Y-68838072D01*
X152024482Y-68825812D01*
X152144180Y-68789502D01*
X152254494Y-68730537D01*
X152351185Y-68651185D01*
X152430537Y-68554494D01*
X152489502Y-68444180D01*
X152525812Y-68324482D01*
X152538072Y-68200000D01*
X153461928Y-68200000D01*
X153474188Y-68324482D01*
X153510498Y-68444180D01*
X153569463Y-68554494D01*
X153648815Y-68651185D01*
X153745506Y-68730537D01*
X153855820Y-68789502D01*
X153975518Y-68825812D01*
X154100000Y-68838072D01*
X154989250Y-68835000D01*
X155148000Y-68676250D01*
X155148000Y-67827000D01*
X153623750Y-67827000D01*
X153465000Y-67985750D01*
X153461928Y-68200000D01*
X152538072Y-68200000D01*
X152535000Y-67985750D01*
X152376250Y-67827000D01*
X150127000Y-67827000D01*
X149873000Y-67827000D01*
X147623750Y-67827000D01*
X147465000Y-67985750D01*
X147461928Y-68200000D01*
X146538072Y-68200000D01*
X146535000Y-67985750D01*
X146376250Y-67827000D01*
X144127000Y-67827000D01*
X143873000Y-67827000D01*
X141623750Y-67827000D01*
X141465000Y-67985750D01*
X141461928Y-68200000D01*
X140538072Y-68200000D01*
X140535000Y-67985750D01*
X140376250Y-67827000D01*
X138127000Y-67827000D01*
X137873000Y-67827000D01*
X135623750Y-67827000D01*
X135465000Y-67985750D01*
X135461928Y-68200000D01*
X134538072Y-68200000D01*
X134535000Y-67985750D01*
X134376250Y-67827000D01*
X132127000Y-67827000D01*
X131873000Y-67827000D01*
X129623750Y-67827000D01*
X129465000Y-67985750D01*
X129461928Y-68200000D01*
X128538072Y-68200000D01*
X128535000Y-67985750D01*
X128376250Y-67827000D01*
X126127000Y-67827000D01*
X125873000Y-67827000D01*
X123623750Y-67827000D01*
X123465000Y-67985750D01*
X123461928Y-68200000D01*
X122538072Y-68200000D01*
X122535000Y-67985750D01*
X122376250Y-67827000D01*
X120852000Y-67827000D01*
X120598000Y-67827000D01*
X120065350Y-67827000D01*
X120001185Y-67748815D01*
X119904494Y-67669463D01*
X119794180Y-67610498D01*
X119674482Y-67574188D01*
X119662420Y-67573000D01*
X120598000Y-67573000D01*
X120598000Y-67553000D01*
X120852000Y-67553000D01*
X120852000Y-67573000D01*
X122376250Y-67573000D01*
X122535000Y-67414250D01*
X122538072Y-67200000D01*
X122530882Y-67127000D01*
X123469118Y-67127000D01*
X123461928Y-67200000D01*
G37*
X123461928Y-67200000D02*
X123465000Y-67414250D01*
X123623750Y-67573000D01*
X125873000Y-67573000D01*
X125873000Y-67553000D01*
X126127000Y-67553000D01*
X126127000Y-67573000D01*
X128376250Y-67573000D01*
X128535000Y-67414250D01*
X128538072Y-67200000D01*
X128530882Y-67127000D01*
X129469118Y-67127000D01*
X129461928Y-67200000D01*
X129465000Y-67414250D01*
X129623750Y-67573000D01*
X131873000Y-67573000D01*
X131873000Y-67553000D01*
X132127000Y-67553000D01*
X132127000Y-67573000D01*
X134376250Y-67573000D01*
X134535000Y-67414250D01*
X134538072Y-67200000D01*
X134530882Y-67127000D01*
X135469118Y-67127000D01*
X135461928Y-67200000D01*
X135465000Y-67414250D01*
X135623750Y-67573000D01*
X137873000Y-67573000D01*
X137873000Y-67553000D01*
X138127000Y-67553000D01*
X138127000Y-67573000D01*
X140376250Y-67573000D01*
X140535000Y-67414250D01*
X140538072Y-67200000D01*
X140530882Y-67127000D01*
X141469118Y-67127000D01*
X141461928Y-67200000D01*
X141465000Y-67414250D01*
X141623750Y-67573000D01*
X143873000Y-67573000D01*
X143873000Y-67553000D01*
X144127000Y-67553000D01*
X144127000Y-67573000D01*
X146376250Y-67573000D01*
X146535000Y-67414250D01*
X146538072Y-67200000D01*
X146530882Y-67127000D01*
X147469118Y-67127000D01*
X147461928Y-67200000D01*
X147465000Y-67414250D01*
X147623750Y-67573000D01*
X149873000Y-67573000D01*
X149873000Y-67553000D01*
X150127000Y-67553000D01*
X150127000Y-67573000D01*
X152376250Y-67573000D01*
X152535000Y-67414250D01*
X152538072Y-67200000D01*
X152530882Y-67127000D01*
X153469118Y-67127000D01*
X153461928Y-67200000D01*
X153465000Y-67414250D01*
X153623750Y-67573000D01*
X155148000Y-67573000D01*
X155148000Y-67553000D01*
X155402000Y-67553000D01*
X155402000Y-67573000D01*
X156337580Y-67573000D01*
X156325518Y-67574188D01*
X156205820Y-67610498D01*
X156095506Y-67669463D01*
X155998815Y-67748815D01*
X155934650Y-67827000D01*
X155402000Y-67827000D01*
X155402000Y-68676250D01*
X155560750Y-68835000D01*
X155813763Y-68835874D01*
X155815000Y-69264250D01*
X155973750Y-69423000D01*
X156823000Y-69423000D01*
X156823000Y-68715350D01*
X156901185Y-68651185D01*
X156980537Y-68554494D01*
X157039502Y-68444180D01*
X157075812Y-68324482D01*
X157077000Y-68312420D01*
X157077000Y-68657681D01*
X157052544Y-68907100D01*
X157052544Y-68907109D01*
X157048001Y-68953235D01*
X157048000Y-71548000D01*
X156046765Y-71548000D01*
X156000000Y-71543394D01*
X155953235Y-71548000D01*
X155813375Y-71561775D01*
X155633923Y-71616211D01*
X155468538Y-71704611D01*
X155323577Y-71823577D01*
X155204611Y-71968538D01*
X155116211Y-72133923D01*
X155061775Y-72313375D01*
X155043394Y-72500000D01*
X155048000Y-72546764D01*
X155048000Y-73363280D01*
X153785750Y-73365000D01*
X153627000Y-73523750D01*
X153627000Y-74623000D01*
X153647000Y-74623000D01*
X153647000Y-74877000D01*
X153627000Y-74877000D01*
X153627000Y-75976250D01*
X153785750Y-76135000D01*
X155048000Y-76136720D01*
X155048000Y-77318515D01*
X150960000Y-77318515D01*
X150778276Y-77336413D01*
X150603536Y-77389420D01*
X150442495Y-77475499D01*
X150301341Y-77591341D01*
X150185499Y-77732495D01*
X150099420Y-77893536D01*
X150098066Y-77898000D01*
X145171416Y-77898000D01*
X145045410Y-77830648D01*
X144843000Y-77769247D01*
X144632500Y-77748515D01*
X144337500Y-77748515D01*
X144127000Y-77769247D01*
X144000000Y-77807772D01*
X143873000Y-77769247D01*
X143662500Y-77748515D01*
X143367500Y-77748515D01*
X143157000Y-77769247D01*
X142954590Y-77830648D01*
X142828584Y-77898000D01*
X138759514Y-77898000D01*
X138724501Y-77832495D01*
X138608659Y-77691341D01*
X138467505Y-77575499D01*
X138306464Y-77489420D01*
X138131724Y-77436413D01*
X137950000Y-77418515D01*
X137050000Y-77418515D01*
X136868276Y-77436413D01*
X136693536Y-77489420D01*
X136532495Y-77575499D01*
X136391341Y-77691341D01*
X136275499Y-77832495D01*
X136189420Y-77993536D01*
X136136413Y-78168276D01*
X136118515Y-78350000D01*
X136118515Y-79567357D01*
X136090499Y-79601495D01*
X136004420Y-79762536D01*
X135951413Y-79937276D01*
X135933515Y-80119000D01*
X135933515Y-80881000D01*
X135951413Y-81062724D01*
X136004420Y-81237464D01*
X136090499Y-81398505D01*
X136206341Y-81539659D01*
X136347495Y-81655501D01*
X136508536Y-81741580D01*
X136602224Y-81770000D01*
X136508536Y-81798420D01*
X136347495Y-81884499D01*
X136206341Y-82000341D01*
X136090499Y-82141495D01*
X136004420Y-82302536D01*
X135951413Y-82477276D01*
X135933515Y-82659000D01*
X135933515Y-83421000D01*
X135951413Y-83602724D01*
X136004420Y-83777464D01*
X136090499Y-83938505D01*
X136206341Y-84079659D01*
X136347495Y-84195501D01*
X136422246Y-84235456D01*
X136397998Y-84280820D01*
X136361688Y-84400518D01*
X136349428Y-84525000D01*
X136352500Y-84714250D01*
X136511250Y-84873000D01*
X137298000Y-84873000D01*
X137298000Y-84853000D01*
X137552000Y-84853000D01*
X137552000Y-84873000D01*
X137568536Y-84873000D01*
X137298000Y-85143537D01*
X137298000Y-85127000D01*
X136511250Y-85127000D01*
X136352500Y-85285750D01*
X136349428Y-85475000D01*
X136361688Y-85599482D01*
X136397998Y-85719180D01*
X136456963Y-85829494D01*
X136460199Y-85833437D01*
X136354127Y-85822990D01*
X136299990Y-85817658D01*
X136245853Y-85822990D01*
X134381485Y-85822990D01*
X134381485Y-85715000D01*
X134360705Y-85504013D01*
X134299162Y-85301134D01*
X134261140Y-85230000D01*
X134299162Y-85158866D01*
X134360705Y-84955987D01*
X134381485Y-84745000D01*
X134381485Y-84445000D01*
X134360705Y-84234013D01*
X134299162Y-84031134D01*
X134199222Y-83844159D01*
X134064725Y-83680275D01*
X133900841Y-83545778D01*
X133713866Y-83445838D01*
X133510987Y-83384295D01*
X133300000Y-83363515D01*
X131650000Y-83363515D01*
X131439013Y-83384295D01*
X131236134Y-83445838D01*
X131049159Y-83545778D01*
X130885275Y-83680275D01*
X130750778Y-83844159D01*
X130650838Y-84031134D01*
X130589295Y-84234013D01*
X130568515Y-84445000D01*
X130568515Y-84745000D01*
X130570288Y-84763000D01*
X129429712Y-84763000D01*
X129431485Y-84745000D01*
X129431485Y-84445000D01*
X129410705Y-84234013D01*
X129349162Y-84031134D01*
X129249222Y-83844159D01*
X129114725Y-83680275D01*
X128950841Y-83545778D01*
X128763866Y-83445838D01*
X128560987Y-83384295D01*
X128350000Y-83363515D01*
X126700000Y-83363515D01*
X126489013Y-83384295D01*
X126286134Y-83445838D01*
X126155118Y-83515868D01*
X126016250Y-83377000D01*
X123127000Y-83377000D01*
X123127000Y-84476250D01*
X123285750Y-84635000D01*
X125019885Y-84637363D01*
X124292679Y-85364569D01*
X124252524Y-85397524D01*
X124121062Y-85557712D01*
X124032182Y-85723996D01*
X124023376Y-85740470D01*
X123963222Y-85938773D01*
X123942910Y-86145000D01*
X123947074Y-86187278D01*
X123824028Y-86371430D01*
X123723996Y-86612928D01*
X123680462Y-86831786D01*
X123637586Y-86874662D01*
X123469503Y-86891217D01*
X123247865Y-86958450D01*
X123043602Y-87067631D01*
X122864564Y-87214564D01*
X122845422Y-87237888D01*
X122794180Y-87210498D01*
X122674482Y-87174188D01*
X122550000Y-87161928D01*
X122260750Y-87165000D01*
X122102000Y-87323750D01*
X122102000Y-88373000D01*
X122122000Y-88373000D01*
X122122000Y-88627000D01*
X122102000Y-88627000D01*
X122102000Y-89676250D01*
X122260750Y-89835000D01*
X122550000Y-89838072D01*
X122674482Y-89825812D01*
X122794180Y-89789502D01*
X122845422Y-89762112D01*
X122864564Y-89785436D01*
X123043602Y-89932369D01*
X123247865Y-90041550D01*
X123469503Y-90108783D01*
X123699999Y-90131485D01*
X124350001Y-90131485D01*
X124580497Y-90108783D01*
X124802135Y-90041550D01*
X125006398Y-89932369D01*
X125185436Y-89785436D01*
X125332369Y-89606398D01*
X125441550Y-89402135D01*
X125508783Y-89180497D01*
X125531485Y-88950001D01*
X125531485Y-88216186D01*
X125626202Y-88176953D01*
X125618515Y-88255000D01*
X125618515Y-88555000D01*
X125639295Y-88765987D01*
X125700838Y-88968866D01*
X125800778Y-89155841D01*
X125935275Y-89319725D01*
X126099159Y-89454222D01*
X126286134Y-89554162D01*
X126489013Y-89615705D01*
X126700000Y-89636485D01*
X128350000Y-89636485D01*
X128560987Y-89615705D01*
X128763866Y-89554162D01*
X128950841Y-89454222D01*
X129114725Y-89319725D01*
X129249222Y-89155841D01*
X129349162Y-88968866D01*
X129390683Y-88831990D01*
X130609317Y-88831990D01*
X130650838Y-88968866D01*
X130750778Y-89155841D01*
X130885275Y-89319725D01*
X131049159Y-89454222D01*
X131236134Y-89554162D01*
X131439013Y-89615705D01*
X131650000Y-89636485D01*
X133300000Y-89636485D01*
X133510987Y-89615705D01*
X133713866Y-89554162D01*
X133900841Y-89454222D01*
X134064725Y-89319725D01*
X134199222Y-89155841D01*
X134251621Y-89057808D01*
X134279078Y-89109176D01*
X134425233Y-89287267D01*
X134603324Y-89433422D01*
X134806507Y-89542026D01*
X135026973Y-89608903D01*
X135256250Y-89631485D01*
X135643733Y-89631485D01*
X135744584Y-89732335D01*
X135777534Y-89772486D01*
X135937722Y-89903948D01*
X136120479Y-90001634D01*
X136318782Y-90061788D01*
X136525009Y-90082100D01*
X136576688Y-90077010D01*
X137802661Y-90077010D01*
X137854340Y-90082100D01*
X137906019Y-90077010D01*
X138060568Y-90061788D01*
X138258871Y-90001634D01*
X138441628Y-89903948D01*
X138601816Y-89772486D01*
X138634770Y-89732331D01*
X139033152Y-89333950D01*
X139075000Y-89338072D01*
X139276750Y-89335000D01*
X139435500Y-89176250D01*
X139435500Y-88931603D01*
X139457321Y-88909782D01*
X139497466Y-88876836D01*
X139628928Y-88716648D01*
X139689500Y-88603326D01*
X139689500Y-89176250D01*
X139848250Y-89335000D01*
X140050000Y-89338072D01*
X140174482Y-89325812D01*
X140294180Y-89289502D01*
X140343105Y-89263350D01*
X140362733Y-89287267D01*
X140540824Y-89433422D01*
X140744007Y-89542026D01*
X140964473Y-89608903D01*
X141193750Y-89631485D01*
X141681250Y-89631485D01*
X141910527Y-89608903D01*
X142130993Y-89542026D01*
X142334176Y-89433422D01*
X142512267Y-89287267D01*
X142658422Y-89109176D01*
X142688983Y-89052000D01*
X143555077Y-89052000D01*
X143582495Y-89074501D01*
X143743536Y-89160580D01*
X143918276Y-89213587D01*
X144100000Y-89231485D01*
X145400000Y-89231485D01*
X145581724Y-89213587D01*
X145756464Y-89160580D01*
X145917505Y-89074501D01*
X146058659Y-88958659D01*
X146174501Y-88817505D01*
X146260580Y-88656464D01*
X146313587Y-88481724D01*
X146331485Y-88300000D01*
X146331485Y-87552000D01*
X148673636Y-87552000D01*
X148686413Y-87681724D01*
X148739420Y-87856464D01*
X148825499Y-88017505D01*
X148941341Y-88158659D01*
X149082495Y-88274501D01*
X149243536Y-88360580D01*
X149418276Y-88413587D01*
X149600000Y-88431485D01*
X150900000Y-88431485D01*
X151081724Y-88413587D01*
X151256464Y-88360580D01*
X151268115Y-88354353D01*
X151292315Y-88412777D01*
X151503201Y-88728391D01*
X151771609Y-88996799D01*
X152087223Y-89207685D01*
X152437915Y-89352947D01*
X152810207Y-89427000D01*
X153189793Y-89427000D01*
X153562085Y-89352947D01*
X153912777Y-89207685D01*
X154228391Y-88996799D01*
X154325190Y-88900000D01*
X155811928Y-88900000D01*
X155824188Y-89024482D01*
X155860498Y-89144180D01*
X155919463Y-89254494D01*
X155998815Y-89351185D01*
X156095506Y-89430537D01*
X156205820Y-89489502D01*
X156325518Y-89525812D01*
X156450000Y-89538072D01*
X156664250Y-89535000D01*
X156823000Y-89376250D01*
X156823000Y-87127000D01*
X155973750Y-87127000D01*
X155815000Y-87285750D01*
X155811928Y-88900000D01*
X154325190Y-88900000D01*
X154496799Y-88728391D01*
X154707685Y-88412777D01*
X154852947Y-88062085D01*
X154927000Y-87689793D01*
X154927000Y-87310207D01*
X154852947Y-86937915D01*
X154707685Y-86587223D01*
X154496799Y-86271609D01*
X154228391Y-86003201D01*
X153912777Y-85792315D01*
X153562085Y-85647053D01*
X153210605Y-85577140D01*
X152269752Y-84636287D01*
X153214250Y-84635000D01*
X153373000Y-84476250D01*
X153373000Y-83377000D01*
X153353000Y-83377000D01*
X153353000Y-83123000D01*
X153373000Y-83123000D01*
X153373000Y-82023750D01*
X153214250Y-81865000D01*
X150960000Y-81861928D01*
X150835518Y-81874188D01*
X150715820Y-81910498D01*
X150605506Y-81969463D01*
X150508815Y-82048815D01*
X150429463Y-82145506D01*
X150370498Y-82255820D01*
X150334188Y-82375518D01*
X150321928Y-82500000D01*
X150323264Y-82701939D01*
X150265213Y-82654297D01*
X150073770Y-82551969D01*
X149866042Y-82488955D01*
X149704149Y-82473010D01*
X149650012Y-82467678D01*
X149595875Y-82473010D01*
X145997500Y-82473010D01*
X145997500Y-82372998D01*
X145838752Y-82372998D01*
X145997500Y-82214250D01*
X146000572Y-81800000D01*
X145988312Y-81675518D01*
X145952002Y-81555820D01*
X145893037Y-81445506D01*
X145813685Y-81348815D01*
X145716994Y-81269463D01*
X145606680Y-81210498D01*
X145486982Y-81174188D01*
X145362500Y-81161928D01*
X145160750Y-81165000D01*
X145002000Y-81323750D01*
X145002000Y-82373000D01*
X145022000Y-82373000D01*
X145022000Y-82473010D01*
X144728000Y-82473010D01*
X144728000Y-82373000D01*
X144748000Y-82373000D01*
X144748000Y-81323750D01*
X144589250Y-81165000D01*
X144387500Y-81161928D01*
X144263018Y-81174188D01*
X144143320Y-81210498D01*
X144094395Y-81236650D01*
X144074767Y-81212733D01*
X143896676Y-81066578D01*
X143693493Y-80957974D01*
X143473027Y-80891097D01*
X143243750Y-80868515D01*
X142756250Y-80868515D01*
X142526973Y-80891097D01*
X142306507Y-80957974D01*
X142103324Y-81066578D01*
X141925233Y-81212733D01*
X141779078Y-81390824D01*
X141775242Y-81398000D01*
X141703771Y-81398000D01*
X141789580Y-81237464D01*
X141842587Y-81062724D01*
X141860485Y-80881000D01*
X141860485Y-80119000D01*
X141858811Y-80102000D01*
X142828584Y-80102000D01*
X142954590Y-80169352D01*
X143157000Y-80230753D01*
X143367500Y-80251485D01*
X143662500Y-80251485D01*
X143873000Y-80230753D01*
X144000000Y-80192228D01*
X144127000Y-80230753D01*
X144337500Y-80251485D01*
X144632500Y-80251485D01*
X144843000Y-80230753D01*
X145045410Y-80169352D01*
X145171416Y-80102000D01*
X150098066Y-80102000D01*
X150099420Y-80106464D01*
X150185499Y-80267505D01*
X150301341Y-80408659D01*
X150442495Y-80524501D01*
X150603536Y-80610580D01*
X150778276Y-80663587D01*
X150960000Y-80681485D01*
X155048001Y-80681485D01*
X155048001Y-81863280D01*
X153785750Y-81865000D01*
X153627000Y-82023750D01*
X153627000Y-83123000D01*
X153647000Y-83123000D01*
X153647000Y-83377000D01*
X153627000Y-83377000D01*
X153627000Y-84476250D01*
X153785750Y-84635000D01*
X155048001Y-84636720D01*
X155048001Y-85453225D01*
X155043394Y-85500000D01*
X155061775Y-85686625D01*
X155116211Y-85866077D01*
X155204611Y-86031462D01*
X155323577Y-86176423D01*
X155468538Y-86295389D01*
X155633923Y-86383789D01*
X155813375Y-86438225D01*
X155814475Y-86438333D01*
X155815000Y-86714250D01*
X155973750Y-86873000D01*
X156823000Y-86873000D01*
X156823000Y-86853000D01*
X157048000Y-86853000D01*
X157048001Y-93147000D01*
X156823000Y-93147000D01*
X156823000Y-93127000D01*
X155973750Y-93127000D01*
X155815000Y-93285750D01*
X155814475Y-93561667D01*
X155813375Y-93561775D01*
X155633923Y-93616211D01*
X155468538Y-93704611D01*
X155323577Y-93823577D01*
X155204611Y-93968538D01*
X155116211Y-94133923D01*
X155061775Y-94313375D01*
X155043394Y-94500000D01*
X155048000Y-94546765D01*
X155048000Y-95363280D01*
X153785750Y-95365000D01*
X153627000Y-95523750D01*
X153627000Y-96623000D01*
X153647000Y-96623000D01*
X153647000Y-96877000D01*
X153627000Y-96877000D01*
X153627000Y-97976250D01*
X153785750Y-98135000D01*
X155048000Y-98136720D01*
X155048000Y-99318515D01*
X150960000Y-99318515D01*
X150778276Y-99336413D01*
X150603536Y-99389420D01*
X150442495Y-99475499D01*
X150301341Y-99591341D01*
X150185499Y-99732495D01*
X150113563Y-99867077D01*
X150045410Y-99830648D01*
X149843000Y-99769247D01*
X149632500Y-99748515D01*
X149337500Y-99748515D01*
X149127000Y-99769247D01*
X149000000Y-99807772D01*
X148873000Y-99769247D01*
X148662500Y-99748515D01*
X148367500Y-99748515D01*
X148157000Y-99769247D01*
X147954590Y-99830648D01*
X147828584Y-99898000D01*
X146259514Y-99898000D01*
X146224501Y-99832495D01*
X146108659Y-99691341D01*
X145967505Y-99575499D01*
X145806464Y-99489420D01*
X145631724Y-99436413D01*
X145450000Y-99418515D01*
X144550000Y-99418515D01*
X144368276Y-99436413D01*
X144193536Y-99489420D01*
X144032495Y-99575499D01*
X143891341Y-99691341D01*
X143775499Y-99832495D01*
X143689420Y-99993536D01*
X143636413Y-100168276D01*
X143618515Y-100350000D01*
X143618515Y-101650000D01*
X143636413Y-101831724D01*
X143689420Y-102006464D01*
X143775499Y-102167505D01*
X143891341Y-102308659D01*
X143898000Y-102314124D01*
X143898000Y-102317503D01*
X143847495Y-102344499D01*
X143706341Y-102460341D01*
X143590499Y-102601495D01*
X143504420Y-102762536D01*
X143451413Y-102937276D01*
X143433515Y-103119000D01*
X143433515Y-103881000D01*
X143451413Y-104062724D01*
X143504420Y-104237464D01*
X143590499Y-104398505D01*
X143706341Y-104539659D01*
X143847495Y-104655501D01*
X144008536Y-104741580D01*
X144102224Y-104770000D01*
X144008536Y-104798420D01*
X143847495Y-104884499D01*
X143706341Y-105000341D01*
X143590499Y-105141495D01*
X143504420Y-105302536D01*
X143451413Y-105477276D01*
X143433515Y-105659000D01*
X143433515Y-106421000D01*
X143451413Y-106602724D01*
X143504420Y-106777464D01*
X143552612Y-106867624D01*
X143515598Y-106898000D01*
X142754083Y-106898000D01*
X142609176Y-106779078D01*
X142405993Y-106670474D01*
X142185527Y-106603597D01*
X141956250Y-106581015D01*
X141043750Y-106581015D01*
X140814473Y-106603597D01*
X140594007Y-106670474D01*
X140390824Y-106779078D01*
X140245917Y-106898000D01*
X139484402Y-106898000D01*
X139395286Y-106824865D01*
X139196426Y-106718571D01*
X138980650Y-106653116D01*
X138756250Y-106631015D01*
X138243750Y-106631015D01*
X138019350Y-106653116D01*
X137803574Y-106718571D01*
X137735591Y-106754909D01*
X137806501Y-106668505D01*
X137892580Y-106507464D01*
X137945587Y-106332724D01*
X137963485Y-106151000D01*
X137963485Y-105389000D01*
X137945587Y-105207276D01*
X137892580Y-105032536D01*
X137806501Y-104871495D01*
X137690659Y-104730341D01*
X137549505Y-104614499D01*
X137388464Y-104528420D01*
X137294776Y-104500000D01*
X137388464Y-104471580D01*
X137549505Y-104385501D01*
X137690659Y-104269659D01*
X137806501Y-104128505D01*
X137892580Y-103967464D01*
X137945587Y-103792724D01*
X137963485Y-103611000D01*
X137963485Y-102849000D01*
X137945587Y-102667276D01*
X137892580Y-102492536D01*
X137806501Y-102331495D01*
X137731020Y-102239520D01*
X137852500Y-102251485D01*
X138147500Y-102251485D01*
X138358000Y-102230753D01*
X138485000Y-102192228D01*
X138612000Y-102230753D01*
X138822500Y-102251485D01*
X139117500Y-102251485D01*
X139328000Y-102230753D01*
X139530410Y-102169352D01*
X139656416Y-102102000D01*
X140740486Y-102102000D01*
X140775499Y-102167505D01*
X140891341Y-102308659D01*
X141032495Y-102424501D01*
X141193536Y-102510580D01*
X141368276Y-102563587D01*
X141550000Y-102581485D01*
X142450000Y-102581485D01*
X142631724Y-102563587D01*
X142806464Y-102510580D01*
X142967505Y-102424501D01*
X143108659Y-102308659D01*
X143224501Y-102167505D01*
X143310580Y-102006464D01*
X143363587Y-101831724D01*
X143381485Y-101650000D01*
X143381485Y-100350000D01*
X143363587Y-100168276D01*
X143310580Y-99993536D01*
X143224501Y-99832495D01*
X143108659Y-99691341D01*
X142967505Y-99575499D01*
X142806464Y-99489420D01*
X142631724Y-99436413D01*
X142450000Y-99418515D01*
X141550000Y-99418515D01*
X141368276Y-99436413D01*
X141193536Y-99489420D01*
X141032495Y-99575499D01*
X140891341Y-99691341D01*
X140775499Y-99832495D01*
X140740486Y-99898000D01*
X139656416Y-99898000D01*
X139530410Y-99830648D01*
X139328000Y-99769247D01*
X139117500Y-99748515D01*
X138822500Y-99748515D01*
X138612000Y-99769247D01*
X138485000Y-99807772D01*
X138358000Y-99769247D01*
X138147500Y-99748515D01*
X137852500Y-99748515D01*
X137642000Y-99769247D01*
X137439590Y-99830648D01*
X137313584Y-99898000D01*
X134759514Y-99898000D01*
X134724501Y-99832495D01*
X134608659Y-99691341D01*
X134467505Y-99575499D01*
X134306464Y-99489420D01*
X134131724Y-99436413D01*
X133950000Y-99418515D01*
X133050000Y-99418515D01*
X132868276Y-99436413D01*
X132693536Y-99489420D01*
X132532495Y-99575499D01*
X132391341Y-99691341D01*
X132275499Y-99832495D01*
X132189420Y-99993536D01*
X132136413Y-100168276D01*
X132118515Y-100350000D01*
X132118515Y-101650000D01*
X132136413Y-101831724D01*
X132189420Y-102006464D01*
X132275499Y-102167505D01*
X132301791Y-102199541D01*
X132193499Y-102331495D01*
X132107420Y-102492536D01*
X132054413Y-102667276D01*
X132036515Y-102849000D01*
X132036515Y-103611000D01*
X132054413Y-103792724D01*
X132107420Y-103967464D01*
X132193499Y-104128505D01*
X132309341Y-104269659D01*
X132450495Y-104385501D01*
X132611536Y-104471580D01*
X132705224Y-104500000D01*
X132611536Y-104528420D01*
X132450495Y-104614499D01*
X132309341Y-104730341D01*
X132193499Y-104871495D01*
X132107420Y-105032536D01*
X132054413Y-105207276D01*
X132036515Y-105389000D01*
X132036515Y-106151000D01*
X132054413Y-106332724D01*
X132107420Y-106507464D01*
X132193499Y-106668505D01*
X132309341Y-106809659D01*
X132418733Y-106899435D01*
X132271410Y-106913945D01*
X132063682Y-106976959D01*
X131872239Y-107079287D01*
X131781583Y-107153686D01*
X131750443Y-107179243D01*
X131704438Y-107216998D01*
X131669930Y-107259046D01*
X128684041Y-110244936D01*
X128641988Y-110279448D01*
X128636485Y-110286153D01*
X128636485Y-109700000D01*
X128615705Y-109489013D01*
X128554162Y-109286134D01*
X128454222Y-109099159D01*
X128319725Y-108935275D01*
X128155841Y-108800778D01*
X127968866Y-108700838D01*
X127765987Y-108639295D01*
X127555000Y-108618515D01*
X127255000Y-108618515D01*
X127044013Y-108639295D01*
X126841134Y-108700838D01*
X126770000Y-108738860D01*
X126698866Y-108700838D01*
X126495987Y-108639295D01*
X126285000Y-108618515D01*
X125985000Y-108618515D01*
X125774013Y-108639295D01*
X125571134Y-108700838D01*
X125500000Y-108738860D01*
X125428866Y-108700838D01*
X125225987Y-108639295D01*
X125015000Y-108618515D01*
X124715000Y-108618515D01*
X124504013Y-108639295D01*
X124301134Y-108700838D01*
X124230000Y-108738860D01*
X124158866Y-108700838D01*
X123955987Y-108639295D01*
X123745000Y-108618515D01*
X123445000Y-108618515D01*
X123234013Y-108639295D01*
X123031134Y-108700838D01*
X122844159Y-108800778D01*
X122786622Y-108847998D01*
X122676252Y-108847998D01*
X122835000Y-108689250D01*
X122838072Y-108400000D01*
X122825812Y-108275518D01*
X122789502Y-108155820D01*
X122730537Y-108045506D01*
X122651185Y-107948815D01*
X122554494Y-107869463D01*
X122444180Y-107810498D01*
X122324482Y-107774188D01*
X122200000Y-107761928D01*
X121785750Y-107765000D01*
X121627000Y-107923750D01*
X121627000Y-108848000D01*
X121647000Y-108848000D01*
X121647000Y-109102000D01*
X121627000Y-109102000D01*
X121627000Y-109122000D01*
X121373000Y-109122000D01*
X121373000Y-109102000D01*
X121353000Y-109102000D01*
X121353000Y-108848000D01*
X121373000Y-108848000D01*
X121373000Y-107923750D01*
X121214250Y-107765000D01*
X120915123Y-107762782D01*
X120938225Y-107686625D01*
X120956606Y-107500000D01*
X120952000Y-107453235D01*
X120952000Y-106637402D01*
X122714250Y-106635000D01*
X122873000Y-106476250D01*
X122873000Y-105377000D01*
X123127000Y-105377000D01*
X123127000Y-106476250D01*
X123285750Y-106635000D01*
X125540000Y-106638072D01*
X125664482Y-106625812D01*
X125784180Y-106589502D01*
X125894494Y-106530537D01*
X125991185Y-106451185D01*
X126070537Y-106354494D01*
X126129502Y-106244180D01*
X126165812Y-106124482D01*
X126178072Y-106000000D01*
X126175000Y-105535750D01*
X126016250Y-105377000D01*
X123127000Y-105377000D01*
X122873000Y-105377000D01*
X122853000Y-105377000D01*
X122853000Y-105123000D01*
X122873000Y-105123000D01*
X122873000Y-104023750D01*
X123127000Y-104023750D01*
X123127000Y-105123000D01*
X126016250Y-105123000D01*
X126175000Y-104964250D01*
X126178072Y-104500000D01*
X126165812Y-104375518D01*
X126129502Y-104255820D01*
X126070537Y-104145506D01*
X125991185Y-104048815D01*
X125894494Y-103969463D01*
X125784180Y-103910498D01*
X125664482Y-103874188D01*
X125540000Y-103861928D01*
X123285750Y-103865000D01*
X123127000Y-104023750D01*
X122873000Y-104023750D01*
X122714250Y-103865000D01*
X120952000Y-103862598D01*
X120952000Y-102681485D01*
X125540000Y-102681485D01*
X125721724Y-102663587D01*
X125896464Y-102610580D01*
X126057505Y-102524501D01*
X126198659Y-102408659D01*
X126314501Y-102267505D01*
X126386437Y-102132923D01*
X126454590Y-102169352D01*
X126657000Y-102230753D01*
X126867500Y-102251485D01*
X127162500Y-102251485D01*
X127373000Y-102230753D01*
X127500000Y-102192228D01*
X127627000Y-102230753D01*
X127837500Y-102251485D01*
X128132500Y-102251485D01*
X128343000Y-102230753D01*
X128545410Y-102169352D01*
X128671416Y-102102000D01*
X129240486Y-102102000D01*
X129275499Y-102167505D01*
X129391341Y-102308659D01*
X129532495Y-102424501D01*
X129693536Y-102510580D01*
X129868276Y-102563587D01*
X130050000Y-102581485D01*
X130950000Y-102581485D01*
X131131724Y-102563587D01*
X131306464Y-102510580D01*
X131467505Y-102424501D01*
X131608659Y-102308659D01*
X131724501Y-102167505D01*
X131810580Y-102006464D01*
X131863587Y-101831724D01*
X131881485Y-101650000D01*
X131881485Y-100350000D01*
X131863587Y-100168276D01*
X131810580Y-99993536D01*
X131724501Y-99832495D01*
X131608659Y-99691341D01*
X131467505Y-99575499D01*
X131306464Y-99489420D01*
X131131724Y-99436413D01*
X130950000Y-99418515D01*
X130050000Y-99418515D01*
X129868276Y-99436413D01*
X129693536Y-99489420D01*
X129532495Y-99575499D01*
X129391341Y-99691341D01*
X129275499Y-99832495D01*
X129240486Y-99898000D01*
X128671416Y-99898000D01*
X128545410Y-99830648D01*
X128343000Y-99769247D01*
X128132500Y-99748515D01*
X127837500Y-99748515D01*
X127627000Y-99769247D01*
X127500000Y-99807772D01*
X127373000Y-99769247D01*
X127162500Y-99748515D01*
X126867500Y-99748515D01*
X126657000Y-99769247D01*
X126454590Y-99830648D01*
X126386437Y-99867077D01*
X126314501Y-99732495D01*
X126198659Y-99591341D01*
X126057505Y-99475499D01*
X125896464Y-99389420D01*
X125721724Y-99336413D01*
X125540000Y-99318515D01*
X120952000Y-99318515D01*
X120952000Y-98137402D01*
X122714250Y-98135000D01*
X122873000Y-97976250D01*
X122873000Y-96877000D01*
X123127000Y-96877000D01*
X123127000Y-97976250D01*
X123285750Y-98135000D01*
X125540000Y-98138072D01*
X125664482Y-98125812D01*
X125784180Y-98089502D01*
X125894494Y-98030537D01*
X125991185Y-97951185D01*
X126070537Y-97854494D01*
X126129502Y-97744180D01*
X126165812Y-97624482D01*
X126178072Y-97500000D01*
X150321928Y-97500000D01*
X150334188Y-97624482D01*
X150370498Y-97744180D01*
X150429463Y-97854494D01*
X150508815Y-97951185D01*
X150605506Y-98030537D01*
X150715820Y-98089502D01*
X150835518Y-98125812D01*
X150960000Y-98138072D01*
X153214250Y-98135000D01*
X153373000Y-97976250D01*
X153373000Y-96877000D01*
X150483750Y-96877000D01*
X150325000Y-97035750D01*
X150321928Y-97500000D01*
X126178072Y-97500000D01*
X126175000Y-97035750D01*
X126016250Y-96877000D01*
X123127000Y-96877000D01*
X122873000Y-96877000D01*
X122853000Y-96877000D01*
X122853000Y-96623000D01*
X122873000Y-96623000D01*
X122873000Y-95523750D01*
X123127000Y-95523750D01*
X123127000Y-96623000D01*
X126016250Y-96623000D01*
X126175000Y-96464250D01*
X126178072Y-96000000D01*
X150321928Y-96000000D01*
X150325000Y-96464250D01*
X150483750Y-96623000D01*
X153373000Y-96623000D01*
X153373000Y-95523750D01*
X153214250Y-95365000D01*
X150960000Y-95361928D01*
X150835518Y-95374188D01*
X150715820Y-95410498D01*
X150605506Y-95469463D01*
X150508815Y-95548815D01*
X150429463Y-95645506D01*
X150370498Y-95755820D01*
X150334188Y-95875518D01*
X150321928Y-96000000D01*
X126178072Y-96000000D01*
X126165812Y-95875518D01*
X126129502Y-95755820D01*
X126070537Y-95645506D01*
X125991185Y-95548815D01*
X125894494Y-95469463D01*
X125784180Y-95410498D01*
X125664482Y-95374188D01*
X125540000Y-95361928D01*
X123285750Y-95365000D01*
X123127000Y-95523750D01*
X122873000Y-95523750D01*
X122714250Y-95365000D01*
X120952000Y-95362598D01*
X120952000Y-94546765D01*
X120956606Y-94500000D01*
X120938225Y-94313375D01*
X120883789Y-94133923D01*
X120795389Y-93968538D01*
X120676423Y-93823577D01*
X120531462Y-93704611D01*
X120366077Y-93616211D01*
X120186625Y-93561775D01*
X120185525Y-93561667D01*
X120185000Y-93285750D01*
X120026250Y-93127000D01*
X119177000Y-93127000D01*
X119177000Y-93147000D01*
X118952000Y-93147000D01*
X118952000Y-90623750D01*
X119177000Y-90623750D01*
X119177000Y-92873000D01*
X120026250Y-92873000D01*
X120185000Y-92714250D01*
X120188072Y-91100000D01*
X155811928Y-91100000D01*
X155815000Y-92714250D01*
X155973750Y-92873000D01*
X156823000Y-92873000D01*
X156823000Y-90623750D01*
X156664250Y-90465000D01*
X156450000Y-90461928D01*
X156325518Y-90474188D01*
X156205820Y-90510498D01*
X156095506Y-90569463D01*
X155998815Y-90648815D01*
X155919463Y-90745506D01*
X155860498Y-90855820D01*
X155824188Y-90975518D01*
X155811928Y-91100000D01*
X120188072Y-91100000D01*
X120175812Y-90975518D01*
X120139502Y-90855820D01*
X120080537Y-90745506D01*
X120001185Y-90648815D01*
X119904494Y-90569463D01*
X119794180Y-90510498D01*
X119674482Y-90474188D01*
X119550000Y-90461928D01*
X119335750Y-90465000D01*
X119177000Y-90623750D01*
X118952000Y-90623750D01*
X118952000Y-87127000D01*
X119177000Y-87127000D01*
X119177000Y-89376250D01*
X119335750Y-89535000D01*
X119550000Y-89538072D01*
X119674482Y-89525812D01*
X119794180Y-89489502D01*
X119904494Y-89430537D01*
X120001185Y-89351185D01*
X120080537Y-89254494D01*
X120109665Y-89200000D01*
X120761928Y-89200000D01*
X120774188Y-89324482D01*
X120810498Y-89444180D01*
X120869463Y-89554494D01*
X120948815Y-89651185D01*
X121045506Y-89730537D01*
X121155820Y-89789502D01*
X121275518Y-89825812D01*
X121400000Y-89838072D01*
X121689250Y-89835000D01*
X121848000Y-89676250D01*
X121848000Y-88627000D01*
X120923750Y-88627000D01*
X120765000Y-88785750D01*
X120761928Y-89200000D01*
X120109665Y-89200000D01*
X120139502Y-89144180D01*
X120175812Y-89024482D01*
X120188072Y-88900000D01*
X120185979Y-87800000D01*
X120761928Y-87800000D01*
X120765000Y-88214250D01*
X120923750Y-88373000D01*
X121848000Y-88373000D01*
X121848000Y-87323750D01*
X121689250Y-87165000D01*
X121400000Y-87161928D01*
X121275518Y-87174188D01*
X121155820Y-87210498D01*
X121045506Y-87269463D01*
X120948815Y-87348815D01*
X120869463Y-87445506D01*
X120810498Y-87555820D01*
X120774188Y-87675518D01*
X120761928Y-87800000D01*
X120185979Y-87800000D01*
X120185000Y-87285750D01*
X120026250Y-87127000D01*
X119177000Y-87127000D01*
X118952000Y-87127000D01*
X118952000Y-86853000D01*
X119177000Y-86853000D01*
X119177000Y-86873000D01*
X120026250Y-86873000D01*
X120185000Y-86714250D01*
X120185525Y-86438333D01*
X120186625Y-86438225D01*
X120366077Y-86383789D01*
X120531462Y-86295389D01*
X120676423Y-86176423D01*
X120795389Y-86031462D01*
X120883789Y-85866077D01*
X120938225Y-85686625D01*
X120956606Y-85500000D01*
X120952000Y-85453235D01*
X120952000Y-84637402D01*
X122714250Y-84635000D01*
X122873000Y-84476250D01*
X122873000Y-83377000D01*
X122853000Y-83377000D01*
X122853000Y-83123000D01*
X122873000Y-83123000D01*
X122873000Y-82023750D01*
X123127000Y-82023750D01*
X123127000Y-83123000D01*
X126016250Y-83123000D01*
X126175000Y-82964250D01*
X126178072Y-82500000D01*
X126165812Y-82375518D01*
X126129502Y-82255820D01*
X126070537Y-82145506D01*
X125991185Y-82048815D01*
X125894494Y-81969463D01*
X125784180Y-81910498D01*
X125664482Y-81874188D01*
X125540000Y-81861928D01*
X123285750Y-81865000D01*
X123127000Y-82023750D01*
X122873000Y-82023750D01*
X122714250Y-81865000D01*
X120952000Y-81862598D01*
X120952000Y-80681485D01*
X125540000Y-80681485D01*
X125721724Y-80663587D01*
X125896464Y-80610580D01*
X126057505Y-80524501D01*
X126198659Y-80408659D01*
X126314501Y-80267505D01*
X126400580Y-80106464D01*
X126401934Y-80102000D01*
X129328584Y-80102000D01*
X129454590Y-80169352D01*
X129657000Y-80230753D01*
X129867500Y-80251485D01*
X130162500Y-80251485D01*
X130373000Y-80230753D01*
X130500000Y-80192228D01*
X130627000Y-80230753D01*
X130837500Y-80251485D01*
X131132500Y-80251485D01*
X131343000Y-80230753D01*
X131545410Y-80169352D01*
X131671416Y-80102000D01*
X133240486Y-80102000D01*
X133275499Y-80167505D01*
X133391341Y-80308659D01*
X133532495Y-80424501D01*
X133693536Y-80510580D01*
X133868276Y-80563587D01*
X134050000Y-80581485D01*
X134950000Y-80581485D01*
X135131724Y-80563587D01*
X135306464Y-80510580D01*
X135467505Y-80424501D01*
X135608659Y-80308659D01*
X135724501Y-80167505D01*
X135810580Y-80006464D01*
X135863587Y-79831724D01*
X135881485Y-79650000D01*
X135881485Y-78350000D01*
X135863587Y-78168276D01*
X135810580Y-77993536D01*
X135724501Y-77832495D01*
X135608659Y-77691341D01*
X135467505Y-77575499D01*
X135306464Y-77489420D01*
X135131724Y-77436413D01*
X134950000Y-77418515D01*
X134050000Y-77418515D01*
X133868276Y-77436413D01*
X133693536Y-77489420D01*
X133532495Y-77575499D01*
X133391341Y-77691341D01*
X133275499Y-77832495D01*
X133240486Y-77898000D01*
X131671416Y-77898000D01*
X131545410Y-77830648D01*
X131343000Y-77769247D01*
X131132500Y-77748515D01*
X130837500Y-77748515D01*
X130627000Y-77769247D01*
X130500000Y-77807772D01*
X130373000Y-77769247D01*
X130162500Y-77748515D01*
X129867500Y-77748515D01*
X129657000Y-77769247D01*
X129454590Y-77830648D01*
X129328584Y-77898000D01*
X126401934Y-77898000D01*
X126400580Y-77893536D01*
X126314501Y-77732495D01*
X126198659Y-77591341D01*
X126057505Y-77475499D01*
X125896464Y-77389420D01*
X125721724Y-77336413D01*
X125540000Y-77318515D01*
X120952000Y-77318515D01*
X120952000Y-76137402D01*
X122714250Y-76135000D01*
X122873000Y-75976250D01*
X122873000Y-74877000D01*
X123127000Y-74877000D01*
X123127000Y-75976250D01*
X123285750Y-76135000D01*
X125540000Y-76138072D01*
X125664482Y-76125812D01*
X125784180Y-76089502D01*
X125894494Y-76030537D01*
X125991185Y-75951185D01*
X126070537Y-75854494D01*
X126129502Y-75744180D01*
X126165812Y-75624482D01*
X126178072Y-75500000D01*
X150321928Y-75500000D01*
X150334188Y-75624482D01*
X150370498Y-75744180D01*
X150429463Y-75854494D01*
X150508815Y-75951185D01*
X150605506Y-76030537D01*
X150715820Y-76089502D01*
X150835518Y-76125812D01*
X150960000Y-76138072D01*
X153214250Y-76135000D01*
X153373000Y-75976250D01*
X153373000Y-74877000D01*
X150483750Y-74877000D01*
X150325000Y-75035750D01*
X150321928Y-75500000D01*
X126178072Y-75500000D01*
X126175000Y-75035750D01*
X126016250Y-74877000D01*
X123127000Y-74877000D01*
X122873000Y-74877000D01*
X122853000Y-74877000D01*
X122853000Y-74623000D01*
X122873000Y-74623000D01*
X122873000Y-73523750D01*
X123127000Y-73523750D01*
X123127000Y-74623000D01*
X126016250Y-74623000D01*
X126175000Y-74464250D01*
X126178072Y-74000000D01*
X150321928Y-74000000D01*
X150325000Y-74464250D01*
X150483750Y-74623000D01*
X153373000Y-74623000D01*
X153373000Y-73523750D01*
X153214250Y-73365000D01*
X150960000Y-73361928D01*
X150835518Y-73374188D01*
X150715820Y-73410498D01*
X150605506Y-73469463D01*
X150508815Y-73548815D01*
X150429463Y-73645506D01*
X150370498Y-73755820D01*
X150334188Y-73875518D01*
X150321928Y-74000000D01*
X126178072Y-74000000D01*
X126165812Y-73875518D01*
X126129502Y-73755820D01*
X126070537Y-73645506D01*
X125991185Y-73548815D01*
X125894494Y-73469463D01*
X125784180Y-73410498D01*
X125664482Y-73374188D01*
X125540000Y-73361928D01*
X123285750Y-73365000D01*
X123127000Y-73523750D01*
X122873000Y-73523750D01*
X122714250Y-73365000D01*
X120952000Y-73362598D01*
X120952000Y-72546764D01*
X120956606Y-72500000D01*
X120938225Y-72313375D01*
X120883789Y-72133923D01*
X120795389Y-71968538D01*
X120676423Y-71823577D01*
X120531462Y-71704611D01*
X120366077Y-71616211D01*
X120186625Y-71561775D01*
X120046765Y-71548000D01*
X120000000Y-71543394D01*
X119953235Y-71548000D01*
X118952000Y-71548000D01*
X118952000Y-69677000D01*
X119177000Y-69677000D01*
X119177000Y-71376250D01*
X119335750Y-71535000D01*
X119550000Y-71538072D01*
X119674482Y-71525812D01*
X119794180Y-71489502D01*
X119904494Y-71430537D01*
X120001185Y-71351185D01*
X120080537Y-71254494D01*
X120139502Y-71144180D01*
X120175812Y-71024482D01*
X120188072Y-70900000D01*
X155811928Y-70900000D01*
X155824188Y-71024482D01*
X155860498Y-71144180D01*
X155919463Y-71254494D01*
X155998815Y-71351185D01*
X156095506Y-71430537D01*
X156205820Y-71489502D01*
X156325518Y-71525812D01*
X156450000Y-71538072D01*
X156664250Y-71535000D01*
X156823000Y-71376250D01*
X156823000Y-69677000D01*
X155973750Y-69677000D01*
X155815000Y-69835750D01*
X155811928Y-70900000D01*
X120188072Y-70900000D01*
X120185000Y-69835750D01*
X120026250Y-69677000D01*
X119177000Y-69677000D01*
X118952000Y-69677000D01*
X118952000Y-68953235D01*
X118947879Y-68911394D01*
X118948009Y-68892774D01*
X118946712Y-68879545D01*
X118923000Y-68653940D01*
X118923000Y-68312420D01*
X118924188Y-68324482D01*
X118960498Y-68444180D01*
X119019463Y-68554494D01*
X119098815Y-68651185D01*
X119177000Y-68715350D01*
X119177000Y-69423000D01*
X120026250Y-69423000D01*
X120185000Y-69264250D01*
X120186237Y-68835874D01*
X120439250Y-68835000D01*
X120598000Y-68676250D01*
X120598000Y-67827000D01*
X120852000Y-67827000D01*
X120852000Y-68676250D01*
X121010750Y-68835000D01*
X121900000Y-68838072D01*
X122024482Y-68825812D01*
X122144180Y-68789502D01*
X122254494Y-68730537D01*
X122351185Y-68651185D01*
X122430537Y-68554494D01*
X122489502Y-68444180D01*
X122525812Y-68324482D01*
X122538072Y-68200000D01*
X123461928Y-68200000D01*
X123474188Y-68324482D01*
X123510498Y-68444180D01*
X123569463Y-68554494D01*
X123648815Y-68651185D01*
X123745506Y-68730537D01*
X123855820Y-68789502D01*
X123975518Y-68825812D01*
X124100000Y-68838072D01*
X125714250Y-68835000D01*
X125873000Y-68676250D01*
X125873000Y-67827000D01*
X126127000Y-67827000D01*
X126127000Y-68676250D01*
X126285750Y-68835000D01*
X127900000Y-68838072D01*
X128024482Y-68825812D01*
X128144180Y-68789502D01*
X128254494Y-68730537D01*
X128351185Y-68651185D01*
X128430537Y-68554494D01*
X128489502Y-68444180D01*
X128525812Y-68324482D01*
X128538072Y-68200000D01*
X129461928Y-68200000D01*
X129474188Y-68324482D01*
X129510498Y-68444180D01*
X129569463Y-68554494D01*
X129648815Y-68651185D01*
X129745506Y-68730537D01*
X129855820Y-68789502D01*
X129975518Y-68825812D01*
X130100000Y-68838072D01*
X131714250Y-68835000D01*
X131873000Y-68676250D01*
X131873000Y-67827000D01*
X132127000Y-67827000D01*
X132127000Y-68676250D01*
X132285750Y-68835000D01*
X133900000Y-68838072D01*
X134024482Y-68825812D01*
X134144180Y-68789502D01*
X134254494Y-68730537D01*
X134351185Y-68651185D01*
X134430537Y-68554494D01*
X134489502Y-68444180D01*
X134525812Y-68324482D01*
X134538072Y-68200000D01*
X135461928Y-68200000D01*
X135474188Y-68324482D01*
X135510498Y-68444180D01*
X135569463Y-68554494D01*
X135648815Y-68651185D01*
X135745506Y-68730537D01*
X135855820Y-68789502D01*
X135975518Y-68825812D01*
X136100000Y-68838072D01*
X137714250Y-68835000D01*
X137873000Y-68676250D01*
X137873000Y-67827000D01*
X138127000Y-67827000D01*
X138127000Y-68676250D01*
X138285750Y-68835000D01*
X139900000Y-68838072D01*
X140024482Y-68825812D01*
X140144180Y-68789502D01*
X140254494Y-68730537D01*
X140351185Y-68651185D01*
X140430537Y-68554494D01*
X140489502Y-68444180D01*
X140525812Y-68324482D01*
X140538072Y-68200000D01*
X141461928Y-68200000D01*
X141474188Y-68324482D01*
X141510498Y-68444180D01*
X141569463Y-68554494D01*
X141648815Y-68651185D01*
X141745506Y-68730537D01*
X141855820Y-68789502D01*
X141975518Y-68825812D01*
X142100000Y-68838072D01*
X143714250Y-68835000D01*
X143873000Y-68676250D01*
X143873000Y-67827000D01*
X144127000Y-67827000D01*
X144127000Y-68676250D01*
X144285750Y-68835000D01*
X145900000Y-68838072D01*
X146024482Y-68825812D01*
X146144180Y-68789502D01*
X146254494Y-68730537D01*
X146351185Y-68651185D01*
X146430537Y-68554494D01*
X146489502Y-68444180D01*
X146525812Y-68324482D01*
X146538072Y-68200000D01*
X147461928Y-68200000D01*
X147474188Y-68324482D01*
X147510498Y-68444180D01*
X147569463Y-68554494D01*
X147648815Y-68651185D01*
X147745506Y-68730537D01*
X147855820Y-68789502D01*
X147975518Y-68825812D01*
X148100000Y-68838072D01*
X149714250Y-68835000D01*
X149873000Y-68676250D01*
X149873000Y-67827000D01*
X150127000Y-67827000D01*
X150127000Y-68676250D01*
X150285750Y-68835000D01*
X151900000Y-68838072D01*
X152024482Y-68825812D01*
X152144180Y-68789502D01*
X152254494Y-68730537D01*
X152351185Y-68651185D01*
X152430537Y-68554494D01*
X152489502Y-68444180D01*
X152525812Y-68324482D01*
X152538072Y-68200000D01*
X153461928Y-68200000D01*
X153474188Y-68324482D01*
X153510498Y-68444180D01*
X153569463Y-68554494D01*
X153648815Y-68651185D01*
X153745506Y-68730537D01*
X153855820Y-68789502D01*
X153975518Y-68825812D01*
X154100000Y-68838072D01*
X154989250Y-68835000D01*
X155148000Y-68676250D01*
X155148000Y-67827000D01*
X153623750Y-67827000D01*
X153465000Y-67985750D01*
X153461928Y-68200000D01*
X152538072Y-68200000D01*
X152535000Y-67985750D01*
X152376250Y-67827000D01*
X150127000Y-67827000D01*
X149873000Y-67827000D01*
X147623750Y-67827000D01*
X147465000Y-67985750D01*
X147461928Y-68200000D01*
X146538072Y-68200000D01*
X146535000Y-67985750D01*
X146376250Y-67827000D01*
X144127000Y-67827000D01*
X143873000Y-67827000D01*
X141623750Y-67827000D01*
X141465000Y-67985750D01*
X141461928Y-68200000D01*
X140538072Y-68200000D01*
X140535000Y-67985750D01*
X140376250Y-67827000D01*
X138127000Y-67827000D01*
X137873000Y-67827000D01*
X135623750Y-67827000D01*
X135465000Y-67985750D01*
X135461928Y-68200000D01*
X134538072Y-68200000D01*
X134535000Y-67985750D01*
X134376250Y-67827000D01*
X132127000Y-67827000D01*
X131873000Y-67827000D01*
X129623750Y-67827000D01*
X129465000Y-67985750D01*
X129461928Y-68200000D01*
X128538072Y-68200000D01*
X128535000Y-67985750D01*
X128376250Y-67827000D01*
X126127000Y-67827000D01*
X125873000Y-67827000D01*
X123623750Y-67827000D01*
X123465000Y-67985750D01*
X123461928Y-68200000D01*
X122538072Y-68200000D01*
X122535000Y-67985750D01*
X122376250Y-67827000D01*
X120852000Y-67827000D01*
X120598000Y-67827000D01*
X120065350Y-67827000D01*
X120001185Y-67748815D01*
X119904494Y-67669463D01*
X119794180Y-67610498D01*
X119674482Y-67574188D01*
X119662420Y-67573000D01*
X120598000Y-67573000D01*
X120598000Y-67553000D01*
X120852000Y-67553000D01*
X120852000Y-67573000D01*
X122376250Y-67573000D01*
X122535000Y-67414250D01*
X122538072Y-67200000D01*
X122530882Y-67127000D01*
X123469118Y-67127000D01*
X123461928Y-67200000D01*
G36*
X142414500Y-84873000D02*
G01*
X142434500Y-84873000D01*
X142434500Y-85127000D01*
X142414500Y-85127000D01*
X142414500Y-85147000D01*
X142160500Y-85147000D01*
X142160500Y-85127000D01*
X142140500Y-85127000D01*
X142140500Y-84873000D01*
X142160500Y-84873000D01*
X142160500Y-84853000D01*
X142414500Y-84853000D01*
X142414500Y-84873000D01*
G37*
X142414500Y-84873000D02*
X142434500Y-84873000D01*
X142434500Y-85127000D01*
X142414500Y-85127000D01*
X142414500Y-85147000D01*
X142160500Y-85147000D01*
X142160500Y-85127000D01*
X142140500Y-85127000D01*
X142140500Y-84873000D01*
X142160500Y-84873000D01*
X142160500Y-84853000D01*
X142414500Y-84853000D01*
X142414500Y-84873000D01*
G36*
X157077000Y-67573000D02*
G01*
X157097000Y-67573000D01*
X157097000Y-67703750D01*
X157077000Y-67723750D01*
X157077000Y-67977750D01*
X156926250Y-67827000D01*
X156823000Y-67827000D01*
X156823000Y-67723750D01*
X156672250Y-67573000D01*
X156926250Y-67573000D01*
X156946250Y-67553000D01*
X157077000Y-67553000D01*
X157077000Y-67573000D01*
G37*
X157077000Y-67573000D02*
X157097000Y-67573000D01*
X157097000Y-67703750D01*
X157077000Y-67723750D01*
X157077000Y-67977750D01*
X156926250Y-67827000D01*
X156823000Y-67827000D01*
X156823000Y-67723750D01*
X156672250Y-67573000D01*
X156926250Y-67573000D01*
X156946250Y-67553000D01*
X157077000Y-67553000D01*
X157077000Y-67573000D01*
G36*
X119073750Y-67573000D02*
G01*
X119327750Y-67573000D01*
X119177000Y-67723750D01*
X119177000Y-67827000D01*
X119073750Y-67827000D01*
X118923000Y-67977750D01*
X118923000Y-67723750D01*
X118903000Y-67703750D01*
X118903000Y-67573000D01*
X118923000Y-67573000D01*
X118923000Y-67553000D01*
X119053750Y-67553000D01*
X119073750Y-67573000D01*
G37*
X119073750Y-67573000D02*
X119327750Y-67573000D01*
X119177000Y-67723750D01*
X119177000Y-67827000D01*
X119073750Y-67827000D01*
X118923000Y-67977750D01*
X118923000Y-67723750D01*
X118903000Y-67703750D01*
X118903000Y-67573000D01*
X118923000Y-67573000D01*
X118923000Y-67553000D01*
X119053750Y-67553000D01*
X119073750Y-67573000D01*
G04 #@! TD*
M02*
