M48
; DRILL file {KiCad 5.1.6-c6e7f7d~87~ubuntu18.04.1} date Tue Jan 12 05:29:35 2021
; FORMAT={-:-/ absolute / inch / decimal}
; #@! TF.CreationDate,2021-01-12T05:29:35+00:00
; #@! TF.GenerationSoftware,Kicad,Pcbnew,5.1.6-c6e7f7d~87~ubuntu18.04.1
; #@! TF.FileFunction,Plated,1,4,PTH
FMAT,2
INCH
T1C0.0157
%
G90
G05
T1
X4.811Y-3.5709
X4.8228Y-4.5472
X4.8425Y-2.8346
X4.8425Y-3.4055
X4.8425Y-3.7402
X4.8425Y-4.2323
X4.9213Y-3.4252
X4.9213Y-4.6063
X4.9291Y-3.5709
X5.0394Y-3.5709
X5.1378Y-3.7992
X5.1654Y-3.5709
X5.1969Y-3.7795
X5.1969Y-4.5276
X5.2559Y-3.7992
X5.2677Y-3.5709
X5.2953Y-4.3307
X5.315Y-2.9331
X5.3543Y-2.9134
X5.374Y-3.3465
X5.374Y-4.4685
X5.378Y-3.5709
X5.3937Y-2.9331
X5.4724Y-3.5039
X5.4724Y-3.5709
X5.4724Y-4.0748
X5.4724Y-4.1732
X5.5906Y-3.5709
X5.5906Y-3.7992
X5.6102Y-4.0748
X5.6102Y-4.1535
X5.6299Y-3.3661
X5.6496Y-3.7795
X5.689Y-4.5276
X5.7087Y-3.5709
X5.7087Y-3.7992
X5.748Y-3.248
X5.748Y-4.3307
X5.8031Y-3.5709
X5.8071Y-4.3504
X5.9134Y-3.5709
X6.0394Y-3.5709
X6.0433Y-2.8543
X6.0433Y-3.3661
X6.0433Y-3.7205
X6.0433Y-4.252
T0
M30
